<svg width="1440" height="1024" viewBox="0 0 1440 1024" fill="none" xmlns="http://www.w3.org/2000/svg">
<g clip-path="url(#clip0_2088_1767)">
<rect width="1440" height="1024" fill="white"/>
<g clip-path="url(#clip1_2088_1767)">
<rect width="1857" height="1045" transform="translate(-174)" fill="white"/>
<circle cx="659.5" cy="631.5" r="1.5" fill="#DBDBDB"/>
<circle cx="243.5" cy="0.5" r="1.5" fill="#DBDBDB"/>
<circle cx="243.5" cy="633.5" r="1.5" fill="#DBDBDB"/>
<circle cx="1077.5" cy="631.5" r="1.5" fill="#DBDBDB"/>
<circle cx="659.5" cy="210.5" r="1.5" fill="#DBDBDB"/>
<circle cx="659.5" cy="843.5" r="1.5" fill="#DBDBDB"/>
<circle cx="243.5" cy="212.5" r="1.5" fill="#DBDBDB"/>
<circle cx="243.5" cy="845.5" r="1.5" fill="#DBDBDB"/>
<circle cx="1077.5" cy="210.5" r="1.5" fill="#DBDBDB"/>
<circle cx="1077.5" cy="843.5" r="1.5" fill="#DBDBDB"/>
<circle cx="659.5" cy="422.5" r="1.5" fill="#DBDBDB"/>
<circle cx="243.5" cy="424.5" r="1.5" fill="#DBDBDB"/>
<circle cx="1077.5" cy="422.5" r="1.5" fill="#DBDBDB"/>
<circle cx="659.5" cy="104.5" r="1.5" fill="#DBDBDB"/>
<circle cx="659.5" cy="737.5" r="1.5" fill="#DBDBDB"/>
<circle cx="243.5" cy="106.5" r="1.5" fill="#DBDBDB"/>
<circle cx="243.5" cy="739.5" r="1.5" fill="#DBDBDB"/>
<circle cx="1077.5" cy="104.5" r="1.5" fill="#DBDBDB"/>
<circle cx="1077.5" cy="737.5" r="1.5" fill="#DBDBDB"/>
<circle cx="659.5" cy="316.5" r="1.5" fill="#DBDBDB"/>
<circle cx="659.5" cy="949.5" r="1.5" fill="#DBDBDB"/>
<circle cx="243.5" cy="318.5" r="1.5" fill="#DBDBDB"/>
<circle cx="243.5" cy="951.5" r="1.5" fill="#DBDBDB"/>
<circle cx="1077.5" cy="316.5" r="1.5" fill="#DBDBDB"/>
<circle cx="1077.5" cy="949.5" r="1.5" fill="#DBDBDB"/>
<circle cx="659.5" cy="528.5" r="1.5" fill="#DBDBDB"/>
<circle cx="243.5" cy="530.5" r="1.5" fill="#DBDBDB"/>
<circle cx="1077.5" cy="528.5" r="1.5" fill="#DBDBDB"/>
<circle cx="659.5" cy="51.5" r="1.5" fill="#DBDBDB"/>
<circle cx="659.5" cy="684.5" r="1.5" fill="#DBDBDB"/>
<circle cx="243.5" cy="53.5" r="1.5" fill="#DBDBDB"/>
<circle cx="243.5" cy="686.5" r="1.5" fill="#DBDBDB"/>
<circle cx="1077.5" cy="51.5" r="1.5" fill="#DBDBDB"/>
<circle cx="1077.5" cy="684.5" r="1.5" fill="#DBDBDB"/>
<circle cx="659.5" cy="263.5" r="1.5" fill="#DBDBDB"/>
<circle cx="659.5" cy="896.5" r="1.5" fill="#DBDBDB"/>
<circle cx="243.5" cy="265.5" r="1.5" fill="#DBDBDB"/>
<circle cx="243.5" cy="898.5" r="1.5" fill="#DBDBDB"/>
<circle cx="1077.5" cy="263.5" r="1.5" fill="#DBDBDB"/>
<circle cx="1077.5" cy="896.5" r="1.5" fill="#DBDBDB"/>
<circle cx="659.5" cy="475.5" r="1.5" fill="#DBDBDB"/>
<circle cx="243.5" cy="477.5" r="1.5" fill="#DBDBDB"/>
<circle cx="1077.5" cy="475.5" r="1.5" fill="#DBDBDB"/>
<circle cx="659.5" cy="157.5" r="1.5" fill="#DBDBDB"/>
<circle cx="659.5" cy="790.5" r="1.5" fill="#DBDBDB"/>
<circle cx="243.5" cy="159.5" r="1.5" fill="#DBDBDB"/>
<circle cx="243.5" cy="792.5" r="1.5" fill="#DBDBDB"/>
<circle cx="1077.5" cy="157.5" r="1.5" fill="#DBDBDB"/>
<circle cx="1077.5" cy="790.5" r="1.5" fill="#DBDBDB"/>
<circle cx="659.5" cy="369.5" r="1.5" fill="#DBDBDB"/>
<circle cx="243.5" cy="371.5" r="1.5" fill="#DBDBDB"/>
<circle cx="1077.5" cy="369.5" r="1.5" fill="#DBDBDB"/>
<circle cx="659.5" cy="581.5" r="1.5" fill="#DBDBDB"/>
<circle cx="243.5" cy="583.5" r="1.5" fill="#DBDBDB"/>
<circle cx="1077.5" cy="581.5" r="1.5" fill="#DBDBDB"/>
<circle cx="33.5" cy="0.5" r="1.5" fill="#DBDBDB"/>
<circle cx="33.5" cy="633.5" r="1.5" fill="#DBDBDB"/>
<circle cx="867.5" cy="631.5" r="1.5" fill="#DBDBDB"/>
<circle cx="451.5" cy="0.5" r="1.5" fill="#DBDBDB"/>
<circle cx="451.5" cy="633.5" r="1.5" fill="#DBDBDB"/>
<circle cx="1285.5" cy="631.5" r="1.5" fill="#DBDBDB"/>
<circle cx="33.5" cy="212.5" r="1.5" fill="#DBDBDB"/>
<circle cx="33.5" cy="845.5" r="1.5" fill="#DBDBDB"/>
<circle cx="867.5" cy="210.5" r="1.5" fill="#DBDBDB"/>
<circle cx="867.5" cy="843.5" r="1.5" fill="#DBDBDB"/>
<circle cx="451.5" cy="212.5" r="1.5" fill="#DBDBDB"/>
<circle cx="451.5" cy="845.5" r="1.5" fill="#DBDBDB"/>
<circle cx="1285.5" cy="210.5" r="1.5" fill="#DBDBDB"/>
<circle cx="1285.5" cy="843.5" r="1.5" fill="#DBDBDB"/>
<circle cx="33.5" cy="424.5" r="1.5" fill="#DBDBDB"/>
<circle cx="867.5" cy="422.5" r="1.5" fill="#DBDBDB"/>
<circle cx="451.5" cy="424.5" r="1.5" fill="#DBDBDB"/>
<circle cx="1285.5" cy="422.5" r="1.5" fill="#DBDBDB"/>
<circle cx="33.5" cy="106.5" r="1.5" fill="#DBDBDB"/>
<circle cx="33.5" cy="739.5" r="1.5" fill="#DBDBDB"/>
<circle cx="867.5" cy="104.5" r="1.5" fill="#DBDBDB"/>
<circle cx="867.5" cy="737.5" r="1.5" fill="#DBDBDB"/>
<circle cx="451.5" cy="106.5" r="1.5" fill="#DBDBDB"/>
<circle cx="451.5" cy="739.5" r="1.5" fill="#DBDBDB"/>
<circle cx="1285.5" cy="104.5" r="1.5" fill="#DBDBDB"/>
<circle cx="1285.5" cy="737.5" r="1.5" fill="#DBDBDB"/>
<circle cx="33.5" cy="318.5" r="1.5" fill="#DBDBDB"/>
<circle cx="33.5" cy="951.5" r="1.5" fill="#DBDBDB"/>
<circle cx="867.5" cy="316.5" r="1.5" fill="#DBDBDB"/>
<circle cx="867.5" cy="949.5" r="1.5" fill="#DBDBDB"/>
<circle cx="451.5" cy="318.5" r="1.5" fill="#DBDBDB"/>
<circle cx="451.5" cy="951.5" r="1.5" fill="#DBDBDB"/>
<circle cx="1285.5" cy="316.5" r="1.5" fill="#DBDBDB"/>
<circle cx="1285.5" cy="949.5" r="1.5" fill="#DBDBDB"/>
<circle cx="33.5" cy="530.5" r="1.5" fill="#DBDBDB"/>
<circle cx="867.5" cy="528.5" r="1.5" fill="#DBDBDB"/>
<circle cx="451.5" cy="530.5" r="1.5" fill="#DBDBDB"/>
<circle cx="1285.5" cy="528.5" r="1.5" fill="#DBDBDB"/>
<circle cx="33.5" cy="53.5" r="1.5" fill="#DBDBDB"/>
<circle cx="33.5" cy="686.5" r="1.5" fill="#DBDBDB"/>
<circle cx="867.5" cy="51.5" r="1.5" fill="#DBDBDB"/>
<circle cx="867.5" cy="684.5" r="1.5" fill="#DBDBDB"/>
<circle cx="451.5" cy="53.5" r="1.5" fill="#DBDBDB"/>
<circle cx="451.5" cy="686.5" r="1.5" fill="#DBDBDB"/>
<circle cx="1285.5" cy="51.5" r="1.5" fill="#DBDBDB"/>
<circle cx="1285.5" cy="684.5" r="1.5" fill="#DBDBDB"/>
<circle cx="33.5" cy="265.5" r="1.5" fill="#DBDBDB"/>
<circle cx="33.5" cy="898.5" r="1.5" fill="#DBDBDB"/>
<circle cx="867.5" cy="263.5" r="1.5" fill="#DBDBDB"/>
<circle cx="867.5" cy="896.5" r="1.5" fill="#DBDBDB"/>
<circle cx="451.5" cy="265.5" r="1.5" fill="#DBDBDB"/>
<circle cx="451.5" cy="898.5" r="1.5" fill="#DBDBDB"/>
<circle cx="1285.5" cy="263.5" r="1.5" fill="#DBDBDB"/>
<circle cx="1285.5" cy="896.5" r="1.5" fill="#DBDBDB"/>
<circle cx="33.5" cy="477.5" r="1.5" fill="#DBDBDB"/>
<circle cx="867.5" cy="475.5" r="1.5" fill="#DBDBDB"/>
<circle cx="451.5" cy="477.5" r="1.5" fill="#DBDBDB"/>
<circle cx="1285.5" cy="475.5" r="1.5" fill="#DBDBDB"/>
<circle cx="33.5" cy="159.5" r="1.5" fill="#DBDBDB"/>
<circle cx="33.5" cy="792.5" r="1.5" fill="#DBDBDB"/>
<circle cx="867.5" cy="157.5" r="1.5" fill="#DBDBDB"/>
<circle cx="867.5" cy="790.5" r="1.5" fill="#DBDBDB"/>
<circle cx="451.5" cy="159.5" r="1.5" fill="#DBDBDB"/>
<circle cx="451.5" cy="792.5" r="1.5" fill="#DBDBDB"/>
<circle cx="1285.5" cy="157.5" r="1.5" fill="#DBDBDB"/>
<circle cx="1285.5" cy="790.5" r="1.5" fill="#DBDBDB"/>
<circle cx="33.5" cy="371.5" r="1.5" fill="#DBDBDB"/>
<circle cx="867.5" cy="369.5" r="1.5" fill="#DBDBDB"/>
<circle cx="451.5" cy="371.5" r="1.5" fill="#DBDBDB"/>
<circle cx="1285.5" cy="369.5" r="1.5" fill="#DBDBDB"/>
<circle cx="33.5" cy="583.5" r="1.5" fill="#DBDBDB"/>
<circle cx="867.5" cy="581.5" r="1.5" fill="#DBDBDB"/>
<circle cx="451.5" cy="583.5" r="1.5" fill="#DBDBDB"/>
<circle cx="1285.5" cy="581.5" r="1.5" fill="#DBDBDB"/>
<circle cx="711.5" cy="631.5" r="1.5" fill="#DBDBDB"/>
<circle cx="295.5" cy="0.5" r="1.5" fill="#DBDBDB"/>
<circle cx="295.5" cy="633.5" r="1.5" fill="#DBDBDB"/>
<circle cx="1129.5" cy="631.5" r="1.5" fill="#DBDBDB"/>
<circle cx="711.5" cy="210.5" r="1.5" fill="#DBDBDB"/>
<circle cx="711.5" cy="843.5" r="1.5" fill="#DBDBDB"/>
<circle cx="295.5" cy="212.5" r="1.5" fill="#DBDBDB"/>
<circle cx="295.5" cy="845.5" r="1.5" fill="#DBDBDB"/>
<circle cx="1129.5" cy="210.5" r="1.5" fill="#DBDBDB"/>
<circle cx="1129.5" cy="843.5" r="1.5" fill="#DBDBDB"/>
<circle cx="711.5" cy="422.5" r="1.5" fill="#DBDBDB"/>
<circle cx="295.5" cy="424.5" r="1.5" fill="#DBDBDB"/>
<circle cx="1129.5" cy="422.5" r="1.5" fill="#DBDBDB"/>
<circle cx="711.5" cy="104.5" r="1.5" fill="#DBDBDB"/>
<circle cx="711.5" cy="737.5" r="1.5" fill="#DBDBDB"/>
<circle cx="295.5" cy="106.5" r="1.5" fill="#DBDBDB"/>
<circle cx="295.5" cy="739.5" r="1.5" fill="#DBDBDB"/>
<circle cx="1129.5" cy="104.5" r="1.5" fill="#DBDBDB"/>
<circle cx="1129.5" cy="737.5" r="1.5" fill="#DBDBDB"/>
<circle cx="711.5" cy="316.5" r="1.5" fill="#DBDBDB"/>
<circle cx="711.5" cy="949.5" r="1.5" fill="#DBDBDB"/>
<circle cx="295.5" cy="318.5" r="1.5" fill="#DBDBDB"/>
<circle cx="295.5" cy="951.5" r="1.5" fill="#DBDBDB"/>
<circle cx="1129.5" cy="316.5" r="1.5" fill="#DBDBDB"/>
<circle cx="1129.5" cy="949.5" r="1.5" fill="#DBDBDB"/>
<circle cx="711.5" cy="528.5" r="1.5" fill="#DBDBDB"/>
<circle cx="295.5" cy="530.5" r="1.5" fill="#DBDBDB"/>
<circle cx="1129.5" cy="528.5" r="1.5" fill="#DBDBDB"/>
<circle cx="711.5" cy="51.5" r="1.5" fill="#DBDBDB"/>
<circle cx="711.5" cy="684.5" r="1.5" fill="#DBDBDB"/>
<circle cx="295.5" cy="53.5" r="1.5" fill="#DBDBDB"/>
<circle cx="295.5" cy="686.5" r="1.5" fill="#DBDBDB"/>
<circle cx="1129.5" cy="51.5" r="1.5" fill="#DBDBDB"/>
<circle cx="1129.5" cy="684.5" r="1.5" fill="#DBDBDB"/>
<circle cx="711.5" cy="263.5" r="1.5" fill="#DBDBDB"/>
<circle cx="711.5" cy="896.5" r="1.5" fill="#DBDBDB"/>
<circle cx="295.5" cy="265.5" r="1.5" fill="#DBDBDB"/>
<circle cx="295.5" cy="898.5" r="1.5" fill="#DBDBDB"/>
<circle cx="1129.5" cy="263.5" r="1.5" fill="#DBDBDB"/>
<circle cx="1129.5" cy="896.5" r="1.5" fill="#DBDBDB"/>
<circle cx="711.5" cy="475.5" r="1.5" fill="#DBDBDB"/>
<circle cx="295.5" cy="477.5" r="1.5" fill="#DBDBDB"/>
<circle cx="1129.5" cy="475.5" r="1.5" fill="#DBDBDB"/>
<circle cx="711.5" cy="157.5" r="1.5" fill="#DBDBDB"/>
<circle cx="711.5" cy="790.5" r="1.5" fill="#DBDBDB"/>
<circle cx="295.5" cy="159.5" r="1.5" fill="#DBDBDB"/>
<circle cx="295.5" cy="792.5" r="1.5" fill="#DBDBDB"/>
<circle cx="1129.5" cy="157.5" r="1.5" fill="#DBDBDB"/>
<circle cx="1129.5" cy="790.5" r="1.5" fill="#DBDBDB"/>
<circle cx="711.5" cy="369.5" r="1.5" fill="#DBDBDB"/>
<circle cx="295.5" cy="371.5" r="1.5" fill="#DBDBDB"/>
<circle cx="1129.5" cy="369.5" r="1.5" fill="#DBDBDB"/>
<circle cx="711.5" cy="581.5" r="1.5" fill="#DBDBDB"/>
<circle cx="295.5" cy="583.5" r="1.5" fill="#DBDBDB"/>
<circle cx="1129.5" cy="581.5" r="1.5" fill="#DBDBDB"/>
<circle cx="85.5" cy="0.5" r="1.5" fill="#DBDBDB"/>
<circle cx="85.5" cy="633.5" r="1.5" fill="#DBDBDB"/>
<circle cx="919.5" cy="631.5" r="1.5" fill="#DBDBDB"/>
<circle cx="503.5" cy="0.5" r="1.5" fill="#DBDBDB"/>
<circle cx="503.5" cy="633.5" r="1.5" fill="#DBDBDB"/>
<circle cx="1337.5" cy="631.5" r="1.5" fill="#DBDBDB"/>
<circle cx="85.5" cy="212.5" r="1.5" fill="#DBDBDB"/>
<circle cx="85.5" cy="845.5" r="1.5" fill="#DBDBDB"/>
<circle cx="919.5" cy="210.5" r="1.5" fill="#DBDBDB"/>
<circle cx="919.5" cy="843.5" r="1.5" fill="#DBDBDB"/>
<circle cx="503.5" cy="212.5" r="1.5" fill="#DBDBDB"/>
<circle cx="503.5" cy="845.5" r="1.5" fill="#DBDBDB"/>
<circle cx="1337.5" cy="210.5" r="1.5" fill="#DBDBDB"/>
<circle cx="1337.5" cy="843.5" r="1.5" fill="#DBDBDB"/>
<circle cx="85.5" cy="424.5" r="1.5" fill="#DBDBDB"/>
<circle cx="919.5" cy="422.5" r="1.5" fill="#DBDBDB"/>
<circle cx="503.5" cy="424.5" r="1.5" fill="#DBDBDB"/>
<circle cx="1337.5" cy="422.5" r="1.5" fill="#DBDBDB"/>
<circle cx="85.5" cy="106.5" r="1.5" fill="#DBDBDB"/>
<circle cx="85.5" cy="739.5" r="1.5" fill="#DBDBDB"/>
<circle cx="919.5" cy="104.5" r="1.5" fill="#DBDBDB"/>
<circle cx="919.5" cy="737.5" r="1.5" fill="#DBDBDB"/>
<circle cx="503.5" cy="106.5" r="1.5" fill="#DBDBDB"/>
<circle cx="503.5" cy="739.5" r="1.5" fill="#DBDBDB"/>
<circle cx="1337.5" cy="104.5" r="1.5" fill="#DBDBDB"/>
<circle cx="1337.5" cy="737.5" r="1.5" fill="#DBDBDB"/>
<circle cx="85.5" cy="318.5" r="1.5" fill="#DBDBDB"/>
<circle cx="85.5" cy="951.5" r="1.5" fill="#DBDBDB"/>
<circle cx="919.5" cy="316.5" r="1.5" fill="#DBDBDB"/>
<circle cx="919.5" cy="949.5" r="1.5" fill="#DBDBDB"/>
<circle cx="503.5" cy="318.5" r="1.5" fill="#DBDBDB"/>
<circle cx="503.5" cy="951.5" r="1.5" fill="#DBDBDB"/>
<circle cx="1337.5" cy="316.5" r="1.5" fill="#DBDBDB"/>
<circle cx="1337.5" cy="949.5" r="1.5" fill="#DBDBDB"/>
<circle cx="85.5" cy="530.5" r="1.5" fill="#DBDBDB"/>
<circle cx="919.5" cy="528.5" r="1.5" fill="#DBDBDB"/>
<circle cx="503.5" cy="530.5" r="1.5" fill="#DBDBDB"/>
<circle cx="1337.5" cy="528.5" r="1.5" fill="#DBDBDB"/>
<circle cx="85.5" cy="53.5" r="1.5" fill="#DBDBDB"/>
<circle cx="85.5" cy="686.5" r="1.5" fill="#DBDBDB"/>
<circle cx="919.5" cy="51.5" r="1.5" fill="#DBDBDB"/>
<circle cx="919.5" cy="684.5" r="1.5" fill="#DBDBDB"/>
<circle cx="503.5" cy="53.5" r="1.5" fill="#DBDBDB"/>
<circle cx="503.5" cy="686.5" r="1.5" fill="#DBDBDB"/>
<circle cx="1337.5" cy="51.5" r="1.5" fill="#DBDBDB"/>
<circle cx="1337.5" cy="684.5" r="1.5" fill="#DBDBDB"/>
<circle cx="85.5" cy="265.5" r="1.5" fill="#DBDBDB"/>
<circle cx="85.5" cy="898.5" r="1.5" fill="#DBDBDB"/>
<circle cx="919.5" cy="263.5" r="1.5" fill="#DBDBDB"/>
<circle cx="919.5" cy="896.5" r="1.5" fill="#DBDBDB"/>
<circle cx="503.5" cy="265.5" r="1.5" fill="#DBDBDB"/>
<circle cx="503.5" cy="898.5" r="1.5" fill="#DBDBDB"/>
<circle cx="1337.5" cy="263.5" r="1.5" fill="#DBDBDB"/>
<circle cx="1337.5" cy="896.5" r="1.5" fill="#DBDBDB"/>
<circle cx="85.5" cy="477.5" r="1.5" fill="#DBDBDB"/>
<circle cx="919.5" cy="475.5" r="1.5" fill="#DBDBDB"/>
<circle cx="503.5" cy="477.5" r="1.5" fill="#DBDBDB"/>
<circle cx="1337.5" cy="475.5" r="1.5" fill="#DBDBDB"/>
<circle cx="85.5" cy="159.5" r="1.5" fill="#DBDBDB"/>
<circle cx="85.5" cy="792.5" r="1.5" fill="#DBDBDB"/>
<circle cx="919.5" cy="157.5" r="1.5" fill="#DBDBDB"/>
<circle cx="919.5" cy="790.5" r="1.5" fill="#DBDBDB"/>
<circle cx="503.5" cy="159.5" r="1.5" fill="#DBDBDB"/>
<circle cx="503.5" cy="792.5" r="1.5" fill="#DBDBDB"/>
<circle cx="1337.5" cy="157.5" r="1.5" fill="#DBDBDB"/>
<circle cx="1337.5" cy="790.5" r="1.5" fill="#DBDBDB"/>
<circle cx="85.5" cy="371.5" r="1.5" fill="#DBDBDB"/>
<circle cx="919.5" cy="369.5" r="1.5" fill="#DBDBDB"/>
<circle cx="503.5" cy="371.5" r="1.5" fill="#DBDBDB"/>
<circle cx="1337.5" cy="369.5" r="1.5" fill="#DBDBDB"/>
<circle cx="85.5" cy="583.5" r="1.5" fill="#DBDBDB"/>
<circle cx="919.5" cy="581.5" r="1.5" fill="#DBDBDB"/>
<circle cx="503.5" cy="583.5" r="1.5" fill="#DBDBDB"/>
<circle cx="1337.5" cy="581.5" r="1.5" fill="#DBDBDB"/>
<circle cx="763.5" cy="631.5" r="1.5" fill="#DBDBDB"/>
<circle cx="347.5" cy="0.5" r="1.5" fill="#DBDBDB"/>
<circle cx="347.5" cy="633.5" r="1.5" fill="#DBDBDB"/>
<circle cx="1181.5" cy="631.5" r="1.5" fill="#DBDBDB"/>
<circle cx="763.5" cy="210.5" r="1.5" fill="#DBDBDB"/>
<circle cx="763.5" cy="843.5" r="1.5" fill="#DBDBDB"/>
<circle cx="347.5" cy="212.5" r="1.5" fill="#DBDBDB"/>
<circle cx="347.5" cy="845.5" r="1.5" fill="#DBDBDB"/>
<circle cx="1181.5" cy="210.5" r="1.5" fill="#DBDBDB"/>
<circle cx="1181.5" cy="843.5" r="1.5" fill="#DBDBDB"/>
<circle cx="763.5" cy="422.5" r="1.5" fill="#DBDBDB"/>
<circle cx="347.5" cy="424.5" r="1.5" fill="#DBDBDB"/>
<circle cx="1181.5" cy="422.5" r="1.5" fill="#DBDBDB"/>
<circle cx="763.5" cy="104.5" r="1.5" fill="#DBDBDB"/>
<circle cx="763.5" cy="737.5" r="1.5" fill="#DBDBDB"/>
<circle cx="347.5" cy="106.5" r="1.5" fill="#DBDBDB"/>
<circle cx="347.5" cy="739.5" r="1.5" fill="#DBDBDB"/>
<circle cx="1181.5" cy="104.5" r="1.5" fill="#DBDBDB"/>
<circle cx="1181.5" cy="737.5" r="1.5" fill="#DBDBDB"/>
<circle cx="763.5" cy="316.5" r="1.5" fill="#DBDBDB"/>
<circle cx="763.5" cy="949.5" r="1.5" fill="#DBDBDB"/>
<circle cx="347.5" cy="318.5" r="1.5" fill="#DBDBDB"/>
<circle cx="347.5" cy="951.5" r="1.5" fill="#DBDBDB"/>
<circle cx="1181.5" cy="316.5" r="1.5" fill="#DBDBDB"/>
<circle cx="1181.5" cy="949.5" r="1.5" fill="#DBDBDB"/>
<circle cx="763.5" cy="528.5" r="1.5" fill="#DBDBDB"/>
<circle cx="347.5" cy="530.5" r="1.5" fill="#DBDBDB"/>
<circle cx="1181.5" cy="528.5" r="1.5" fill="#DBDBDB"/>
<circle cx="763.5" cy="51.5" r="1.5" fill="#DBDBDB"/>
<circle cx="763.5" cy="684.5" r="1.5" fill="#DBDBDB"/>
<circle cx="347.5" cy="53.5" r="1.5" fill="#DBDBDB"/>
<circle cx="347.5" cy="686.5" r="1.5" fill="#DBDBDB"/>
<circle cx="1181.5" cy="51.5" r="1.5" fill="#DBDBDB"/>
<circle cx="1181.5" cy="684.5" r="1.5" fill="#DBDBDB"/>
<circle cx="763.5" cy="263.5" r="1.5" fill="#DBDBDB"/>
<circle cx="763.5" cy="896.5" r="1.5" fill="#DBDBDB"/>
<circle cx="347.5" cy="265.5" r="1.5" fill="#DBDBDB"/>
<circle cx="347.5" cy="898.5" r="1.5" fill="#DBDBDB"/>
<circle cx="1181.5" cy="263.5" r="1.5" fill="#DBDBDB"/>
<circle cx="1181.5" cy="896.5" r="1.5" fill="#DBDBDB"/>
<circle cx="763.5" cy="475.5" r="1.5" fill="#DBDBDB"/>
<circle cx="347.5" cy="477.5" r="1.5" fill="#DBDBDB"/>
<circle cx="1181.5" cy="475.5" r="1.5" fill="#DBDBDB"/>
<circle cx="763.5" cy="157.5" r="1.5" fill="#DBDBDB"/>
<circle cx="763.5" cy="790.5" r="1.5" fill="#DBDBDB"/>
<circle cx="347.5" cy="159.5" r="1.5" fill="#DBDBDB"/>
<circle cx="347.5" cy="792.5" r="1.5" fill="#DBDBDB"/>
<circle cx="1181.5" cy="157.5" r="1.5" fill="#DBDBDB"/>
<circle cx="1181.5" cy="790.5" r="1.5" fill="#DBDBDB"/>
<circle cx="763.5" cy="369.5" r="1.5" fill="#DBDBDB"/>
<circle cx="347.5" cy="371.5" r="1.5" fill="#DBDBDB"/>
<circle cx="1181.5" cy="369.5" r="1.5" fill="#DBDBDB"/>
<circle cx="763.5" cy="581.5" r="1.5" fill="#DBDBDB"/>
<circle cx="347.5" cy="583.5" r="1.5" fill="#DBDBDB"/>
<circle cx="1181.5" cy="581.5" r="1.5" fill="#DBDBDB"/>
<circle cx="137.5" cy="0.5" r="1.5" fill="#DBDBDB"/>
<circle cx="137.5" cy="633.5" r="1.5" fill="#DBDBDB"/>
<circle cx="971.5" cy="631.5" r="1.5" fill="#DBDBDB"/>
<circle cx="555.5" cy="0.5" r="1.5" fill="#DBDBDB"/>
<circle cx="555.5" cy="633.5" r="1.5" fill="#DBDBDB"/>
<circle cx="1389.5" cy="631.5" r="1.5" fill="#DBDBDB"/>
<circle cx="137.5" cy="212.5" r="1.5" fill="#DBDBDB"/>
<circle cx="137.5" cy="845.5" r="1.5" fill="#DBDBDB"/>
<circle cx="971.5" cy="210.5" r="1.5" fill="#DBDBDB"/>
<circle cx="971.5" cy="843.5" r="1.5" fill="#DBDBDB"/>
<circle cx="555.5" cy="212.5" r="1.5" fill="#DBDBDB"/>
<circle cx="555.5" cy="845.5" r="1.5" fill="#DBDBDB"/>
<circle cx="1389.5" cy="210.5" r="1.5" fill="#DBDBDB"/>
<circle cx="1389.5" cy="843.5" r="1.5" fill="#DBDBDB"/>
<circle cx="137.5" cy="424.5" r="1.5" fill="#DBDBDB"/>
<circle cx="971.5" cy="422.5" r="1.5" fill="#DBDBDB"/>
<circle cx="555.5" cy="424.5" r="1.5" fill="#DBDBDB"/>
<circle cx="1389.5" cy="422.5" r="1.5" fill="#DBDBDB"/>
<circle cx="137.5" cy="106.5" r="1.5" fill="#DBDBDB"/>
<circle cx="137.5" cy="739.5" r="1.5" fill="#DBDBDB"/>
<circle cx="971.5" cy="104.5" r="1.5" fill="#DBDBDB"/>
<circle cx="971.5" cy="737.5" r="1.5" fill="#DBDBDB"/>
<circle cx="555.5" cy="106.5" r="1.5" fill="#DBDBDB"/>
<circle cx="555.5" cy="739.5" r="1.5" fill="#DBDBDB"/>
<circle cx="1389.5" cy="104.5" r="1.5" fill="#DBDBDB"/>
<circle cx="1389.5" cy="737.5" r="1.5" fill="#DBDBDB"/>
<circle cx="137.5" cy="318.5" r="1.5" fill="#DBDBDB"/>
<circle cx="137.5" cy="951.5" r="1.5" fill="#DBDBDB"/>
<circle cx="971.5" cy="316.5" r="1.5" fill="#DBDBDB"/>
<circle cx="971.5" cy="949.5" r="1.5" fill="#DBDBDB"/>
<circle cx="555.5" cy="318.5" r="1.5" fill="#DBDBDB"/>
<circle cx="555.5" cy="951.5" r="1.5" fill="#DBDBDB"/>
<circle cx="1389.5" cy="316.5" r="1.5" fill="#DBDBDB"/>
<circle cx="1389.5" cy="949.5" r="1.5" fill="#DBDBDB"/>
<circle cx="137.5" cy="530.5" r="1.5" fill="#DBDBDB"/>
<circle cx="971.5" cy="528.5" r="1.5" fill="#DBDBDB"/>
<circle cx="555.5" cy="530.5" r="1.5" fill="#DBDBDB"/>
<circle cx="1389.5" cy="528.5" r="1.5" fill="#DBDBDB"/>
<circle cx="137.5" cy="53.5" r="1.5" fill="#DBDBDB"/>
<circle cx="137.5" cy="686.5" r="1.5" fill="#DBDBDB"/>
<circle cx="971.5" cy="51.5" r="1.5" fill="#DBDBDB"/>
<circle cx="971.5" cy="684.5" r="1.5" fill="#DBDBDB"/>
<circle cx="555.5" cy="53.5" r="1.5" fill="#DBDBDB"/>
<circle cx="555.5" cy="686.5" r="1.5" fill="#DBDBDB"/>
<circle cx="1389.5" cy="51.5" r="1.5" fill="#DBDBDB"/>
<circle cx="1389.5" cy="684.5" r="1.5" fill="#DBDBDB"/>
<circle cx="137.5" cy="265.5" r="1.5" fill="#DBDBDB"/>
<circle cx="137.5" cy="898.5" r="1.5" fill="#DBDBDB"/>
<circle cx="971.5" cy="263.5" r="1.5" fill="#DBDBDB"/>
<circle cx="971.5" cy="896.5" r="1.5" fill="#DBDBDB"/>
<circle cx="555.5" cy="265.5" r="1.5" fill="#DBDBDB"/>
<circle cx="555.5" cy="898.5" r="1.5" fill="#DBDBDB"/>
<circle cx="1389.5" cy="263.5" r="1.5" fill="#DBDBDB"/>
<circle cx="1389.5" cy="896.5" r="1.5" fill="#DBDBDB"/>
<circle cx="137.5" cy="477.5" r="1.5" fill="#DBDBDB"/>
<circle cx="971.5" cy="475.5" r="1.5" fill="#DBDBDB"/>
<circle cx="555.5" cy="477.5" r="1.5" fill="#DBDBDB"/>
<circle cx="1389.5" cy="475.5" r="1.5" fill="#DBDBDB"/>
<circle cx="137.5" cy="159.5" r="1.5" fill="#DBDBDB"/>
<circle cx="137.5" cy="792.5" r="1.5" fill="#DBDBDB"/>
<circle cx="971.5" cy="157.5" r="1.5" fill="#DBDBDB"/>
<circle cx="971.5" cy="790.5" r="1.5" fill="#DBDBDB"/>
<circle cx="555.5" cy="159.5" r="1.5" fill="#DBDBDB"/>
<circle cx="555.5" cy="792.5" r="1.5" fill="#DBDBDB"/>
<circle cx="1389.5" cy="157.5" r="1.5" fill="#DBDBDB"/>
<circle cx="1389.5" cy="790.5" r="1.5" fill="#DBDBDB"/>
<circle cx="137.5" cy="371.5" r="1.5" fill="#DBDBDB"/>
<circle cx="971.5" cy="369.5" r="1.5" fill="#DBDBDB"/>
<circle cx="555.5" cy="371.5" r="1.5" fill="#DBDBDB"/>
<circle cx="1389.5" cy="369.5" r="1.5" fill="#DBDBDB"/>
<circle cx="137.5" cy="583.5" r="1.5" fill="#DBDBDB"/>
<circle cx="971.5" cy="581.5" r="1.5" fill="#DBDBDB"/>
<circle cx="555.5" cy="583.5" r="1.5" fill="#DBDBDB"/>
<circle cx="1389.5" cy="581.5" r="1.5" fill="#DBDBDB"/>
<circle cx="815.5" cy="631.5" r="1.5" fill="#DBDBDB"/>
<circle cx="399.5" cy="0.5" r="1.5" fill="#DBDBDB"/>
<circle cx="399.5" cy="633.5" r="1.5" fill="#DBDBDB"/>
<circle cx="1233.5" cy="631.5" r="1.5" fill="#DBDBDB"/>
<circle cx="815.5" cy="210.5" r="1.5" fill="#DBDBDB"/>
<circle cx="815.5" cy="843.5" r="1.5" fill="#DBDBDB"/>
<circle cx="399.5" cy="212.5" r="1.5" fill="#DBDBDB"/>
<circle cx="399.5" cy="845.5" r="1.5" fill="#DBDBDB"/>
<circle cx="1233.5" cy="210.5" r="1.5" fill="#DBDBDB"/>
<circle cx="1233.5" cy="843.5" r="1.5" fill="#DBDBDB"/>
<circle cx="815.5" cy="422.5" r="1.5" fill="#DBDBDB"/>
<circle cx="399.5" cy="424.5" r="1.5" fill="#DBDBDB"/>
<circle cx="1233.5" cy="422.5" r="1.5" fill="#DBDBDB"/>
<circle cx="815.5" cy="104.5" r="1.5" fill="#DBDBDB"/>
<circle cx="815.5" cy="737.5" r="1.5" fill="#DBDBDB"/>
<circle cx="399.5" cy="106.5" r="1.5" fill="#DBDBDB"/>
<circle cx="399.5" cy="739.5" r="1.5" fill="#DBDBDB"/>
<circle cx="1233.5" cy="104.5" r="1.5" fill="#DBDBDB"/>
<circle cx="1233.5" cy="737.5" r="1.5" fill="#DBDBDB"/>
<circle cx="815.5" cy="316.5" r="1.5" fill="#DBDBDB"/>
<circle cx="815.5" cy="949.5" r="1.5" fill="#DBDBDB"/>
<circle cx="399.5" cy="318.5" r="1.5" fill="#DBDBDB"/>
<circle cx="399.5" cy="951.5" r="1.5" fill="#DBDBDB"/>
<circle cx="1233.5" cy="316.5" r="1.5" fill="#DBDBDB"/>
<circle cx="1233.5" cy="949.5" r="1.5" fill="#DBDBDB"/>
<circle cx="815.5" cy="528.5" r="1.5" fill="#DBDBDB"/>
<circle cx="399.5" cy="530.5" r="1.5" fill="#DBDBDB"/>
<circle cx="1233.5" cy="528.5" r="1.5" fill="#DBDBDB"/>
<circle cx="815.5" cy="51.5" r="1.5" fill="#DBDBDB"/>
<circle cx="815.5" cy="684.5" r="1.5" fill="#DBDBDB"/>
<circle cx="399.5" cy="53.5" r="1.5" fill="#DBDBDB"/>
<circle cx="399.5" cy="686.5" r="1.5" fill="#DBDBDB"/>
<circle cx="1233.5" cy="51.5" r="1.5" fill="#DBDBDB"/>
<circle cx="1233.5" cy="684.5" r="1.5" fill="#DBDBDB"/>
<circle cx="815.5" cy="263.5" r="1.5" fill="#DBDBDB"/>
<circle cx="815.5" cy="896.5" r="1.5" fill="#DBDBDB"/>
<circle cx="399.5" cy="265.5" r="1.5" fill="#DBDBDB"/>
<circle cx="399.5" cy="898.5" r="1.5" fill="#DBDBDB"/>
<circle cx="1233.5" cy="263.5" r="1.5" fill="#DBDBDB"/>
<circle cx="1233.5" cy="896.5" r="1.5" fill="#DBDBDB"/>
<circle cx="815.5" cy="475.5" r="1.5" fill="#DBDBDB"/>
<circle cx="399.5" cy="477.5" r="1.5" fill="#DBDBDB"/>
<circle cx="1233.5" cy="475.5" r="1.5" fill="#DBDBDB"/>
<circle cx="815.5" cy="157.5" r="1.5" fill="#DBDBDB"/>
<circle cx="815.5" cy="790.5" r="1.5" fill="#DBDBDB"/>
<circle cx="399.5" cy="159.5" r="1.5" fill="#DBDBDB"/>
<circle cx="399.5" cy="792.5" r="1.5" fill="#DBDBDB"/>
<circle cx="1233.5" cy="157.5" r="1.5" fill="#DBDBDB"/>
<circle cx="1233.5" cy="790.5" r="1.5" fill="#DBDBDB"/>
<circle cx="815.5" cy="369.5" r="1.5" fill="#DBDBDB"/>
<circle cx="399.5" cy="371.5" r="1.5" fill="#DBDBDB"/>
<circle cx="1233.5" cy="369.5" r="1.5" fill="#DBDBDB"/>
<circle cx="815.5" cy="581.5" r="1.5" fill="#DBDBDB"/>
<circle cx="399.5" cy="583.5" r="1.5" fill="#DBDBDB"/>
<circle cx="1233.5" cy="581.5" r="1.5" fill="#DBDBDB"/>
<circle cx="189.5" cy="0.5" r="1.5" fill="#DBDBDB"/>
<circle cx="189.5" cy="633.5" r="1.5" fill="#DBDBDB"/>
<circle cx="1023.5" cy="631.5" r="1.5" fill="#DBDBDB"/>
<circle cx="607.5" cy="0.5" r="1.5" fill="#DBDBDB"/>
<circle cx="607.5" cy="633.5" r="1.5" fill="#DBDBDB"/>
<circle cx="189.5" cy="212.5" r="1.5" fill="#DBDBDB"/>
<circle cx="189.5" cy="845.5" r="1.5" fill="#DBDBDB"/>
<circle cx="1023.5" cy="210.5" r="1.5" fill="#DBDBDB"/>
<circle cx="1023.5" cy="843.5" r="1.5" fill="#DBDBDB"/>
<circle cx="607.5" cy="212.5" r="1.5" fill="#DBDBDB"/>
<circle cx="607.5" cy="845.5" r="1.5" fill="#DBDBDB"/>
<circle cx="189.5" cy="424.5" r="1.5" fill="#DBDBDB"/>
<circle cx="1023.5" cy="422.5" r="1.5" fill="#DBDBDB"/>
<circle cx="607.5" cy="424.5" r="1.5" fill="#DBDBDB"/>
<circle cx="189.5" cy="106.5" r="1.5" fill="#DBDBDB"/>
<circle cx="189.5" cy="739.5" r="1.5" fill="#DBDBDB"/>
<circle cx="1023.5" cy="104.5" r="1.5" fill="#DBDBDB"/>
<circle cx="1023.5" cy="737.5" r="1.5" fill="#DBDBDB"/>
<circle cx="607.5" cy="106.5" r="1.5" fill="#DBDBDB"/>
<circle cx="607.5" cy="739.5" r="1.5" fill="#DBDBDB"/>
<circle cx="189.5" cy="318.5" r="1.5" fill="#DBDBDB"/>
<circle cx="189.5" cy="951.5" r="1.5" fill="#DBDBDB"/>
<circle cx="1023.5" cy="316.5" r="1.5" fill="#DBDBDB"/>
<circle cx="1023.5" cy="949.5" r="1.5" fill="#DBDBDB"/>
<circle cx="607.5" cy="318.5" r="1.5" fill="#DBDBDB"/>
<circle cx="607.5" cy="951.5" r="1.5" fill="#DBDBDB"/>
<circle cx="189.5" cy="530.5" r="1.5" fill="#DBDBDB"/>
<circle cx="1023.5" cy="528.5" r="1.5" fill="#DBDBDB"/>
<circle cx="607.5" cy="530.5" r="1.5" fill="#DBDBDB"/>
<circle cx="189.5" cy="53.5" r="1.5" fill="#DBDBDB"/>
<circle cx="189.5" cy="686.5" r="1.5" fill="#DBDBDB"/>
<circle cx="1023.5" cy="51.5" r="1.5" fill="#DBDBDB"/>
<circle cx="1023.5" cy="684.5" r="1.5" fill="#DBDBDB"/>
<circle cx="607.5" cy="53.5" r="1.5" fill="#DBDBDB"/>
<circle cx="607.5" cy="686.5" r="1.5" fill="#DBDBDB"/>
<circle cx="189.5" cy="265.5" r="1.5" fill="#DBDBDB"/>
<circle cx="189.5" cy="898.5" r="1.5" fill="#DBDBDB"/>
<circle cx="1023.5" cy="263.5" r="1.5" fill="#DBDBDB"/>
<circle cx="1023.5" cy="896.5" r="1.5" fill="#DBDBDB"/>
<circle cx="607.5" cy="265.5" r="1.5" fill="#DBDBDB"/>
<circle cx="607.5" cy="898.5" r="1.5" fill="#DBDBDB"/>
<circle cx="189.5" cy="477.5" r="1.5" fill="#DBDBDB"/>
<circle cx="1023.5" cy="475.5" r="1.5" fill="#DBDBDB"/>
<circle cx="607.5" cy="477.5" r="1.5" fill="#DBDBDB"/>
<circle cx="189.5" cy="159.5" r="1.5" fill="#DBDBDB"/>
<circle cx="189.5" cy="792.5" r="1.5" fill="#DBDBDB"/>
<circle cx="1023.5" cy="157.5" r="1.5" fill="#DBDBDB"/>
<circle cx="1023.5" cy="790.5" r="1.5" fill="#DBDBDB"/>
<circle cx="607.5" cy="159.5" r="1.5" fill="#DBDBDB"/>
<circle cx="607.5" cy="792.5" r="1.5" fill="#DBDBDB"/>
<circle cx="189.5" cy="371.5" r="1.5" fill="#DBDBDB"/>
<circle cx="1023.5" cy="369.5" r="1.5" fill="#DBDBDB"/>
<circle cx="607.5" cy="371.5" r="1.5" fill="#DBDBDB"/>
<circle cx="189.5" cy="583.5" r="1.5" fill="#DBDBDB"/>
<circle cx="1023.5" cy="581.5" r="1.5" fill="#DBDBDB"/>
<circle cx="607.5" cy="583.5" r="1.5" fill="#DBDBDB"/>
<path d="M754.5 191.297C851.764 191.297 930.613 272.649 930.613 373C930.613 422.436 911.477 467.259 880.433 500.018C903.743 468.128 917.628 428.051 917.628 384.521C917.628 280.538 838.415 196.243 740.7 196.243C722.182 196.243 704.328 199.273 687.552 204.888C708.192 196.129 730.799 191.297 754.5 191.297Z" fill="#F3F3F3"/>
</g>
<path d="M789.37 412.96C787.443 416.332 789.37 422.113 786.961 423.558C784.552 425.003 776.362 423.558 776.362 423.558V429.821L779.735 426.93C779.735 426.93 778.289 439.938 782.625 442.346C786.961 444.755 825.019 426.93 826.946 423.558C828.873 420.186 826.464 409.587 828.873 409.587C831.282 409.587 831.764 423.076 834.654 422.113C837.545 421.149 838.99 413.923 839.472 409.587C839.953 405.252 837.063 384.054 836.581 378.273C836.099 372.492 827.91 359.485 814.421 360.93C800.932 362.376 796.596 376.346 796.596 381.646C796.596 386.945 800.45 397.544 799.005 400.916C797.559 404.288 791.297 409.587 789.37 412.96Z" fill="#F3F3F3"/>
<path d="M786.962 391.763C788.407 395.617 792.743 399.952 791.779 402.843C790.816 405.733 770.582 402.843 770.582 391.763C770.582 380.682 790.334 358.04 791.779 359.485C793.224 360.931 785.516 387.909 786.962 391.763Z" fill="#F3F3F3"/>
<path d="M594.39 293.004C593.907 288.668 591.977 245.31 591.977 245.31C591.977 245.31 555.3 292.522 552.404 332.025C549.508 371.529 556.747 389.835 555.3 396.58C553.852 403.324 525.861 451.018 520.553 459.689C515.244 468.361 545.648 488.112 545.648 490.521C545.648 492.93 541.304 508.828 541.787 511.718C542.27 514.609 552.404 525.689 552.404 525.689C552.404 525.689 547.578 531.47 547.578 538.696C547.578 545.922 562.056 559.893 562.056 559.893C562.056 559.893 559.16 577.718 570.743 591.207C582.325 604.696 630.102 596.988 645.544 598.433C660.987 599.879 684.634 632.156 699.112 648.535C713.59 664.915 712.142 698.156 709.247 714.053C706.351 729.951 688.012 754.039 681.739 761.747C675.465 769.455 616.589 827.265 619.967 830.637C623.345 834.009 709.247 769.455 709.247 769.455C709.247 769.455 759.436 761.265 747.371 670.696C735.307 580.127 720.346 570.973 715.038 567.12C709.729 563.266 645.544 543.514 645.544 543.514C645.544 543.514 640.236 518.944 635.41 516.536C630.584 514.127 629.136 507.382 626.241 500.156C623.345 492.931 623.345 470.293 623.345 466.435V466.434C623.345 462.58 598.733 428.857 599.698 425.485C600.663 422.113 649.405 390.799 650.853 381.646C652.301 372.492 584.255 322.39 583.773 317.091C583.29 311.792 594.872 297.339 594.39 293.004Z" fill="#F3F3F3"/>
<path d="M767.689 473.66C756.609 465.289 763.354 437.529 761.427 436.565C759.5 435.602 706.507 528.098 713.733 533.397C720.96 538.696 791.777 475.105 789.368 473.66C786.959 472.215 778.77 482.031 767.689 473.66Z" fill="#F3F3F3"/>
<rect x="981.329" y="804.619" width="123.347" height="52.2914" rx="26.1457" fill="white" stroke="#F05423"/>
<path d="M1028.82 827.145H1026.69C1026.56 826.531 1026.34 825.992 1026.02 825.527C1025.71 825.063 1025.34 824.672 1024.89 824.357C1024.45 824.035 1023.96 823.794 1023.42 823.634C1022.88 823.473 1022.31 823.393 1021.73 823.393C1020.66 823.393 1019.69 823.662 1018.83 824.202C1017.97 824.741 1017.28 825.536 1016.77 826.586C1016.27 827.636 1016.01 828.924 1016.01 830.451C1016.01 831.977 1016.27 833.265 1016.77 834.315C1017.28 835.365 1017.97 836.16 1018.83 836.699C1019.69 837.239 1020.66 837.509 1021.73 837.509C1022.31 837.509 1022.88 837.428 1023.42 837.268C1023.96 837.107 1024.45 836.869 1024.89 836.553C1025.34 836.232 1025.71 835.839 1026.02 835.374C1026.34 834.903 1026.56 834.364 1026.69 833.756H1028.82C1028.66 834.657 1028.37 835.463 1027.94 836.174C1027.52 836.886 1026.99 837.491 1026.36 837.991C1025.73 838.484 1025.02 838.86 1024.23 839.118C1023.45 839.376 1022.62 839.505 1021.73 839.505C1020.23 839.505 1018.89 839.138 1017.72 838.404C1016.55 837.669 1015.63 836.625 1014.96 835.271C1014.28 833.916 1013.95 832.31 1013.95 830.451C1013.95 828.591 1014.28 826.985 1014.96 825.631C1015.63 824.276 1016.55 823.232 1017.72 822.498C1018.89 821.763 1020.23 821.396 1021.73 821.396C1022.62 821.396 1023.45 821.525 1024.23 821.783C1025.02 822.041 1025.73 822.42 1026.36 822.919C1026.99 823.413 1027.52 824.015 1027.94 824.727C1028.37 825.433 1028.66 826.239 1028.82 827.145ZM1034.03 821.637V839.264H1032V821.637H1034.03ZM1043.29 839.54C1042.02 839.54 1040.92 839.259 1039.99 838.696C1039.08 838.128 1038.37 837.336 1037.87 836.321C1037.37 835.299 1037.13 834.112 1037.13 832.757C1037.13 831.403 1037.37 830.21 1037.87 829.177C1038.37 828.138 1039.06 827.329 1039.95 826.75C1040.85 826.164 1041.89 825.872 1043.08 825.872C1043.77 825.872 1044.45 825.986 1045.12 826.216C1045.79 826.445 1046.41 826.818 1046.96 827.335C1047.51 827.846 1047.95 828.523 1048.27 829.366C1048.6 830.21 1048.76 831.248 1048.76 832.482V833.343H1038.57V831.587H1046.7C1046.7 830.841 1046.55 830.175 1046.25 829.59C1045.96 829.005 1045.54 828.543 1044.99 828.204C1044.45 827.866 1043.82 827.696 1043.08 827.696C1042.27 827.696 1041.57 827.897 1040.98 828.299C1040.4 828.695 1039.95 829.211 1039.63 829.848C1039.32 830.485 1039.16 831.168 1039.16 831.897V833.067C1039.16 834.066 1039.33 834.912 1039.67 835.606C1040.02 836.295 1040.51 836.82 1041.13 837.181C1041.75 837.537 1042.47 837.715 1043.29 837.715C1043.82 837.715 1044.31 837.641 1044.74 837.491C1045.17 837.336 1045.55 837.107 1045.86 836.803C1046.18 836.493 1046.42 836.108 1046.6 835.649L1048.56 836.2C1048.35 836.866 1048 837.451 1047.52 837.956C1047.03 838.455 1046.43 838.846 1045.71 839.127C1044.99 839.402 1044.19 839.54 1043.29 839.54ZM1055.74 839.574C1054.91 839.574 1054.15 839.416 1053.46 839.101C1052.78 838.78 1052.24 838.318 1051.84 837.715C1051.44 837.107 1051.23 836.372 1051.23 835.512C1051.23 834.754 1051.38 834.14 1051.68 833.67C1051.98 833.193 1052.38 832.82 1052.88 832.551C1053.38 832.281 1053.93 832.08 1054.53 831.948C1055.14 831.811 1055.75 831.702 1056.36 831.621C1057.17 831.518 1057.82 831.44 1058.32 831.389C1058.82 831.331 1059.19 831.237 1059.42 831.105C1059.66 830.973 1059.77 830.743 1059.77 830.416V830.347C1059.77 829.498 1059.54 828.838 1059.08 828.368C1058.62 827.897 1057.92 827.662 1056.98 827.662C1056.01 827.662 1055.25 827.874 1054.7 828.299C1054.15 828.723 1053.76 829.177 1053.54 829.659L1051.61 828.97C1051.96 828.167 1052.42 827.541 1052.99 827.094C1053.57 826.641 1054.2 826.325 1054.88 826.147C1055.57 825.963 1056.25 825.872 1056.92 825.872C1057.34 825.872 1057.83 825.923 1058.38 826.027C1058.93 826.124 1059.47 826.328 1059.99 826.638C1060.51 826.947 1060.94 827.415 1061.29 828.041C1061.63 828.666 1061.8 829.504 1061.8 830.554V839.264H1059.77V837.474H1059.67C1059.53 837.761 1059.3 838.068 1058.98 838.395C1058.66 838.722 1058.23 839 1057.7 839.23C1057.16 839.46 1056.51 839.574 1055.74 839.574ZM1056.05 837.75C1056.86 837.75 1057.53 837.592 1058.09 837.276C1058.64 836.961 1059.06 836.553 1059.34 836.054C1059.63 835.555 1059.77 835.03 1059.77 834.479V832.62C1059.69 832.723 1059.5 832.818 1059.2 832.904C1058.92 832.984 1058.58 833.056 1058.21 833.119C1057.83 833.176 1057.47 833.228 1057.11 833.274C1056.76 833.314 1056.48 833.348 1056.26 833.377C1055.73 833.446 1055.24 833.558 1054.78 833.713C1054.33 833.862 1053.96 834.089 1053.68 834.393C1053.4 834.691 1053.27 835.099 1053.27 835.615C1053.27 836.321 1053.53 836.854 1054.05 837.216C1054.58 837.572 1055.25 837.75 1056.05 837.75ZM1065.51 839.264V826.044H1067.47V828.041H1067.61C1067.85 827.386 1068.29 826.856 1068.92 826.448C1069.55 826.041 1070.26 825.837 1071.05 825.837C1071.2 825.837 1071.39 825.84 1071.61 825.846C1071.84 825.852 1072.01 825.86 1072.12 825.872V827.937C1072.05 827.92 1071.9 827.894 1071.65 827.86C1071.41 827.82 1071.15 827.8 1070.88 827.8C1070.24 827.8 1069.67 827.934 1069.16 828.204C1068.66 828.468 1068.27 828.835 1067.97 829.306C1067.69 829.771 1067.54 830.301 1067.54 830.898V839.264H1065.51Z" fill="#F05423"/>
<rect x="1122.93" y="804.119" width="146.06" height="53.2914" rx="26.6457" fill="#F05423"/>
<path d="M1167.92 827.145H1165.78C1165.66 826.531 1165.44 825.992 1165.12 825.527C1164.81 825.063 1164.43 824.672 1163.98 824.357C1163.54 824.035 1163.05 823.794 1162.51 823.634C1161.97 823.473 1161.41 823.393 1160.83 823.393C1159.76 823.393 1158.79 823.662 1157.92 824.202C1157.06 824.741 1156.38 825.536 1155.87 826.586C1155.36 827.636 1155.11 828.924 1155.11 830.451C1155.11 831.977 1155.36 833.265 1155.87 834.315C1156.38 835.365 1157.06 836.16 1157.92 836.699C1158.79 837.239 1159.76 837.509 1160.83 837.509C1161.41 837.509 1161.97 837.428 1162.51 837.268C1163.05 837.107 1163.54 836.869 1163.98 836.553C1164.43 836.232 1164.81 835.839 1165.12 835.374C1165.44 834.903 1165.66 834.364 1165.78 833.756H1167.92C1167.76 834.657 1167.46 835.463 1167.04 836.174C1166.62 836.886 1166.09 837.491 1165.46 837.991C1164.83 838.484 1164.12 838.86 1163.33 839.118C1162.55 839.376 1161.71 839.505 1160.83 839.505C1159.32 839.505 1157.99 839.138 1156.81 838.404C1155.64 837.669 1154.72 836.625 1154.05 835.271C1153.38 833.916 1153.04 832.31 1153.04 830.451C1153.04 828.591 1153.38 826.985 1154.05 825.631C1154.72 824.276 1155.64 823.232 1156.81 822.498C1157.99 821.763 1159.32 821.396 1160.83 821.396C1161.71 821.396 1162.55 821.525 1163.33 821.783C1164.12 822.041 1164.83 822.42 1165.46 822.919C1166.09 823.413 1166.62 824.015 1167.04 824.727C1167.46 825.433 1167.76 826.239 1167.92 827.145ZM1176.46 839.54C1175.27 839.54 1174.22 839.256 1173.32 838.688C1172.43 838.12 1171.73 837.325 1171.22 836.304C1170.72 835.282 1170.47 834.089 1170.47 832.723C1170.47 831.346 1170.72 830.144 1171.22 829.117C1171.73 828.089 1172.43 827.292 1173.32 826.724C1174.22 826.156 1175.27 825.872 1176.46 825.872C1177.66 825.872 1178.7 826.156 1179.6 826.724C1180.5 827.292 1181.2 828.089 1181.7 829.117C1182.2 830.144 1182.45 831.346 1182.45 832.723C1182.45 834.089 1182.2 835.282 1181.7 836.304C1181.2 837.325 1180.5 838.12 1179.6 838.688C1178.7 839.256 1177.66 839.54 1176.46 839.54ZM1176.46 837.715C1177.37 837.715 1178.12 837.483 1178.7 837.018C1179.29 836.553 1179.72 835.942 1180 835.185C1180.28 834.427 1180.42 833.607 1180.42 832.723C1180.42 831.839 1180.28 831.016 1180 830.253C1179.72 829.489 1179.29 828.873 1178.7 828.402C1178.12 827.932 1177.37 827.696 1176.46 827.696C1175.56 827.696 1174.81 827.932 1174.22 828.402C1173.64 828.873 1173.21 829.489 1172.93 830.253C1172.64 831.016 1172.5 831.839 1172.5 832.723C1172.5 833.607 1172.64 834.427 1172.93 835.185C1173.21 835.942 1173.64 836.553 1174.22 837.018C1174.81 837.483 1175.56 837.715 1176.46 837.715ZM1187.59 831.311V839.264H1185.55V826.044H1187.52V828.109H1187.69C1188 827.438 1188.47 826.899 1189.1 826.491C1189.73 826.078 1190.55 825.872 1191.54 825.872C1192.44 825.872 1193.22 826.055 1193.89 826.422C1194.57 826.784 1195.09 827.335 1195.46 828.075C1195.83 828.81 1196.02 829.739 1196.02 830.864V839.264H1193.99V831.001C1193.99 829.963 1193.72 829.154 1193.18 828.574C1192.64 827.989 1191.9 827.696 1190.96 827.696C1190.31 827.696 1189.73 827.837 1189.22 828.118C1188.72 828.399 1188.32 828.81 1188.02 829.349C1187.73 829.888 1187.59 830.542 1187.59 831.311ZM1205.62 826.044V827.765H1198.49V826.044H1205.62ZM1200.63 839.264V824.219C1200.63 823.462 1200.81 822.83 1201.16 822.325C1201.52 821.82 1201.98 821.442 1202.55 821.189C1203.11 820.937 1203.71 820.811 1204.35 820.811C1204.84 820.811 1205.25 820.851 1205.57 820.931C1205.88 821.011 1206.12 821.086 1206.27 821.155L1205.69 822.911C1205.59 822.876 1205.44 822.833 1205.26 822.782C1205.08 822.73 1204.84 822.704 1204.55 822.704C1203.88 822.704 1203.4 822.873 1203.1 823.212C1202.81 823.551 1202.66 824.047 1202.66 824.701V839.264H1200.63ZM1208.47 839.264V826.044H1210.5V839.264H1208.47ZM1209.5 823.84C1209.1 823.84 1208.76 823.705 1208.48 823.436C1208.19 823.166 1208.05 822.842 1208.05 822.463C1208.05 822.084 1208.19 821.76 1208.48 821.491C1208.76 821.221 1209.1 821.086 1209.5 821.086C1209.9 821.086 1210.23 821.221 1210.51 821.491C1210.8 821.76 1210.95 822.084 1210.95 822.463C1210.95 822.842 1210.8 823.166 1210.51 823.436C1210.23 823.705 1209.9 823.84 1209.5 823.84ZM1214.22 839.264V826.044H1216.18V828.041H1216.32C1216.56 827.386 1217 826.856 1217.63 826.448C1218.26 826.041 1218.97 825.837 1219.76 825.837C1219.91 825.837 1220.1 825.84 1220.32 825.846C1220.54 825.852 1220.71 825.86 1220.83 825.872V827.937C1220.76 827.92 1220.6 827.894 1220.36 827.86C1220.11 827.82 1219.86 827.8 1219.59 827.8C1218.95 827.8 1218.37 827.934 1217.87 828.204C1217.37 828.468 1216.97 828.835 1216.68 829.306C1216.39 829.771 1216.25 830.301 1216.25 830.898V839.264H1214.22ZM1223.24 839.264V826.044H1225.2V828.109H1225.37C1225.65 827.404 1226.09 826.856 1226.71 826.465C1227.32 826.07 1228.06 825.872 1228.92 825.872C1229.79 825.872 1230.52 826.07 1231.09 826.465C1231.68 826.856 1232.14 827.404 1232.46 828.109H1232.6C1232.94 827.427 1233.45 826.884 1234.12 826.483C1234.8 826.075 1235.61 825.872 1236.56 825.872C1237.74 825.872 1238.71 826.242 1239.46 826.982C1240.21 827.716 1240.59 828.861 1240.59 830.416V839.264H1238.56V830.416C1238.56 829.441 1238.29 828.744 1237.76 828.325C1237.22 827.906 1236.59 827.696 1235.87 827.696C1234.94 827.696 1234.22 827.977 1233.71 828.54C1233.2 829.096 1232.95 829.802 1232.95 830.657V839.264H1230.88V830.21C1230.88 829.458 1230.64 828.853 1230.15 828.394C1229.66 827.929 1229.03 827.696 1228.26 827.696C1227.74 827.696 1227.24 827.837 1226.78 828.118C1226.33 828.399 1225.96 828.789 1225.68 829.289C1225.41 829.782 1225.27 830.353 1225.27 831.001V839.264H1223.24Z" fill="white"/>
</g>
<defs>
<clipPath id="clip0_2088_1767">
<rect width="1440" height="1024" fill="white"/>
</clipPath>
<clipPath id="clip1_2088_1767">
<rect width="1857" height="1045" fill="white" transform="translate(-174)"/>
</clipPath>
</defs>
</svg>
