<svg width="24" height="34" viewBox="0 0 24 34" fill="none" xmlns="http://www.w3.org/2000/svg">
<path d="M0.000619141 0.00469417L8.12078 0.0012212L11.1564 1.78123e-05C13.9005 -0.00152958 15.8581 0.0946492 18.3255 1.5067C19.2469 2.02696 20.0935 2.66996 20.8419 3.41803C22.9022 5.46534 23.8146 8.03902 23.8614 10.9047C23.8694 11.3947 23.8004 11.8466 23.7592 12.3266C23.3104 17.5587 19.8216 20.9222 14.7986 21.9255C13.989 22.0847 13.6782 22.0816 12.8586 22.0805C10.6546 22.0808 8.48582 21.5276 6.55128 20.4715C6.15198 20.255 5.76352 20.019 5.38719 19.7646C5.16997 19.6208 4.80857 19.3529 4.58509 19.2621C5.39658 20.7267 6.35218 22.2928 7.21002 23.742L10.6341 29.5792L12.0465 31.9793C12.2831 32.3792 12.7571 33.1422 12.9147 33.5483C11.3914 33.6013 9.67924 33.5641 8.14361 33.5641L0 33.5638L0.000619141 0.00469417Z" fill="black"/>
<path d="M4.5869 19.2621C3.09147 17.3787 2.18927 15.43 4.46218 13.6652C6.23061 12.2922 8.43357 11.7048 10.5894 11.2707C11.1367 11.1633 11.8883 11.1001 12.3659 10.9941C12.9045 13.5766 13.4736 16.1527 14.0731 18.7217L14.6049 21.0677C14.6509 21.2772 14.7733 21.7329 14.8004 21.9255C13.9908 22.0847 13.68 22.0816 12.8605 22.0805C10.6565 22.0808 8.48763 21.5276 6.55308 20.4715C6.15379 20.255 5.76532 20.019 5.389 19.7646C5.17178 19.6208 4.81038 19.3529 4.5869 19.2621Z" fill="#F15424"/>
</svg>
