<svg width="584" height="157" viewBox="0 0 584 157" fill="none" xmlns="http://www.w3.org/2000/svg">
<path d="M6.88519 32.249V14.9596H8.37779L8.55193 17.3976C8.98313 16.4688 9.59676 15.7806 10.3928 15.3328C11.2055 14.8684 12.1093 14.6362 13.1044 14.6362C14.2653 14.6362 15.2604 14.9099 16.0896 15.4572C16.9188 16.0045 17.5573 16.7508 18.0051 17.6961C18.4529 18.6414 18.6768 19.7194 18.6768 20.9301C18.6768 22.1407 18.4529 23.227 18.0051 24.1889C17.5739 25.1508 16.9437 25.9137 16.1145 26.4776C15.3018 27.0249 14.2985 27.2985 13.1044 27.2985C12.0761 27.2985 11.1723 27.0829 10.3928 26.6517C9.61334 26.2039 9.0163 25.5489 8.60168 24.6865V32.249H6.88519ZM8.62656 20.9798C8.62656 21.892 8.79241 22.7129 9.1241 23.4426C9.45579 24.1558 9.92845 24.7196 10.5421 25.1342C11.1723 25.5489 11.9269 25.7562 12.8059 25.7562C13.6848 25.7562 14.4311 25.5489 15.0448 25.1342C15.6584 24.7196 16.1228 24.1558 16.4379 23.4426C16.7696 22.7129 16.9354 21.892 16.9354 20.9798C16.9354 20.0511 16.7696 19.2301 16.4379 18.517C16.1228 17.7873 15.6584 17.2234 15.0448 16.8254C14.4311 16.4108 13.6848 16.2035 12.8059 16.2035C11.9269 16.2035 11.1723 16.4108 10.5421 16.8254C9.92845 17.2234 9.45579 17.7873 9.1241 18.517C8.79241 19.2301 8.62656 20.0511 8.62656 20.9798ZM20.3929 23.6168H22.0348C22.0348 24.3133 22.2835 24.8689 22.7811 25.2835C23.2786 25.6815 23.942 25.8805 24.7712 25.8805C25.7 25.8805 26.4214 25.6981 26.9355 25.3333C27.4662 24.9518 27.7316 24.4377 27.7316 23.7909C27.7316 23.2934 27.5906 22.8953 27.3087 22.5968C27.0267 22.2983 26.5292 22.0578 25.816 21.8754L23.7513 21.353C22.7064 21.0876 21.927 20.6813 21.4128 20.134C20.8987 19.5867 20.6417 18.9067 20.6417 18.0941C20.6417 17.3976 20.8241 16.7922 21.189 16.2781C21.5538 15.7474 22.0596 15.3411 22.7064 15.0591C23.3698 14.7772 24.1327 14.6362 24.9951 14.6362C25.8409 14.6362 26.5789 14.7855 27.2091 15.084C27.8394 15.3825 28.3286 15.8054 28.6769 16.3527C29.0417 16.8834 29.2325 17.5219 29.249 18.2682H27.5823C27.5657 17.5551 27.3252 17.0078 26.8609 16.6264C26.3965 16.2449 25.758 16.0542 24.9454 16.0542C24.0995 16.0542 23.4445 16.2283 22.9801 16.5766C22.5323 16.9249 22.3084 17.4224 22.3084 18.0692C22.3084 18.998 22.9635 19.6282 24.2737 19.9599L26.3385 20.4823C27.3833 20.7476 28.1462 21.1374 28.6271 21.6515C29.1247 22.1656 29.3734 22.8539 29.3734 23.7163C29.3734 24.4294 29.1827 25.0596 28.8013 25.6069C28.4198 26.1542 27.8808 26.5771 27.1843 26.8756C26.5043 27.1576 25.7082 27.2985 24.7961 27.2985C23.4527 27.2985 22.383 26.9668 21.587 26.3034C20.7909 25.6235 20.3929 24.7279 20.3929 23.6168ZM31.3535 20.9798C31.3535 19.736 31.6188 18.6414 32.1495 17.6961C32.6802 16.7508 33.4099 16.0045 34.3387 15.4572C35.2674 14.9099 36.3122 14.6362 37.4732 14.6362C38.6507 14.6362 39.6955 14.9099 40.6076 15.4572C41.5364 16.0045 42.2661 16.7508 42.7968 17.6961C43.3275 18.6414 43.5929 19.736 43.5929 20.9798C43.5929 22.1905 43.3275 23.2768 42.7968 24.2387C42.2661 25.184 41.5364 25.9303 40.6076 26.4776C39.6955 27.0249 38.6507 27.2985 37.4732 27.2985C36.3122 27.2985 35.2674 27.0249 34.3387 26.4776C33.4099 25.9303 32.6802 25.184 32.1495 24.2387C31.6188 23.2768 31.3535 22.1905 31.3535 20.9798ZM33.0948 20.9549C33.0948 21.9003 33.2773 22.7378 33.6421 23.4675C34.0236 24.1806 34.5377 24.7445 35.1845 25.1591C35.8479 25.5571 36.6108 25.7562 37.4732 25.7562C38.3356 25.7562 39.0902 25.5571 39.7369 25.1591C40.4003 24.7445 40.9144 24.1806 41.2793 23.4675C41.6608 22.7378 41.8515 21.9003 41.8515 20.9549C41.8515 20.0262 41.6608 19.2053 41.2793 18.4921C40.9144 17.779 40.4003 17.2151 39.7369 16.8005C39.0902 16.3859 38.3356 16.1786 37.4732 16.1786C36.6108 16.1786 35.8479 16.3859 35.1845 16.8005C34.5377 17.2151 34.0236 17.779 33.6421 18.4921C33.2773 19.2053 33.0948 20.0262 33.0948 20.9549ZM52.6321 14.8104V16.3527H51.6868C50.5756 16.3527 49.6883 16.6927 49.0249 17.3727C48.3781 18.0526 48.0547 18.9731 48.0547 20.134V27H46.3382V14.9596H47.9552L48.1045 17.3229H47.9304C48.0962 16.5435 48.5025 15.9132 49.1493 15.4323C49.7961 14.9347 50.5839 14.686 51.5126 14.686C51.695 14.686 51.8775 14.6943 52.0599 14.7109C52.2423 14.7274 52.4331 14.7606 52.6321 14.8104ZM57.8859 27.2985C56.6089 27.2985 55.6056 26.9668 54.8758 26.3034C54.1627 25.6401 53.8061 24.786 53.8061 23.7411C53.8061 22.63 54.2042 21.7427 55.0002 21.0793C55.7963 20.4159 56.8992 20.0262 58.3088 19.9101L62.2891 19.5867V19.1887C62.2891 18.3926 62.1482 17.7707 61.8662 17.3229C61.5843 16.8586 61.2028 16.5352 60.7219 16.3527C60.2409 16.1703 59.7019 16.0791 59.1049 16.0791C58.0435 16.0791 57.2226 16.303 56.6421 16.7508C56.0616 17.1985 55.7714 17.8288 55.7714 18.6414H54.2042C54.2042 17.8288 54.4115 17.1239 54.8261 16.5269C55.2407 15.9298 55.8212 15.4655 56.5675 15.1338C57.3138 14.8021 58.1762 14.6362 59.1547 14.6362C60.1 14.6362 60.9292 14.8021 61.6423 15.1338C62.3555 15.4489 62.9193 15.9464 63.334 16.6264C63.7652 17.2898 63.9808 18.1522 63.9808 19.2136V27H62.5379L62.314 24.8855C61.9491 25.6484 61.3687 26.2454 60.5726 26.6766C59.7932 27.0912 58.8976 27.2985 57.8859 27.2985ZM58.284 25.9054C59.561 25.9054 60.5478 25.4991 61.2443 24.6865C61.9409 23.8738 62.2891 22.8207 62.2891 21.5271V20.8803L58.7317 21.154C57.604 21.2535 56.7914 21.5354 56.2938 21.9998C55.7963 22.4641 55.5475 23.028 55.5475 23.6914C55.5475 24.4211 55.7963 24.9767 56.2938 25.3581C56.7914 25.723 57.4547 25.9054 58.284 25.9054Z" fill="#F05423"/>
<path d="M95.196 27H93.4795V14.9596H94.9721L95.2209 17.0493C95.6189 16.2864 96.1828 15.6976 96.9125 15.283C97.6588 14.8518 98.4714 14.6362 99.3504 14.6362C101.009 14.6362 102.203 15.0923 102.933 16.0045C103.662 16.9166 104.027 18.1273 104.027 19.6365V27H102.311V20.0096C102.311 18.5999 102.012 17.6132 101.415 17.0493C100.835 16.4854 100.047 16.2035 99.0519 16.2035C97.8246 16.2035 96.871 16.6181 96.1911 17.4473C95.5277 18.2599 95.196 19.3462 95.196 20.7062V27ZM106.603 20.9798C106.603 19.736 106.868 18.6414 107.399 17.6961C107.929 16.7508 108.659 16.0045 109.588 15.4572C110.517 14.9099 111.561 14.6362 112.722 14.6362C113.9 14.6362 114.945 14.9099 115.857 15.4572C116.785 16.0045 117.515 16.7508 118.046 17.6961C118.577 18.6414 118.842 19.736 118.842 20.9798C118.842 22.1905 118.577 23.2768 118.046 24.2387C117.515 25.184 116.785 25.9303 115.857 26.4776C114.945 27.0249 113.9 27.2985 112.722 27.2985C111.561 27.2985 110.517 27.0249 109.588 26.4776C108.659 25.9303 107.929 25.184 107.399 24.2387C106.868 23.2768 106.603 22.1905 106.603 20.9798ZM108.344 20.9549C108.344 21.9003 108.526 22.7378 108.891 23.4675C109.273 24.1806 109.787 24.7445 110.434 25.1591C111.097 25.5571 111.86 25.7562 112.722 25.7562C113.585 25.7562 114.339 25.5571 114.986 25.1591C115.649 24.7445 116.164 24.1806 116.528 23.4675C116.91 22.7378 117.101 21.9003 117.101 20.9549C117.101 20.0262 116.91 19.2053 116.528 18.4921C116.164 17.779 115.649 17.2151 114.986 16.8005C114.339 16.3859 113.585 16.1786 112.722 16.1786C111.86 16.1786 111.097 16.3859 110.434 16.8005C109.787 17.2151 109.273 17.779 108.891 18.4921C108.526 19.2053 108.344 20.0262 108.344 20.9549ZM129.754 14.9596H131.47V27H129.978L129.754 24.9601C129.422 25.6567 128.867 26.2205 128.087 26.6517C127.324 27.0829 126.47 27.2985 125.525 27.2985C124.115 27.2985 123.029 26.8507 122.266 25.9552C121.52 25.0596 121.147 23.8821 121.147 22.4227V14.9348H122.888V21.8754C122.888 23.3016 123.178 24.305 123.759 24.8855C124.356 25.4659 125.127 25.7562 126.072 25.7562C127.233 25.7562 128.137 25.383 128.784 24.6367C129.431 23.8738 129.754 22.7792 129.754 21.353V14.9596ZM136.763 27H135.046V14.9596H136.539L136.787 17.0493C137.186 16.2864 137.749 15.6976 138.479 15.283C139.225 14.8518 140.038 14.6362 140.917 14.6362C142.575 14.6362 143.77 15.0923 144.499 16.0045C145.229 16.9166 145.594 18.1273 145.594 19.6365V27H143.877V20.0096C143.877 18.5999 143.579 17.6132 142.982 17.0493C142.401 16.4854 141.614 16.2035 140.619 16.2035C139.391 16.2035 138.438 16.6181 137.758 17.4473C137.094 18.2599 136.763 19.3462 136.763 20.7062V27Z" fill="black" fill-opacity="0.44"/>
<path d="M2.86083 65.8449H6.2192V67.238H1.29359V46.3912H6.2192V47.7843H2.86083V65.8449ZM7.11185 62.387H8.75372C8.75372 63.0835 9.00249 63.6391 9.50002 64.0537C9.99756 64.4518 10.6609 64.6508 11.4902 64.6508C12.4189 64.6508 13.1403 64.4683 13.6544 64.1035C14.1852 63.722 14.4505 63.2079 14.4505 62.5611C14.4505 62.0636 14.3095 61.6655 14.0276 61.367C13.7457 61.0685 13.2481 60.828 12.535 60.6456L10.4702 60.1232C9.42539 59.8578 8.64592 59.4515 8.1318 58.9042C7.61768 58.3569 7.36062 57.677 7.36062 56.8643C7.36062 56.1678 7.54305 55.5624 7.90791 55.0483C8.27277 54.5176 8.7786 54.1113 9.42539 53.8294C10.0888 53.5474 10.8517 53.4065 11.7141 53.4065C12.5599 53.4065 13.2979 53.5557 13.9281 53.8542C14.5583 54.1528 15.0476 54.5757 15.3958 55.1229C15.7607 55.6537 15.9514 56.2922 15.968 57.0385H14.3012C14.2847 56.3253 14.0442 55.778 13.5798 55.3966C13.1155 55.0152 12.4769 54.8244 11.6643 54.8244C10.8185 54.8244 10.1634 54.9986 9.69904 55.3468C9.25126 55.6951 9.02736 56.1927 9.02736 56.8394C9.02736 57.7682 9.68245 58.3984 10.9926 58.7301L13.0574 59.2525C14.1022 59.5179 14.8651 59.9076 15.3461 60.4217C15.8436 60.9358 16.0924 61.6241 16.0924 62.4865C16.0924 63.1996 15.9017 63.8298 15.5202 64.3771C15.1388 64.9244 14.5998 65.3473 13.9032 65.6458C13.2233 65.9278 12.4272 66.0687 11.515 66.0687C10.1717 66.0687 9.10199 65.7371 8.30594 65.0737C7.50988 64.3937 7.11185 63.4981 7.11185 62.387ZM22.3761 66.0687C21.0991 66.0687 20.0957 65.7371 19.366 65.0737C18.6529 64.4103 18.2963 63.5562 18.2963 62.5114C18.2963 61.4002 18.6943 60.5129 19.4904 59.8495C20.2864 59.1862 21.3893 58.7964 22.799 58.6803L26.7793 58.3569V57.9589C26.7793 57.1628 26.6383 56.5409 26.3564 56.0931C26.0745 55.6288 25.693 55.3054 25.2121 55.1229C24.7311 54.9405 24.1921 54.8493 23.5951 54.8493C22.5337 54.8493 21.7127 55.0732 21.1323 55.521C20.5518 55.9688 20.2616 56.599 20.2616 57.4116H18.6943C18.6943 56.599 18.9016 55.8941 19.3163 55.2971C19.7309 54.7 20.3113 54.2357 21.0576 53.904C21.8039 53.5723 22.6663 53.4065 23.6448 53.4065C24.5901 53.4065 25.4194 53.5723 26.1325 53.904C26.8456 54.2191 27.4095 54.7166 27.8241 55.3966C28.2553 56.06 28.4709 56.9224 28.4709 57.9838V65.7702H27.0281L26.8042 63.6557C26.4393 64.4186 25.8589 65.0156 25.0628 65.4468C24.2833 65.8614 23.3878 66.0687 22.3761 66.0687ZM22.7741 64.6756C24.0511 64.6756 25.0379 64.2693 25.7345 63.4567C26.431 62.644 26.7793 61.5909 26.7793 60.2973V59.6505L23.2219 59.9242C22.0942 60.0237 21.2815 60.3056 20.784 60.77C20.2864 61.2344 20.0377 61.7982 20.0377 62.4616C20.0377 63.1913 20.2864 63.7469 20.784 64.1284C21.2815 64.4932 21.9449 64.6756 22.7741 64.6756ZM34.0884 65.7702L30.1081 53.7298H31.8744L34.2377 60.9939C34.3703 61.3919 34.4947 61.7982 34.6108 62.2128C34.7435 62.6275 34.8679 63.0835 34.984 63.5811C35.0503 63.266 35.1332 62.9343 35.2327 62.586C35.3322 62.2211 35.4235 61.8977 35.5064 61.6158C35.6059 61.3339 35.6722 61.1266 35.7054 60.9939L38.0936 53.7298H39.8598L42.2231 60.9939C42.2729 61.1597 42.3309 61.3504 42.3973 61.566C42.4636 61.7651 42.5299 61.9724 42.5963 62.188C42.6626 62.4036 42.7207 62.6357 42.7704 62.8845C42.8368 63.1167 42.9031 63.3489 42.9694 63.5811C43.0524 63.2328 43.1187 62.9509 43.1684 62.7353C43.2182 62.5031 43.2845 62.2626 43.3675 62.0138C43.4504 61.7651 43.5582 61.4251 43.6909 60.9939L46.079 53.7298H47.8702L43.7904 65.7702H42.1236L39.6359 58.2077C39.4867 57.7599 39.354 57.3453 39.2379 56.9638C39.1384 56.5824 39.0555 56.2092 38.9891 55.8444C38.9062 56.1761 38.8067 56.5326 38.6906 56.9141C38.5911 57.2789 38.4584 57.7101 38.2926 58.2077L35.8049 65.7702H34.0884ZM56.3081 53.5806V55.1229H55.3627C54.2516 55.1229 53.3643 55.4629 52.7009 56.1429C52.0541 56.8229 51.7307 57.7433 51.7307 58.9042V65.7702H50.0142V53.7298H51.6312L51.7805 56.0931H51.6063C51.7722 55.3137 52.1785 54.6835 52.8253 54.2025C53.4721 53.705 54.2599 53.4562 55.1886 53.4562C55.371 53.4562 55.5535 53.4645 55.7359 53.4811C55.9183 53.4977 56.109 53.5308 56.3081 53.5806ZM57.2491 59.9988V58.4564H64.4634V59.9988H57.2491ZM76.304 53.7298H78.0205V65.7702H76.5278L76.304 63.7303C75.9723 64.4269 75.4167 64.9907 74.6372 65.4219C73.8743 65.8531 73.0202 66.0687 72.0749 66.0687C70.6652 66.0687 69.5789 65.621 68.816 64.7254C68.0697 63.8298 67.6966 62.6523 67.6966 61.1929V53.705H69.438V60.6456C69.438 62.0719 69.7282 63.0752 70.3086 63.6557C70.9057 64.2362 71.6769 64.5264 72.6222 64.5264C73.7831 64.5264 74.687 64.1532 75.3338 63.4069C75.9806 62.644 76.304 61.5495 76.304 60.1232V53.7298ZM83.3126 65.7453H81.5961V47.635H83.3126V55.8195C83.6941 55.0898 84.2413 54.5093 84.9545 54.0781C85.6842 53.6303 86.5549 53.4065 87.5665 53.4065C89.1587 53.4065 90.3196 53.8625 91.0493 54.7747C91.779 55.6868 92.1439 56.8975 92.1439 58.4067V65.7702H90.4274V58.7798C90.4274 57.8345 90.2947 57.0882 90.0293 56.5409C89.764 55.9771 89.3908 55.579 88.9099 55.3468C88.4289 55.0981 87.8734 54.9737 87.2431 54.9737C86.3807 54.9737 85.6593 55.1644 85.0789 55.5459C84.4984 55.9273 84.0589 56.4414 83.7604 57.0882C83.4619 57.7184 83.3126 58.4233 83.3126 59.2027V65.7453ZM97.4059 65.5215H97.5303C97.4474 65.6044 97.3396 65.6707 97.2069 65.7205C97.0908 65.7702 96.9415 65.7951 96.7591 65.7951C96.4274 65.7951 96.1289 65.679 95.8635 65.4468C95.5982 65.1981 95.4655 64.8664 95.4655 64.4518C95.4655 64.0206 95.5982 63.664 95.8635 63.382C96.1455 63.1001 96.502 62.9591 96.9332 62.9591C97.381 62.9591 97.7708 63.1333 98.1024 63.4816C98.4341 63.8298 98.6 64.3108 98.6 64.9244C98.6 65.4385 98.4756 65.9195 98.2268 66.3673C97.9946 66.815 97.6712 67.1799 97.2566 67.4618C96.842 67.7604 96.3777 67.9511 95.8635 68.034V67.1136C96.3113 67.0306 96.6762 66.8399 96.9581 66.5414C97.2566 66.2595 97.4059 65.9195 97.4059 65.5215ZM107.955 62.387H109.597C109.597 63.0835 109.846 63.6391 110.343 64.0537C110.841 64.4518 111.504 64.6508 112.334 64.6508C113.262 64.6508 113.984 64.4683 114.498 64.1035C115.029 63.722 115.294 63.2079 115.294 62.5611C115.294 62.0636 115.153 61.6655 114.871 61.367C114.589 61.0685 114.091 60.828 113.378 60.6456L111.314 60.1232C110.269 59.8578 109.489 59.4515 108.975 58.9042C108.461 58.3569 108.204 57.677 108.204 56.8643C108.204 56.1678 108.386 55.5624 108.751 55.0483C109.116 54.5176 109.622 54.1113 110.269 53.8294C110.932 53.5474 111.695 53.4065 112.557 53.4065C113.403 53.4065 114.141 53.5557 114.771 53.8542C115.402 54.1528 115.891 54.5757 116.239 55.1229C116.604 55.6537 116.795 56.2922 116.811 57.0385H115.145C115.128 56.3253 114.888 55.778 114.423 55.3966C113.959 55.0152 113.32 54.8244 112.508 54.8244C111.662 54.8244 111.007 54.9986 110.542 55.3468C110.095 55.6951 109.871 56.1927 109.871 56.8394C109.871 57.7682 110.526 58.3984 111.836 58.7301L113.901 59.2525C114.946 59.5179 115.708 59.9076 116.189 60.4217C116.687 60.9358 116.936 61.6241 116.936 62.4865C116.936 63.1996 116.745 63.8298 116.364 64.3771C115.982 64.9244 115.443 65.3473 114.747 65.6458C114.067 65.9278 113.271 66.0687 112.358 66.0687C111.015 66.0687 109.945 65.7371 109.149 65.0737C108.353 64.3937 107.955 63.4981 107.955 62.387ZM118.916 59.75C118.916 58.5062 119.181 57.4116 119.712 56.4663C120.243 55.521 120.972 54.7747 121.901 54.2274C122.83 53.6801 123.875 53.4065 125.035 53.4065C126.213 53.4065 127.258 53.6801 128.17 54.2274C129.099 54.7747 129.828 55.521 130.359 56.4663C130.89 57.4116 131.155 58.5062 131.155 59.75C131.155 60.9607 130.89 62.047 130.359 63.0089C129.828 63.9542 129.099 64.7005 128.17 65.2478C127.258 65.7951 126.213 66.0687 125.035 66.0687C123.875 66.0687 122.83 65.7951 121.901 65.2478C120.972 64.7005 120.243 63.9542 119.712 63.0089C119.181 62.047 118.916 60.9607 118.916 59.75ZM120.657 59.7252C120.657 60.6705 120.84 61.508 121.204 62.2377C121.586 62.9509 122.1 63.5147 122.747 63.9293C123.41 64.3274 124.173 64.5264 125.035 64.5264C125.898 64.5264 126.652 64.3274 127.299 63.9293C127.963 63.5147 128.477 62.9509 128.842 62.2377C129.223 61.508 129.414 60.6705 129.414 59.7252C129.414 58.7964 129.223 57.9755 128.842 57.2624C128.477 56.5492 127.963 55.9853 127.299 55.5707C126.652 55.1561 125.898 54.9488 125.035 54.9488C124.173 54.9488 123.41 55.1561 122.747 55.5707C122.1 55.9853 121.586 56.5492 121.204 57.2624C120.84 57.9755 120.657 58.7964 120.657 59.7252ZM135.617 65.7453H133.901V47.635H135.617V55.8195C135.998 55.0898 136.546 54.5093 137.259 54.0781C137.989 53.6303 138.859 53.4065 139.871 53.4065C141.463 53.4065 142.624 53.8625 143.354 54.7747C144.083 55.6868 144.448 56.8975 144.448 58.4067V65.7702H142.732V58.7798C142.732 57.8345 142.599 57.0882 142.334 56.5409C142.068 55.9771 141.695 55.579 141.214 55.3468C140.733 55.0981 140.178 54.9737 139.548 54.9737C138.685 54.9737 137.964 55.1644 137.383 55.5459C136.803 55.9273 136.363 56.4414 136.065 57.0882C135.766 57.7184 135.617 58.4233 135.617 59.2027V65.7453ZM154.163 53.5806V55.1229H153.218C152.107 55.1229 151.22 55.4629 150.556 56.1429C149.909 56.8229 149.586 57.7433 149.586 58.9042V65.7702H147.869V53.7298H149.486L149.636 56.0931H149.462C149.627 55.3137 150.034 54.6835 150.681 54.2025C151.327 53.705 152.115 53.4562 153.044 53.4562C153.226 53.4562 153.409 53.4645 153.591 53.4811C153.774 53.4977 153.964 53.5308 154.163 53.5806ZM155.104 59.9988V58.4564H162.319V59.9988H155.104ZM174.159 53.7298H175.876V65.7702H174.383L174.159 63.7303C173.827 64.4269 173.272 64.9907 172.492 65.4219C171.73 65.8531 170.875 66.0687 169.93 66.0687C168.52 66.0687 167.434 65.621 166.671 64.7254C165.925 63.8298 165.552 62.6523 165.552 61.1929V53.705H167.293V60.6456C167.293 62.0719 167.583 63.0752 168.164 63.6557C168.761 64.2362 169.532 64.5264 170.477 64.5264C171.638 64.5264 172.542 64.1532 173.189 63.4069C173.836 62.644 174.159 61.5495 174.159 60.1232V53.7298ZM181.168 65.7453H179.451V47.635H181.168V55.8195C181.549 55.0898 182.097 54.5093 182.81 54.0781C183.539 53.6303 184.41 53.4065 185.422 53.4065C187.014 53.4065 188.175 53.8625 188.905 54.7747C189.634 55.6868 189.999 56.8975 189.999 58.4067V65.7702H188.283V58.7798C188.283 57.8345 188.15 57.0882 187.885 56.5409C187.619 55.9771 187.246 55.579 186.765 55.3468C186.284 55.0981 185.729 54.9737 185.098 54.9737C184.236 54.9737 183.515 55.1644 182.934 55.5459C182.354 55.9273 181.914 56.4414 181.616 57.0882C181.317 57.7184 181.168 58.4233 181.168 59.2027V65.7453ZM191.754 67.238V65.8449H195.112V47.7843H191.754V46.3912H196.679V67.238H191.754ZM199.661 65.7702H197.97L204.91 47.9584H206.652L199.661 65.7702ZM216.527 46.8639V53.4313H214.537V46.8639H216.527ZM218.297 62.387H219.939C219.939 63.0835 220.188 63.6391 220.686 64.0537C221.183 64.4518 221.847 64.6508 222.676 64.6508C223.604 64.6508 224.326 64.4683 224.84 64.1035C225.371 63.722 225.636 63.2079 225.636 62.5611C225.636 62.0636 225.495 61.6655 225.213 61.367C224.931 61.0685 224.434 60.828 223.721 60.6456L221.656 60.1232C220.611 59.8578 219.832 59.4515 219.317 58.9042C218.803 58.3569 218.546 57.677 218.546 56.8643C218.546 56.1678 218.729 55.5624 219.093 55.0483C219.458 54.5176 219.964 54.1113 220.611 53.8294C221.274 53.5474 222.037 53.4065 222.9 53.4065C223.745 53.4065 224.483 53.5557 225.114 53.8542C225.744 54.1528 226.233 54.5757 226.581 55.1229C226.946 55.6537 227.137 56.2922 227.154 57.0385H225.487C225.47 56.3253 225.23 55.778 224.765 55.3966C224.301 55.0152 223.663 54.8244 222.85 54.8244C222.004 54.8244 221.349 54.9986 220.885 55.3468C220.437 55.6951 220.213 56.1927 220.213 56.8394C220.213 57.7682 220.868 58.3984 222.178 58.7301L224.243 59.2525C225.288 59.5179 226.051 59.9076 226.532 60.4217C227.029 60.9358 227.278 61.6241 227.278 62.4865C227.278 63.1996 227.087 63.8298 226.706 64.3771C226.324 64.9244 225.785 65.3473 225.089 65.6458C224.409 65.9278 223.613 66.0687 222.701 66.0687C221.357 66.0687 220.288 65.7371 219.492 65.0737C218.695 64.3937 218.297 63.4981 218.297 62.387ZM232.99 52.1875C234.167 52.1875 235.195 52.4197 236.074 52.884C236.953 53.3318 237.641 54.045 238.139 55.0234C238.637 56.0019 238.885 57.2789 238.885 58.8545C238.885 60.4963 238.603 61.848 238.04 62.9094C237.492 63.9708 236.746 64.7586 235.801 65.2727C234.872 65.7702 233.819 66.019 232.641 66.019C231.928 66.019 231.298 65.9527 230.751 65.82C230.22 65.7039 229.731 65.5297 229.283 65.2976V63.3572C229.747 63.5728 230.253 63.7552 230.8 63.9045C231.348 64.0537 231.97 64.1284 232.666 64.1284C233.562 64.1284 234.3 63.9293 234.88 63.5313C235.461 63.1333 235.892 62.5528 236.174 61.7899C236.472 61.0105 236.622 60.0651 236.622 58.954C236.622 57.2955 236.306 56.0683 235.676 55.2722C235.063 54.4762 234.092 54.0781 232.766 54.0781C232.301 54.0781 231.787 54.1362 231.223 54.2523C230.676 54.3684 230.203 54.5259 229.805 54.7249L229.134 52.9089C229.532 52.7099 230.079 52.5441 230.775 52.4114C231.489 52.2621 232.227 52.1875 232.99 52.1875ZM248.35 53.5806V55.1229H247.405C246.294 55.1229 245.406 55.4629 244.743 56.1429C244.096 56.8229 243.773 57.7433 243.773 58.9042V65.7702H242.056V53.7298H243.673L243.823 56.0931H243.648C243.814 55.3137 244.221 54.6835 244.867 54.2025C245.514 53.705 246.302 53.4562 247.231 53.4562C247.413 53.4562 247.596 53.4645 247.778 53.4811C247.96 53.4977 248.151 53.5308 248.35 53.5806ZM261.984 52.1875C263.261 52.1875 264.381 52.4445 265.343 52.9587C266.305 53.4728 267.051 54.2357 267.582 55.2473C268.129 56.259 268.403 57.5111 268.403 59.0037C268.403 60.4632 268.154 61.7153 267.656 62.7601C267.175 63.805 266.487 64.6093 265.592 65.1732C264.713 65.7371 263.684 66.019 262.507 66.019C261.379 66.019 260.401 65.7702 259.571 65.2727C258.742 64.7751 258.104 64.0786 257.656 63.183C257.225 62.2709 257.009 61.2095 257.009 59.9988V58.6803H266.139C266.106 57.1711 265.716 56.0268 264.97 55.2473C264.24 54.4513 263.212 54.0532 261.885 54.0532C261.039 54.0532 260.284 54.1362 259.621 54.302C258.974 54.4513 258.303 54.6752 257.606 54.9737V53.0582C258.286 52.7597 258.958 52.5441 259.621 52.4114C260.284 52.2621 261.072 52.1875 261.984 52.1875ZM259.298 60.4217C259.314 61.168 259.43 61.8314 259.646 62.4119C259.878 62.9757 260.235 63.4235 260.716 63.7552C261.197 64.0703 261.802 64.2279 262.532 64.2279C263.577 64.2279 264.397 63.8962 264.994 63.2328C265.608 62.5528 265.973 61.6158 266.089 60.4217H259.298ZM273.414 65.5215H273.539C273.456 65.6044 273.348 65.6707 273.215 65.7205C273.099 65.7702 272.95 65.7951 272.767 65.7951C272.436 65.7951 272.137 65.679 271.872 65.4468C271.606 65.1981 271.474 64.8664 271.474 64.4518C271.474 64.0206 271.606 63.664 271.872 63.382C272.154 63.1001 272.51 62.9591 272.941 62.9591C273.389 62.9591 273.779 63.1333 274.111 63.4816C274.442 63.8298 274.608 64.3108 274.608 64.9244C274.608 65.4385 274.484 65.9195 274.235 66.3673C274.003 66.815 273.679 67.1799 273.265 67.4618C272.85 67.7604 272.386 67.9511 271.872 68.034V67.1136C272.32 67.0306 272.684 66.8399 272.966 66.5414C273.265 66.2595 273.414 65.9195 273.414 65.5215ZM286.177 46.8639V53.4313H284.187V46.8639H286.177ZM287.948 62.387H289.59C289.59 63.0835 289.838 63.6391 290.336 64.0537C290.833 64.4518 291.497 64.6508 292.326 64.6508C293.255 64.6508 293.976 64.4683 294.49 64.1035C295.021 63.722 295.286 63.2079 295.286 62.5611C295.286 62.0636 295.145 61.6655 294.863 61.367C294.581 61.0685 294.084 60.828 293.371 60.6456L291.306 60.1232C290.261 59.8578 289.482 59.4515 288.968 58.9042C288.453 58.3569 288.196 57.677 288.196 56.8643C288.196 56.1678 288.379 55.5624 288.744 55.0483C289.109 54.5176 289.614 54.1113 290.261 53.8294C290.925 53.5474 291.687 53.4065 292.55 53.4065C293.396 53.4065 294.134 53.5557 294.764 53.8542C295.394 54.1528 295.883 54.5757 296.232 55.1229C296.596 55.6537 296.787 56.2922 296.804 57.0385H295.137C295.12 56.3253 294.88 55.778 294.416 55.3966C293.951 55.0152 293.313 54.8244 292.5 54.8244C291.654 54.8244 290.999 54.9986 290.535 55.3468C290.087 55.6951 289.863 56.1927 289.863 56.8394C289.863 57.7682 290.518 58.3984 291.828 58.7301L293.893 59.2525C294.938 59.5179 295.701 59.9076 296.182 60.4217C296.679 60.9358 296.928 61.6241 296.928 62.4865C296.928 63.1996 296.737 63.8298 296.356 64.3771C295.975 64.9244 295.436 65.3473 294.739 65.6458C294.059 65.9278 293.263 66.0687 292.351 66.0687C291.007 66.0687 289.938 65.7371 289.142 65.0737C288.346 64.3937 287.948 63.4981 287.948 62.387ZM298.908 59.75C298.908 58.5062 299.174 57.4116 299.704 56.4663C300.235 55.521 300.965 54.7747 301.893 54.2274C302.822 53.6801 303.867 53.4065 305.028 53.4065C306.205 53.4065 307.25 53.6801 308.162 54.2274C309.091 54.7747 309.821 55.521 310.352 56.4663C310.882 57.4116 311.148 58.5062 311.148 59.75C311.148 60.9607 310.882 62.047 310.352 63.0089C309.821 63.9542 309.091 64.7005 308.162 65.2478C307.25 65.7951 306.205 66.0687 305.028 66.0687C303.867 66.0687 302.822 65.7951 301.893 65.2478C300.965 64.7005 300.235 63.9542 299.704 63.0089C299.174 62.047 298.908 60.9607 298.908 59.75ZM300.65 59.7252C300.65 60.6705 300.832 61.508 301.197 62.2377C301.578 62.9509 302.092 63.5147 302.739 63.9293C303.403 64.3274 304.165 64.5264 305.028 64.5264C305.89 64.5264 306.645 64.3274 307.292 63.9293C307.955 63.5147 308.469 62.9509 308.834 62.2377C309.215 61.508 309.406 60.6705 309.406 59.7252C309.406 58.7964 309.215 57.9755 308.834 57.2624C308.469 56.5492 307.955 55.9853 307.292 55.5707C306.645 55.1561 305.89 54.9488 305.028 54.9488C304.165 54.9488 303.403 55.1561 302.739 55.5707C302.092 55.9853 301.578 56.5492 301.197 57.2624C300.832 57.9755 300.65 58.7964 300.65 59.7252ZM319.59 66.019C318.412 66.019 317.359 65.7702 316.43 65.2727C315.518 64.7586 314.797 64.0371 314.266 63.1084C313.735 62.1631 313.47 61.0436 313.47 59.75C313.47 58.9208 313.57 58.1745 313.769 57.5111C313.968 56.8477 314.258 56.2507 314.639 55.72C315.037 55.1727 315.518 54.6835 316.082 54.2523H312.848V52.4363H318.719V54.1528C317.923 54.5176 317.226 55.1893 316.629 56.1678C316.032 57.1297 315.734 58.3238 315.734 59.75C315.734 61.0602 316.041 62.1299 316.654 62.9591C317.285 63.7884 318.28 64.203 319.64 64.203C320.535 64.203 321.273 64.0206 321.854 63.6557C322.434 63.2742 322.857 62.7435 323.122 62.0636C323.404 61.3836 323.545 60.6041 323.545 59.7252C323.545 58.8793 323.404 58.075 323.122 57.3121C322.84 56.5492 322.467 55.8858 322.003 55.322C321.555 54.7581 321.066 54.3684 320.535 54.1528V52.4363H326.406V54.2523H323.172C323.752 54.7166 324.233 55.2307 324.615 55.7946C325.013 56.3585 325.311 56.9721 325.51 57.6355C325.709 58.2823 325.809 58.9789 325.809 59.7252C325.809 61.0353 325.552 62.1631 325.038 63.1084C324.54 64.0371 323.827 64.7586 322.898 65.2727C321.97 65.7702 320.867 66.019 319.59 66.019ZM335.249 53.5806V55.1229H334.304C333.192 55.1229 332.305 55.4629 331.642 56.1429C330.995 56.8229 330.672 57.7433 330.672 58.9042V65.7702H328.955V53.7298H330.572L330.721 56.0931H330.547C330.713 55.3137 331.119 54.6835 331.766 54.2025C332.413 53.705 333.201 53.4562 334.129 53.4562C334.312 53.4562 334.494 53.4645 334.677 53.4811C334.859 53.4977 335.05 53.5308 335.249 53.5806ZM348.883 52.1875C350.16 52.1875 351.28 52.4445 352.242 52.9587C353.203 53.4728 353.95 54.2357 354.48 55.2473C355.028 56.259 355.301 57.5111 355.301 59.0037C355.301 60.4632 355.053 61.7153 354.555 62.7601C354.074 63.805 353.386 64.6093 352.49 65.1732C351.611 65.7371 350.583 66.019 349.406 66.019C348.278 66.019 347.299 65.7702 346.47 65.2727C345.641 64.7751 345.002 64.0786 344.555 63.183C344.123 62.2709 343.908 61.2095 343.908 59.9988V58.6803H353.038C353.004 57.1711 352.615 56.0268 351.868 55.2473C351.139 54.4513 350.11 54.0532 348.784 54.0532C347.938 54.0532 347.183 54.1362 346.52 54.302C345.873 54.4513 345.201 54.6752 344.505 54.9737V53.0582C345.185 52.7597 345.856 52.5441 346.52 52.4114C347.183 52.2621 347.971 52.1875 348.883 52.1875ZM346.196 60.4217C346.213 61.168 346.329 61.8314 346.545 62.4119C346.777 62.9757 347.133 63.4235 347.614 63.7552C348.095 64.0703 348.701 64.2279 349.43 64.2279C350.475 64.2279 351.296 63.8962 351.893 63.2328C352.507 62.5528 352.872 61.6158 352.988 60.4217H346.196ZM365.272 65.7702H363.58L370.521 47.9584H372.262L365.272 65.7702Z" fill="black" fill-opacity="0.28"/>
<path d="M6.88519 115.439V103.398H8.60168V115.439H6.88519ZM7.731 100.09C7.38272 100.09 7.0842 99.9653 6.83543 99.7165C6.58666 99.4677 6.46228 99.1692 6.46228 98.8209C6.46228 98.4727 6.58666 98.1742 6.83543 97.9254C7.0842 97.66 7.38272 97.5274 7.731 97.5274C8.07927 97.5274 8.37779 97.66 8.62656 97.9254C8.89191 98.1742 9.02459 98.4727 9.02459 98.8209C9.02459 99.1692 8.89191 99.4677 8.62656 99.7165C8.37779 99.9653 8.07927 100.09 7.731 100.09ZM10.8379 103.398H17.3556V104.841H10.8379V103.398ZM14.9425 115.439H13.2509V99.5921H14.9425V115.439ZM18.6235 109.443C18.6235 108.183 18.864 107.08 19.345 106.135C19.8425 105.173 20.5225 104.427 21.3849 103.896C22.2638 103.349 23.2838 103.075 24.4447 103.075C25.8378 103.075 27.007 103.448 27.9523 104.194C28.9142 104.941 29.5113 105.936 29.7435 107.18H28.027C27.7948 106.35 27.3553 105.712 26.7085 105.264C26.0617 104.816 25.3154 104.592 24.4696 104.592C23.6735 104.592 22.9604 104.791 22.3302 105.189C21.7 105.587 21.2024 106.151 20.8376 106.881C20.4893 107.594 20.3152 108.44 20.3152 109.418C20.3152 110.38 20.481 111.218 20.8127 111.931C21.1444 112.644 21.6088 113.2 22.2058 113.598C22.8194 113.996 23.5326 114.195 24.3452 114.195C25.2574 114.195 26.0451 113.971 26.7085 113.523C27.3719 113.059 27.8197 112.437 28.0518 111.657H29.7932C29.6108 112.47 29.2625 113.183 28.7484 113.797C28.2343 114.41 27.5958 114.891 26.8329 115.24C26.0866 115.571 25.2574 115.737 24.3452 115.737C23.2009 115.737 22.1975 115.48 21.3351 114.966C20.4893 114.435 19.8259 113.697 19.345 112.752C18.864 111.807 18.6235 110.704 18.6235 109.443ZM34.1101 115.414H32.3936V97.3035H34.1101V105.488C34.4916 104.758 35.0389 104.178 35.752 103.747C36.4817 103.299 37.3524 103.075 38.3641 103.075C39.9562 103.075 41.1171 103.531 41.8468 104.443C42.5765 105.355 42.9414 106.566 42.9414 108.075V115.439H41.2249V108.448C41.2249 107.503 41.0922 106.757 40.8269 106.209C40.5615 105.645 40.1884 105.247 39.7074 105.015C39.2265 104.767 38.6709 104.642 38.0407 104.642C37.1783 104.642 36.4568 104.833 35.8764 105.214C35.2959 105.596 34.8564 106.11 34.5579 106.757C34.2594 107.387 34.1101 108.092 34.1101 108.871V115.414ZM52.4161 109.418C52.4161 108.175 52.6815 107.08 53.2122 106.135C53.7429 105.189 54.4726 104.443 55.4014 103.896C56.3301 103.349 57.3749 103.075 58.5358 103.075C59.7133 103.075 60.7582 103.349 61.6703 103.896C62.5991 104.443 63.3288 105.189 63.8595 106.135C64.3902 107.08 64.6555 108.175 64.6555 109.418C64.6555 110.629 64.3902 111.715 63.8595 112.677C63.3288 113.623 62.5991 114.369 61.6703 114.916C60.7582 115.464 59.7133 115.737 58.5358 115.737C57.3749 115.737 56.3301 115.464 55.4014 114.916C54.4726 114.369 53.7429 113.623 53.2122 112.677C52.6815 111.715 52.4161 110.629 52.4161 109.418ZM54.1575 109.394C54.1575 110.339 54.34 111.176 54.7048 111.906C55.0863 112.619 55.6004 113.183 56.2472 113.598C56.9106 113.996 57.6734 114.195 58.5358 114.195C59.3982 114.195 60.1528 113.996 60.7996 113.598C61.463 113.183 61.9771 112.619 62.342 111.906C62.7234 111.176 62.9142 110.339 62.9142 109.394C62.9142 108.465 62.7234 107.644 62.342 106.931C61.9771 106.218 61.463 105.654 60.7996 105.239C60.1528 104.825 59.3982 104.617 58.5358 104.617C57.6734 104.617 56.9106 104.825 56.2472 105.239C55.6004 105.654 55.0863 106.218 54.7048 106.931C54.34 107.644 54.1575 108.465 54.1575 109.394ZM73.6948 103.249V104.791H72.7494C71.6383 104.791 70.751 105.131 70.0876 105.811C69.4408 106.491 69.1174 107.412 69.1174 108.573V115.439H67.4009V103.398H69.0179L69.1672 105.762H68.993C69.1589 104.982 69.5652 104.352 70.212 103.871C70.8588 103.373 71.6466 103.125 72.5753 103.125C72.7577 103.125 72.9402 103.133 73.1226 103.15C73.305 103.166 73.4957 103.199 73.6948 103.249ZM81.8561 112.055H83.498C83.498 112.752 83.7467 113.308 84.2443 113.722C84.7418 114.12 85.4052 114.319 86.2344 114.319C87.1631 114.319 87.8846 114.137 88.3987 113.772C88.9294 113.39 89.1948 112.876 89.1948 112.23C89.1948 111.732 89.0538 111.334 88.7718 111.035C88.4899 110.737 87.9924 110.496 87.2792 110.314L85.2145 109.792C84.1696 109.526 83.3902 109.12 82.876 108.573C82.3619 108.025 82.1049 107.345 82.1049 106.533C82.1049 105.836 82.2873 105.231 82.6522 104.717C83.017 104.186 83.5228 103.78 84.1696 103.498C84.833 103.216 85.5959 103.075 86.4583 103.075C87.3041 103.075 88.0421 103.224 88.6723 103.523C89.3026 103.821 89.7918 104.244 90.1401 104.791C90.5049 105.322 90.6957 105.961 90.7122 106.707H89.0455C89.0289 105.994 88.7884 105.446 88.3241 105.065C87.8597 104.684 87.2212 104.493 86.4086 104.493C85.5627 104.493 84.9077 104.667 84.4433 105.015C83.9955 105.364 83.7716 105.861 83.7716 106.508C83.7716 107.437 84.4267 108.067 85.7369 108.399L87.8017 108.921C88.8465 109.186 89.6094 109.576 90.0903 110.09C90.5879 110.604 90.8366 111.293 90.8366 112.155C90.8366 112.868 90.6459 113.498 90.2645 114.046C89.883 114.593 89.344 115.016 88.6475 115.314C87.9675 115.596 87.1714 115.737 86.2593 115.737C84.9159 115.737 83.8462 115.405 83.0502 114.742C82.2541 114.062 81.8561 113.167 81.8561 112.055ZM92.8167 109.443C92.8167 108.183 93.0571 107.08 93.5381 106.135C94.0356 105.173 94.7156 104.427 95.578 103.896C96.457 103.349 97.4769 103.075 98.6378 103.075C100.031 103.075 101.2 103.448 102.145 104.194C103.107 104.941 103.704 105.936 103.937 107.18H102.22C101.988 106.35 101.548 105.712 100.902 105.264C100.255 104.816 99.5085 104.592 98.6627 104.592C97.8666 104.592 97.1535 104.791 96.5233 105.189C95.8931 105.587 95.3956 106.151 95.0307 106.881C94.6824 107.594 94.5083 108.44 94.5083 109.418C94.5083 110.38 94.6741 111.218 95.0058 111.931C95.3375 112.644 95.8019 113.2 96.3989 113.598C97.0125 113.996 97.7257 114.195 98.5383 114.195C99.4505 114.195 100.238 113.971 100.902 113.523C101.565 113.059 102.013 112.437 102.245 111.657H103.986C103.804 112.47 103.456 113.183 102.942 113.797C102.427 114.41 101.789 114.891 101.026 115.24C100.28 115.571 99.4505 115.737 98.5383 115.737C97.394 115.737 96.3906 115.48 95.5282 114.966C94.6824 114.435 94.019 113.697 93.5381 112.752C93.0571 111.807 92.8167 110.704 92.8167 109.443ZM110.045 115.737C108.768 115.737 107.764 115.405 107.035 114.742C106.321 114.079 105.965 113.225 105.965 112.18C105.965 111.069 106.363 110.181 107.159 109.518C107.955 108.855 109.058 108.465 110.468 108.349L114.448 108.025V107.627C114.448 106.831 114.307 106.209 114.025 105.762C113.743 105.297 113.362 104.974 112.881 104.791C112.4 104.609 111.861 104.518 111.264 104.518C110.202 104.518 109.381 104.742 108.801 105.189C108.22 105.637 107.93 106.267 107.93 107.08H106.363C106.363 106.267 106.57 105.563 106.985 104.966C107.399 104.368 107.98 103.904 108.726 103.572C109.472 103.241 110.335 103.075 111.313 103.075C112.259 103.075 113.088 103.241 113.801 103.572C114.514 103.888 115.078 104.385 115.493 105.065C115.924 105.728 116.139 106.591 116.139 107.652V115.439H114.697L114.473 113.324C114.108 114.087 113.527 114.684 112.731 115.115C111.952 115.53 111.056 115.737 110.045 115.737ZM110.443 114.344C111.72 114.344 112.706 113.938 113.403 113.125C114.1 112.312 114.448 111.259 114.448 109.966V109.319L110.89 109.593C109.763 109.692 108.95 109.974 108.453 110.438C107.955 110.903 107.706 111.467 107.706 112.13C107.706 112.86 107.955 113.415 108.453 113.797C108.95 114.162 109.613 114.344 110.443 114.344ZM121.077 115.439H119.584V97.3035H121.3V105.737C121.715 104.841 122.312 104.178 123.092 103.747C123.888 103.299 124.8 103.075 125.828 103.075C127.005 103.075 128.001 103.357 128.813 103.921C129.642 104.468 130.273 105.223 130.704 106.184C131.152 107.146 131.376 108.233 131.376 109.443C131.376 110.637 131.152 111.715 130.704 112.677C130.256 113.623 129.618 114.369 128.788 114.916C127.959 115.464 126.956 115.737 125.778 115.737C124.783 115.737 123.888 115.513 123.092 115.065C122.295 114.601 121.682 113.905 121.251 112.976L121.077 115.439ZM121.325 109.394C121.325 110.322 121.491 111.152 121.823 111.881C122.155 112.594 122.627 113.158 123.241 113.573C123.871 113.971 124.626 114.17 125.505 114.17C126.384 114.17 127.13 113.971 127.743 113.573C128.357 113.158 128.821 112.594 129.137 111.881C129.468 111.152 129.634 110.322 129.634 109.394C129.634 108.465 129.468 107.644 129.137 106.931C128.821 106.218 128.357 105.654 127.743 105.239C127.13 104.825 126.384 104.617 125.505 104.617C124.626 104.617 123.871 104.825 123.241 105.239C122.627 105.654 122.155 106.218 121.823 106.931C121.491 107.644 121.325 108.465 121.325 109.394ZM136.201 115.19H136.326C136.243 115.273 136.135 115.339 136.002 115.389C135.886 115.439 135.737 115.464 135.554 115.464C135.223 115.464 134.924 115.347 134.659 115.115C134.394 114.866 134.261 114.535 134.261 114.12C134.261 113.689 134.394 113.332 134.659 113.05C134.941 112.769 135.297 112.628 135.729 112.628C136.176 112.628 136.566 112.802 136.898 113.15C137.229 113.498 137.395 113.979 137.395 114.593C137.395 115.107 137.271 115.588 137.022 116.036C136.79 116.483 136.467 116.848 136.052 117.13C135.637 117.429 135.173 117.62 134.659 117.702V116.782C135.107 116.699 135.471 116.508 135.753 116.21C136.052 115.928 136.201 115.588 136.201 115.19ZM135.828 106.184C135.413 106.184 135.049 106.035 134.733 105.737C134.418 105.422 134.261 105.057 134.261 104.642C134.261 104.211 134.418 103.846 134.733 103.548C135.049 103.249 135.413 103.1 135.828 103.1C136.259 103.1 136.624 103.249 136.923 103.548C137.238 103.846 137.395 104.211 137.395 104.642C137.395 105.057 137.238 105.422 136.923 105.737C136.624 106.035 136.259 106.184 135.828 106.184ZM151.49 115.737C150.213 115.737 149.209 115.405 148.48 114.742C147.767 114.079 147.41 113.225 147.41 112.18C147.41 111.069 147.808 110.181 148.604 109.518C149.4 108.855 150.503 108.465 151.913 108.349L155.893 108.025V107.627C155.893 106.831 155.752 106.209 155.47 105.762C155.188 105.297 154.807 104.974 154.326 104.791C153.845 104.609 153.306 104.518 152.709 104.518C151.647 104.518 150.826 104.742 150.246 105.189C149.665 105.637 149.375 106.267 149.375 107.08H147.808C147.808 106.267 148.015 105.563 148.43 104.966C148.845 104.368 149.425 103.904 150.171 103.572C150.918 103.241 151.78 103.075 152.758 103.075C153.704 103.075 154.533 103.241 155.246 103.572C155.959 103.888 156.523 104.385 156.938 105.065C157.369 105.728 157.585 106.591 157.585 107.652V115.439H156.142L155.918 113.324C155.553 114.087 154.973 114.684 154.176 115.115C153.397 115.53 152.501 115.737 151.49 115.737ZM151.888 114.344C153.165 114.344 154.152 113.938 154.848 113.125C155.545 112.312 155.893 111.259 155.893 109.966V109.319L152.336 109.593C151.208 109.692 150.395 109.974 149.898 110.438C149.4 110.903 149.151 111.467 149.151 112.13C149.151 112.86 149.4 113.415 149.898 113.797C150.395 114.162 151.059 114.344 151.888 114.344ZM167.083 109.443C167.083 108.183 167.323 107.08 167.804 106.135C168.302 105.173 168.982 104.427 169.844 103.896C170.723 103.349 171.743 103.075 172.904 103.075C174.297 103.075 175.466 103.448 176.411 104.194C177.373 104.941 177.97 105.936 178.203 107.18H176.486C176.254 106.35 175.814 105.712 175.168 105.264C174.521 104.816 173.775 104.592 172.929 104.592C172.133 104.592 171.42 104.791 170.789 105.189C170.159 105.587 169.662 106.151 169.297 106.881C168.948 107.594 168.774 108.44 168.774 109.418C168.774 110.38 168.94 111.218 169.272 111.931C169.604 112.644 170.068 113.2 170.665 113.598C171.279 113.996 171.992 114.195 172.804 114.195C173.716 114.195 174.504 113.971 175.168 113.523C175.831 113.059 176.279 112.437 176.511 111.657H178.252C178.07 112.47 177.722 113.183 177.208 113.797C176.693 114.41 176.055 114.891 175.292 115.24C174.546 115.571 173.716 115.737 172.804 115.737C171.66 115.737 170.657 115.48 169.794 114.966C168.948 114.435 168.285 113.697 167.804 112.752C167.323 111.807 167.083 110.704 167.083 109.443ZM189.311 103.398H191.027V115.439H189.535L189.311 113.399C188.979 114.095 188.424 114.659 187.644 115.09C186.881 115.522 186.027 115.737 185.082 115.737C183.672 115.737 182.586 115.289 181.823 114.394C181.077 113.498 180.703 112.321 180.703 110.861V103.373H182.445V110.314C182.445 111.74 182.735 112.744 183.316 113.324C183.913 113.905 184.684 114.195 185.629 114.195C186.79 114.195 187.694 113.822 188.341 113.075C188.987 112.312 189.311 111.218 189.311 109.792V103.398ZM193.26 103.398H199.777V104.841H193.26V103.398ZM197.364 115.439H195.673V99.5921H197.364V115.439ZM205.276 115.737C203.999 115.737 202.996 115.405 202.266 114.742C201.553 114.079 201.196 113.225 201.196 112.18C201.196 111.069 201.594 110.181 202.39 109.518C203.186 108.855 204.289 108.465 205.699 108.349L209.679 108.025V107.627C209.679 106.831 209.538 106.209 209.256 105.762C208.974 105.297 208.593 104.974 208.112 104.791C207.631 104.609 207.092 104.518 206.495 104.518C205.434 104.518 204.613 104.742 204.032 105.189C203.452 105.637 203.162 106.267 203.162 107.08H201.594C201.594 106.267 201.802 105.563 202.216 104.966C202.631 104.368 203.211 103.904 203.958 103.572C204.704 103.241 205.566 103.075 206.545 103.075C207.49 103.075 208.319 103.241 209.033 103.572C209.746 103.888 210.31 104.385 210.724 105.065C211.155 105.728 211.371 106.591 211.371 107.652V115.439H209.928L209.704 113.324C209.339 114.087 208.759 114.684 207.963 115.115C207.183 115.53 206.288 115.737 205.276 115.737ZM205.674 114.344C206.951 114.344 207.938 113.938 208.635 113.125C209.331 112.312 209.679 111.259 209.679 109.966V109.319L206.122 109.593C204.994 109.692 204.182 109.974 203.684 110.438C203.186 110.903 202.938 111.467 202.938 112.13C202.938 112.86 203.186 113.415 203.684 113.797C204.182 114.162 204.845 114.344 205.674 114.344ZM216.532 115.439H214.815V103.398H216.308L216.557 105.488C216.955 104.725 217.519 104.136 218.248 103.722C218.995 103.29 219.807 103.075 220.686 103.075C222.345 103.075 223.539 103.531 224.269 104.443C224.998 105.355 225.363 106.566 225.363 108.075V115.439H223.647V108.448C223.647 107.039 223.348 106.052 222.751 105.488C222.171 104.924 221.383 104.642 220.388 104.642C219.161 104.642 218.207 105.057 217.527 105.886C216.864 106.699 216.532 107.785 216.532 109.145V115.439ZM233.834 115.737C232.673 115.737 231.645 115.472 230.75 114.941C229.871 114.41 229.182 113.672 228.685 112.727C228.187 111.782 227.939 110.679 227.939 109.418C227.939 108.175 228.179 107.08 228.66 106.135C229.157 105.173 229.837 104.427 230.7 103.896C231.562 103.349 232.566 103.075 233.71 103.075C234.805 103.075 235.758 103.315 236.571 103.796C237.4 104.277 238.038 104.949 238.486 105.811C238.951 106.657 239.183 107.652 239.183 108.797V109.642H228.884L228.934 108.399H237.466C237.466 107.238 237.118 106.309 236.422 105.612C235.742 104.899 234.838 104.543 233.71 104.543C232.881 104.543 232.151 104.733 231.521 105.115C230.907 105.496 230.434 106.044 230.103 106.757C229.771 107.453 229.605 108.282 229.605 109.244C229.605 110.836 229.97 112.072 230.7 112.951C231.446 113.83 232.499 114.269 233.859 114.269C234.838 114.269 235.642 114.062 236.272 113.648C236.902 113.233 237.325 112.628 237.541 111.832H239.183C238.868 113.092 238.254 114.062 237.342 114.742C236.43 115.405 235.261 115.737 233.834 115.737ZM241.081 109.418C241.081 108.175 241.347 107.08 241.877 106.135C242.408 105.189 243.138 104.443 244.067 103.896C244.995 103.349 246.04 103.075 247.201 103.075C248.379 103.075 249.423 103.349 250.336 103.896C251.264 104.443 251.994 105.189 252.525 106.135C253.055 107.08 253.321 108.175 253.321 109.418C253.321 110.629 253.055 111.715 252.525 112.677C251.994 113.623 251.264 114.369 250.336 114.916C249.423 115.464 248.379 115.737 247.201 115.737C246.04 115.737 244.995 115.464 244.067 114.916C243.138 114.369 242.408 113.623 241.877 112.677C241.347 111.715 241.081 110.629 241.081 109.418ZM242.823 109.394C242.823 110.339 243.005 111.176 243.37 111.906C243.752 112.619 244.266 113.183 244.912 113.598C245.576 113.996 246.339 114.195 247.201 114.195C248.064 114.195 248.818 113.996 249.465 113.598C250.128 113.183 250.642 112.619 251.007 111.906C251.389 111.176 251.579 110.339 251.579 109.394C251.579 108.465 251.389 107.644 251.007 106.931C250.642 106.218 250.128 105.654 249.465 105.239C248.818 104.825 248.064 104.617 247.201 104.617C246.339 104.617 245.576 104.825 244.912 105.239C244.266 105.654 243.752 106.218 243.37 106.931C243.005 107.644 242.823 108.465 242.823 109.394ZM264.233 103.398H265.949V115.439H264.457L264.233 113.399C263.901 114.095 263.346 114.659 262.566 115.09C261.803 115.522 260.949 115.737 260.004 115.737C258.594 115.737 257.508 115.289 256.745 114.394C255.999 113.498 255.625 112.321 255.625 110.861V103.373H257.367V110.314C257.367 111.74 257.657 112.744 258.237 113.324C258.835 113.905 259.606 114.195 260.551 114.195C261.712 114.195 262.616 113.822 263.263 113.075C263.909 112.312 264.233 111.218 264.233 109.792V103.398ZM268.262 112.055H269.904C269.904 112.752 270.153 113.308 270.65 113.722C271.148 114.12 271.811 114.319 272.64 114.319C273.569 114.319 274.291 114.137 274.805 113.772C275.335 113.39 275.601 112.876 275.601 112.23C275.601 111.732 275.46 111.334 275.178 111.035C274.896 110.737 274.398 110.496 273.685 110.314L271.62 109.792C270.576 109.526 269.796 109.12 269.282 108.573C268.768 108.025 268.511 107.345 268.511 106.533C268.511 105.836 268.693 105.231 269.058 104.717C269.423 104.186 269.929 103.78 270.576 103.498C271.239 103.216 272.002 103.075 272.864 103.075C273.71 103.075 274.448 103.224 275.078 103.523C275.709 103.821 276.198 104.244 276.546 104.791C276.911 105.322 277.102 105.961 277.118 106.707H275.451C275.435 105.994 275.194 105.446 274.73 105.065C274.266 104.684 273.627 104.493 272.815 104.493C271.969 104.493 271.314 104.667 270.849 105.015C270.401 105.364 270.178 105.861 270.178 106.508C270.178 107.437 270.833 108.067 272.143 108.399L274.208 108.921C275.252 109.186 276.015 109.576 276.496 110.09C276.994 110.604 277.243 111.293 277.243 112.155C277.243 112.868 277.052 113.498 276.67 114.046C276.289 114.593 275.75 115.016 275.053 115.314C274.373 115.596 273.577 115.737 272.665 115.737C271.322 115.737 270.252 115.405 269.456 114.742C268.66 114.062 268.262 113.167 268.262 112.055ZM286.122 109.418C286.122 108.175 286.387 107.08 286.918 106.135C287.449 105.189 288.179 104.443 289.107 103.896C290.036 103.349 291.081 103.075 292.242 103.075C293.419 103.075 294.464 103.349 295.376 103.896C296.305 104.443 297.035 105.189 297.565 106.135C298.096 107.08 298.361 108.175 298.361 109.418C298.361 110.629 298.096 111.715 297.565 112.677C297.035 113.623 296.305 114.369 295.376 114.916C294.464 115.464 293.419 115.737 292.242 115.737C291.081 115.737 290.036 115.464 289.107 114.916C288.179 114.369 287.449 113.623 286.918 112.677C286.387 111.715 286.122 110.629 286.122 109.418ZM287.863 109.394C287.863 110.339 288.046 111.176 288.411 111.906C288.792 112.619 289.306 113.183 289.953 113.598C290.616 113.996 291.379 114.195 292.242 114.195C293.104 114.195 293.859 113.996 294.506 113.598C295.169 113.183 295.683 112.619 296.048 111.906C296.429 111.176 296.62 110.339 296.62 109.394C296.62 108.465 296.429 107.644 296.048 106.931C295.683 106.218 295.169 105.654 294.506 105.239C293.859 104.825 293.104 104.617 292.242 104.617C291.379 104.617 290.616 104.825 289.953 105.239C289.306 105.654 288.792 106.218 288.411 106.931C288.046 107.644 287.863 108.465 287.863 109.394ZM307.401 103.249V104.791H306.455C305.344 104.791 304.457 105.131 303.793 105.811C303.147 106.491 302.823 107.412 302.823 108.573V115.439H301.107V103.398H302.724L302.873 105.762H302.699C302.865 104.982 303.271 104.352 303.918 103.871C304.565 103.373 305.352 103.125 306.281 103.125C306.464 103.125 306.646 103.133 306.828 103.15C307.011 103.166 307.202 103.199 307.401 103.249ZM315.562 112.055H317.204C317.204 112.752 317.453 113.308 317.95 113.722C318.448 114.12 319.111 114.319 319.94 114.319C320.869 114.319 321.59 114.137 322.105 113.772C322.635 113.39 322.901 112.876 322.901 112.23C322.901 111.732 322.76 111.334 322.478 111.035C322.196 110.737 321.698 110.496 320.985 110.314L318.92 109.792C317.876 109.526 317.096 109.12 316.582 108.573C316.068 108.025 315.811 107.345 315.811 106.533C315.811 105.836 315.993 105.231 316.358 104.717C316.723 104.186 317.229 103.78 317.876 103.498C318.539 103.216 319.302 103.075 320.164 103.075C321.01 103.075 321.748 103.224 322.378 103.523C323.008 103.821 323.498 104.244 323.846 104.791C324.211 105.322 324.402 105.961 324.418 106.707H322.751C322.735 105.994 322.494 105.446 322.03 105.065C321.566 104.684 320.927 104.493 320.114 104.493C319.269 104.493 318.614 104.667 318.149 105.015C317.701 105.364 317.477 105.861 317.477 106.508C317.477 107.437 318.133 108.067 319.443 108.399L321.508 108.921C322.552 109.186 323.315 109.576 323.796 110.09C324.294 110.604 324.543 111.293 324.543 112.155C324.543 112.868 324.352 113.498 323.97 114.046C323.589 114.593 323.05 115.016 322.353 115.314C321.673 115.596 320.877 115.737 319.965 115.737C318.622 115.737 317.552 115.405 316.756 114.742C315.96 114.062 315.562 113.167 315.562 112.055ZM329.159 115.439H327.443V97.3035H329.159V109.617L335.13 103.398H337.294L332.667 108.2L337.319 115.439H335.329L331.498 109.418L329.159 111.832V115.439ZM339.369 115.439V103.398H341.086V115.439H339.369ZM340.215 100.09C339.867 100.09 339.568 99.9653 339.32 99.7165C339.071 99.4677 338.947 99.1692 338.947 98.8209C338.947 98.4727 339.071 98.1742 339.32 97.9254C339.568 97.66 339.867 97.5274 340.215 97.5274C340.564 97.5274 340.862 97.66 341.111 97.9254C341.376 98.1742 341.509 98.4727 341.509 98.8209C341.509 99.1692 341.376 99.4677 341.111 99.7165C340.862 99.9653 340.564 100.09 340.215 100.09ZM346.382 115.439H344.666V103.398H346.158L346.407 105.488C346.805 104.725 347.369 104.136 348.099 103.722C348.845 103.29 349.657 103.075 350.536 103.075C352.195 103.075 353.389 103.531 354.119 104.443C354.848 105.355 355.213 106.566 355.213 108.075V115.439H353.497V108.448C353.497 107.039 353.198 106.052 352.601 105.488C352.021 104.924 351.233 104.642 350.238 104.642C349.011 104.642 348.057 105.057 347.377 105.886C346.714 106.699 346.382 107.785 346.382 109.145V115.439ZM370.26 115.737C369.1 115.737 368.104 115.464 367.275 114.916C366.446 114.369 365.807 113.623 365.36 112.677C364.912 111.715 364.688 110.637 364.688 109.443C364.688 108.233 364.912 107.146 365.36 106.184C365.807 105.223 366.446 104.468 367.275 103.921C368.121 103.357 369.141 103.075 370.335 103.075C371.33 103.075 372.209 103.29 372.972 103.722C373.751 104.153 374.349 104.808 374.763 105.687V97.3035H376.48V115.439H374.987L374.813 112.976C374.382 113.905 373.768 114.601 372.972 115.065C372.176 115.513 371.272 115.737 370.26 115.737ZM370.559 114.17C371.455 114.17 372.209 113.971 372.823 113.573C373.436 113.158 373.909 112.594 374.241 111.881C374.572 111.152 374.738 110.322 374.738 109.394C374.738 108.465 374.572 107.644 374.241 106.931C373.909 106.218 373.436 105.654 372.823 105.239C372.209 104.825 371.455 104.617 370.559 104.617C369.697 104.617 368.95 104.825 368.32 105.239C367.706 105.654 367.234 106.218 366.902 106.931C366.587 107.644 366.429 108.465 366.429 109.394C366.429 110.322 366.587 111.152 366.902 111.881C367.234 112.594 367.706 113.158 368.32 113.573C368.95 113.971 369.697 114.17 370.559 114.17ZM380.062 115.439V103.398H381.778V115.439H380.062ZM380.907 100.09C380.559 100.09 380.261 99.9653 380.012 99.7165C379.763 99.4677 379.639 99.1692 379.639 98.8209C379.639 98.4727 379.763 98.1742 380.012 97.9254C380.261 97.66 380.559 97.5274 380.907 97.5274C381.256 97.5274 381.554 97.66 381.803 97.9254C382.068 98.1742 382.201 98.4727 382.201 98.8209C382.201 99.1692 382.068 99.4677 381.803 99.7165C381.554 99.9653 381.256 100.09 380.907 100.09ZM384.338 112.055H385.979C385.979 112.752 386.228 113.308 386.726 113.722C387.223 114.12 387.887 114.319 388.716 114.319C389.645 114.319 390.366 114.137 390.88 113.772C391.411 113.39 391.676 112.876 391.676 112.23C391.676 111.732 391.535 111.334 391.253 111.035C390.971 110.737 390.474 110.496 389.761 110.314L387.696 109.792C386.651 109.526 385.872 109.12 385.358 108.573C384.843 108.025 384.586 107.345 384.586 106.533C384.586 105.836 384.769 105.231 385.134 104.717C385.499 104.186 386.004 103.78 386.651 103.498C387.315 103.216 388.077 103.075 388.94 103.075C389.786 103.075 390.524 103.224 391.154 103.523C391.784 103.821 392.273 104.244 392.622 104.791C392.986 105.322 393.177 105.961 393.194 106.707H391.527C391.51 105.994 391.27 105.446 390.806 105.065C390.341 104.684 389.703 104.493 388.89 104.493C388.044 104.493 387.389 104.667 386.925 105.015C386.477 105.364 386.253 105.861 386.253 106.508C386.253 107.437 386.908 108.067 388.218 108.399L390.283 108.921C391.328 109.186 392.091 109.576 392.572 110.09C393.069 110.604 393.318 111.293 393.318 112.155C393.318 112.868 393.127 113.498 392.746 114.046C392.365 114.593 391.826 115.016 391.129 115.314C390.449 115.596 389.653 115.737 388.741 115.737C387.397 115.737 386.328 115.405 385.532 114.742C384.736 114.062 384.338 113.167 384.338 112.055ZM401.194 115.737C400.033 115.737 399.005 115.472 398.109 114.941C397.23 114.41 396.542 113.672 396.044 112.727C395.547 111.782 395.298 110.679 395.298 109.418C395.298 108.175 395.539 107.08 396.02 106.135C396.517 105.173 397.197 104.427 398.059 103.896C398.922 103.349 399.925 103.075 401.07 103.075C402.164 103.075 403.118 103.315 403.93 103.796C404.76 104.277 405.398 104.949 405.846 105.811C406.31 106.657 406.542 107.652 406.542 108.797V109.642H396.243L396.293 108.399H404.826C404.826 107.238 404.478 106.309 403.781 105.612C403.101 104.899 402.197 104.543 401.07 104.543C400.24 104.543 399.511 104.733 398.88 105.115C398.267 105.496 397.794 106.044 397.462 106.757C397.131 107.453 396.965 108.282 396.965 109.244C396.965 110.836 397.33 112.072 398.059 112.951C398.806 113.83 399.859 114.269 401.219 114.269C402.197 114.269 403.002 114.062 403.632 113.648C404.262 113.233 404.685 112.628 404.901 111.832H406.542C406.227 113.092 405.614 114.062 404.702 114.742C403.789 115.405 402.62 115.737 401.194 115.737ZM412.623 115.737C411.346 115.737 410.343 115.405 409.613 114.742C408.9 114.079 408.544 113.225 408.544 112.18C408.544 111.069 408.942 110.181 409.738 109.518C410.534 108.855 411.637 108.465 413.046 108.349L417.026 108.025V107.627C417.026 106.831 416.886 106.209 416.604 105.762C416.322 105.297 415.94 104.974 415.459 104.791C414.978 104.609 414.439 104.518 413.842 104.518C412.781 104.518 411.96 104.742 411.379 105.189C410.799 105.637 410.509 106.267 410.509 107.08H408.942C408.942 106.267 409.149 105.563 409.563 104.966C409.978 104.368 410.559 103.904 411.305 103.572C412.051 103.241 412.914 103.075 413.892 103.075C414.837 103.075 415.667 103.241 416.38 103.572C417.093 103.888 417.657 104.385 418.071 105.065C418.503 105.728 418.718 106.591 418.718 107.652V115.439H417.275L417.051 113.324C416.687 114.087 416.106 114.684 415.31 115.115C414.531 115.53 413.635 115.737 412.623 115.737ZM413.021 114.344C414.298 114.344 415.285 113.938 415.982 113.125C416.678 112.312 417.026 111.259 417.026 109.966V109.319L413.469 109.593C412.341 109.692 411.529 109.974 411.031 110.438C410.534 110.903 410.285 111.467 410.285 112.13C410.285 112.86 410.534 113.415 411.031 113.797C411.529 114.162 412.192 114.344 413.021 114.344ZM421.143 112.055H422.785C422.785 112.752 423.033 113.308 423.531 113.722C424.028 114.12 424.692 114.319 425.521 114.319C426.45 114.319 427.171 114.137 427.685 113.772C428.216 113.39 428.481 112.876 428.481 112.23C428.481 111.732 428.34 111.334 428.058 111.035C427.776 110.737 427.279 110.496 426.566 110.314L424.501 109.792C423.456 109.526 422.677 109.12 422.163 108.573C421.648 108.025 421.391 107.345 421.391 106.533C421.391 105.836 421.574 105.231 421.939 104.717C422.304 104.186 422.809 103.78 423.456 103.498C424.12 103.216 424.882 103.075 425.745 103.075C426.591 103.075 427.329 103.224 427.959 103.523C428.589 103.821 429.078 104.244 429.427 104.791C429.791 105.322 429.982 105.961 429.999 106.707H428.332C428.315 105.994 428.075 105.446 427.611 105.065C427.146 104.684 426.508 104.493 425.695 104.493C424.849 104.493 424.194 104.667 423.73 105.015C423.282 105.364 423.058 105.861 423.058 106.508C423.058 107.437 423.713 108.067 425.023 108.399L427.088 108.921C428.133 109.186 428.896 109.576 429.377 110.09C429.874 110.604 430.123 111.293 430.123 112.155C430.123 112.868 429.932 113.498 429.551 114.046C429.17 114.593 428.631 115.016 427.934 115.314C427.254 115.596 426.458 115.737 425.546 115.737C424.202 115.737 423.133 115.405 422.337 114.742C421.541 114.062 421.143 113.167 421.143 112.055ZM437.999 115.737C436.838 115.737 435.81 115.472 434.914 114.941C434.035 114.41 433.347 113.672 432.849 112.727C432.352 111.782 432.103 110.679 432.103 109.418C432.103 108.175 432.344 107.08 432.825 106.135C433.322 105.173 434.002 104.427 434.865 103.896C435.727 103.349 436.73 103.075 437.875 103.075C438.969 103.075 439.923 103.315 440.735 103.796C441.565 104.277 442.203 104.949 442.651 105.811C443.115 106.657 443.348 107.652 443.348 108.797V109.642H433.049L433.098 108.399H441.631C441.631 107.238 441.283 106.309 440.586 105.612C439.906 104.899 439.002 104.543 437.875 104.543C437.045 104.543 436.316 104.733 435.685 105.115C435.072 105.496 434.599 106.044 434.267 106.757C433.936 107.453 433.77 108.282 433.77 109.244C433.77 110.836 434.135 112.072 434.865 112.951C435.611 113.83 436.664 114.269 438.024 114.269C439.002 114.269 439.807 114.062 440.437 113.648C441.067 113.233 441.49 112.628 441.706 111.832H443.348C443.032 113.092 442.419 114.062 441.507 114.742C440.594 115.405 439.425 115.737 437.999 115.737ZM447.18 115.19H447.304C447.221 115.273 447.113 115.339 446.981 115.389C446.865 115.439 446.715 115.464 446.533 115.464C446.201 115.464 445.903 115.347 445.637 115.115C445.372 114.866 445.239 114.535 445.239 114.12C445.239 113.689 445.372 113.332 445.637 113.05C445.919 112.769 446.276 112.628 446.707 112.628C447.155 112.628 447.545 112.802 447.876 113.15C448.208 113.498 448.374 113.979 448.374 114.593C448.374 115.107 448.249 115.588 448.001 116.036C447.768 116.483 447.445 116.848 447.03 117.13C446.616 117.429 446.151 117.62 445.637 117.702V116.782C446.085 116.699 446.45 116.508 446.732 116.21C447.03 115.928 447.18 115.588 447.18 115.19ZM463.799 115.737C462.638 115.737 461.61 115.472 460.714 114.941C459.835 114.41 459.147 113.672 458.649 112.727C458.152 111.782 457.903 110.679 457.903 109.418C457.903 108.175 458.144 107.08 458.625 106.135C459.122 105.173 459.802 104.427 460.664 103.896C461.527 103.349 462.53 103.075 463.675 103.075C464.769 103.075 465.723 103.315 466.535 103.796C467.365 104.277 468.003 104.949 468.451 105.811C468.915 106.657 469.147 107.652 469.147 108.797V109.642H458.848L458.898 108.399H467.431C467.431 107.238 467.083 106.309 466.386 105.612C465.706 104.899 464.802 104.543 463.675 104.543C462.845 104.543 462.116 104.733 461.485 105.115C460.872 105.496 460.399 106.044 460.067 106.757C459.736 107.453 459.57 108.282 459.57 109.244C459.57 110.836 459.935 112.072 460.664 112.951C461.411 113.83 462.464 114.269 463.824 114.269C464.802 114.269 465.607 114.062 466.237 113.648C466.867 113.233 467.29 112.628 467.506 111.832H469.147C468.832 113.092 468.219 114.062 467.307 114.742C466.394 115.405 465.225 115.737 463.799 115.737ZM470.872 112.055H472.514C472.514 112.752 472.763 113.308 473.26 113.722C473.758 114.12 474.421 114.319 475.25 114.319C476.179 114.319 476.9 114.137 477.415 113.772C477.945 113.39 478.211 112.876 478.211 112.23C478.211 111.732 478.07 111.334 477.788 111.035C477.506 110.737 477.008 110.496 476.295 110.314L474.23 109.792C473.185 109.526 472.406 109.12 471.892 108.573C471.378 108.025 471.121 107.345 471.121 106.533C471.121 105.836 471.303 105.231 471.668 104.717C472.033 104.186 472.539 103.78 473.185 103.498C473.849 103.216 474.612 103.075 475.474 103.075C476.32 103.075 477.058 103.224 477.688 103.523C478.318 103.821 478.808 104.244 479.156 104.791C479.521 105.322 479.712 105.961 479.728 106.707H478.061C478.045 105.994 477.804 105.446 477.34 105.065C476.876 104.684 476.237 104.493 475.424 104.493C474.579 104.493 473.924 104.667 473.459 105.015C473.011 105.364 472.787 105.861 472.787 106.508C472.787 107.437 473.443 108.067 474.753 108.399L476.818 108.921C477.862 109.186 478.625 109.576 479.106 110.09C479.604 110.604 479.852 111.293 479.852 112.155C479.852 112.868 479.662 113.498 479.28 114.046C478.899 114.593 478.36 115.016 477.663 115.314C476.983 115.596 476.187 115.737 475.275 115.737C473.932 115.737 472.862 115.405 472.066 114.742C471.27 114.062 470.872 113.167 470.872 112.055ZM482.678 120.688V103.398H484.171L484.345 105.836C484.776 104.907 485.39 104.219 486.186 103.771C486.999 103.307 487.902 103.075 488.898 103.075C490.058 103.075 491.053 103.349 491.883 103.896C492.712 104.443 493.35 105.189 493.798 106.135C494.246 107.08 494.47 108.158 494.47 109.369C494.47 110.579 494.246 111.666 493.798 112.628C493.367 113.589 492.737 114.352 491.908 114.916C491.095 115.464 490.092 115.737 488.898 115.737C487.869 115.737 486.965 115.522 486.186 115.09C485.406 114.643 484.809 113.988 484.395 113.125V120.688H482.678ZM484.42 109.418C484.42 110.331 484.586 111.152 484.917 111.881C485.249 112.594 485.722 113.158 486.335 113.573C486.965 113.988 487.72 114.195 488.599 114.195C489.478 114.195 490.224 113.988 490.838 113.573C491.452 113.158 491.916 112.594 492.231 111.881C492.563 111.152 492.729 110.331 492.729 109.418C492.729 108.49 492.563 107.669 492.231 106.956C491.916 106.226 491.452 105.662 490.838 105.264C490.224 104.849 489.478 104.642 488.599 104.642C487.72 104.642 486.965 104.849 486.335 105.264C485.722 105.662 485.249 106.226 484.917 106.956C484.586 107.669 484.42 108.49 484.42 109.418ZM502.256 115.737C501.095 115.737 500.067 115.472 499.171 114.941C498.292 114.41 497.604 113.672 497.106 112.727C496.609 111.782 496.36 110.679 496.36 109.418C496.36 108.175 496.601 107.08 497.082 106.135C497.579 105.173 498.259 104.427 499.121 103.896C499.984 103.349 500.987 103.075 502.132 103.075C503.226 103.075 504.18 103.315 504.992 103.796C505.822 104.277 506.46 104.949 506.908 105.811C507.372 106.657 507.604 107.652 507.604 108.797V109.642H497.305L497.355 108.399H505.888C505.888 107.238 505.54 106.309 504.843 105.612C504.163 104.899 503.259 104.543 502.132 104.543C501.302 104.543 500.573 104.733 499.942 105.115C499.329 105.496 498.856 106.044 498.524 106.757C498.193 107.453 498.027 108.282 498.027 109.244C498.027 110.836 498.392 112.072 499.121 112.951C499.868 113.83 500.921 114.269 502.281 114.269C503.259 114.269 504.064 114.062 504.694 113.648C505.324 113.233 505.747 112.628 505.963 111.832H507.604C507.289 113.092 506.676 114.062 505.764 114.742C504.851 115.405 503.682 115.737 502.256 115.737ZM509.503 109.443C509.503 108.183 509.744 107.08 510.225 106.135C510.722 105.173 511.402 104.427 512.264 103.896C513.143 103.349 514.163 103.075 515.324 103.075C516.717 103.075 517.887 103.448 518.832 104.194C519.794 104.941 520.391 105.936 520.623 107.18H518.907C518.674 106.35 518.235 105.712 517.588 105.264C516.941 104.816 516.195 104.592 515.349 104.592C514.553 104.592 513.84 104.791 513.21 105.189C512.58 105.587 512.082 106.151 511.717 106.881C511.369 107.594 511.195 108.44 511.195 109.418C511.195 110.38 511.361 111.218 511.692 111.931C512.024 112.644 512.488 113.2 513.085 113.598C513.699 113.996 514.412 114.195 515.225 114.195C516.137 114.195 516.925 113.971 517.588 113.523C518.251 113.059 518.699 112.437 518.931 111.657H520.673C520.49 112.47 520.142 113.183 519.628 113.797C519.114 114.41 518.475 114.891 517.712 115.24C516.966 115.571 516.137 115.737 515.225 115.737C514.08 115.737 513.077 115.48 512.215 114.966C511.369 114.435 510.705 113.697 510.225 112.752C509.744 111.807 509.503 110.704 509.503 109.443ZM523.273 115.439V103.398H524.99V115.439H523.273ZM524.119 100.09C523.771 100.09 523.472 99.9653 523.223 99.7165C522.975 99.4677 522.85 99.1692 522.85 98.8209C522.85 98.4727 522.975 98.1742 523.223 97.9254C523.472 97.66 523.771 97.5274 524.119 97.5274C524.467 97.5274 524.766 97.66 525.015 97.9254C525.28 98.1742 525.413 98.4727 525.413 98.8209C525.413 99.1692 525.28 99.4677 525.015 99.7165C524.766 99.9653 524.467 100.09 524.119 100.09ZM532.027 115.737C530.75 115.737 529.747 115.405 529.017 114.742C528.304 114.079 527.947 113.225 527.947 112.18C527.947 111.069 528.345 110.181 529.141 109.518C529.937 108.855 531.04 108.465 532.45 108.349L536.43 108.025V107.627C536.43 106.831 536.289 106.209 536.007 105.762C535.725 105.297 535.344 104.974 534.863 104.791C534.382 104.609 533.843 104.518 533.246 104.518C532.185 104.518 531.364 104.742 530.783 105.189C530.203 105.637 529.913 106.267 529.913 107.08H528.345C528.345 106.267 528.553 105.563 528.967 104.966C529.382 104.368 529.962 103.904 530.709 103.572C531.455 103.241 532.317 103.075 533.296 103.075C534.241 103.075 535.07 103.241 535.783 103.572C536.497 103.888 537.06 104.385 537.475 105.065C537.906 105.728 538.122 106.591 538.122 107.652V115.439H536.679L536.455 113.324C536.09 114.087 535.51 114.684 534.714 115.115C533.934 115.53 533.039 115.737 532.027 115.737ZM532.425 114.344C533.702 114.344 534.689 113.938 535.385 113.125C536.082 112.312 536.43 111.259 536.43 109.966V109.319L532.873 109.593C531.745 109.692 530.933 109.974 530.435 110.438C529.937 110.903 529.689 111.467 529.689 112.13C529.689 112.86 529.937 113.415 530.435 113.797C530.933 114.162 531.596 114.344 532.425 114.344ZM543.358 115.439H541.641V97.3035H543.358V115.439ZM548.799 115.439H547.083V97.3035H548.799V115.439ZM552.699 103.398L557.226 115.687L555.958 116.682L550.883 103.398H552.699ZM551.231 120.688V119.27H552.55C552.898 119.27 553.238 119.237 553.569 119.17C553.918 119.12 554.233 118.979 554.515 118.747C554.813 118.515 555.054 118.125 555.236 117.578L560.386 103.398H562.152L556.629 118.2C556.281 119.145 555.808 119.825 555.211 120.24C554.631 120.654 553.909 120.862 553.047 120.862C552.699 120.862 552.375 120.845 552.077 120.812C551.778 120.795 551.496 120.754 551.231 120.688ZM6.88519 154.688V137.398H8.37779L8.55193 139.836C8.98313 138.907 9.59676 138.219 10.3928 137.771C11.2055 137.307 12.1093 137.075 13.1044 137.075C14.2653 137.075 15.2604 137.349 16.0896 137.896C16.9188 138.443 17.5573 139.189 18.0051 140.135C18.4529 141.08 18.6768 142.158 18.6768 143.369C18.6768 144.579 18.4529 145.666 18.0051 146.628C17.5739 147.589 16.9437 148.352 16.1145 148.916C15.3018 149.464 14.2985 149.737 13.1044 149.737C12.0761 149.737 11.1723 149.522 10.3928 149.09C9.61334 148.643 9.0163 147.988 8.60168 147.125V154.688H6.88519ZM8.62656 143.418C8.62656 144.331 8.79241 145.152 9.1241 145.881C9.45579 146.594 9.92845 147.158 10.5421 147.573C11.1723 147.988 11.9269 148.195 12.8059 148.195C13.6848 148.195 14.4311 147.988 15.0448 147.573C15.6584 147.158 16.1228 146.594 16.4379 145.881C16.7696 145.152 16.9354 144.331 16.9354 143.418C16.9354 142.49 16.7696 141.669 16.4379 140.956C16.1228 140.226 15.6584 139.662 15.0448 139.264C14.4311 138.849 13.6848 138.642 12.8059 138.642C11.9269 138.642 11.1723 138.849 10.5421 139.264C9.92845 139.662 9.45579 140.226 9.1241 140.956C8.79241 141.669 8.62656 142.49 8.62656 143.418ZM20.3929 146.055H22.0348C22.0348 146.752 22.2835 147.308 22.7811 147.722C23.2786 148.12 23.942 148.319 24.7712 148.319C25.7 148.319 26.4214 148.137 26.9355 147.772C27.4662 147.39 27.7316 146.876 27.7316 146.23C27.7316 145.732 27.5906 145.334 27.3087 145.035C27.0267 144.737 26.5292 144.496 25.816 144.314L23.7513 143.792C22.7064 143.526 21.927 143.12 21.4128 142.573C20.8987 142.025 20.6417 141.345 20.6417 140.533C20.6417 139.836 20.8241 139.231 21.189 138.717C21.5538 138.186 22.0596 137.78 22.7064 137.498C23.3698 137.216 24.1327 137.075 24.9951 137.075C25.8409 137.075 26.5789 137.224 27.2091 137.523C27.8394 137.821 28.3286 138.244 28.6769 138.791C29.0417 139.322 29.2325 139.961 29.249 140.707H27.5823C27.5657 139.994 27.3252 139.446 26.8609 139.065C26.3965 138.684 25.758 138.493 24.9454 138.493C24.0995 138.493 23.4445 138.667 22.9801 139.015C22.5323 139.364 22.3084 139.861 22.3084 140.508C22.3084 141.437 22.9635 142.067 24.2737 142.399L26.3385 142.921C27.3833 143.186 28.1462 143.576 28.6271 144.09C29.1247 144.604 29.3734 145.293 29.3734 146.155C29.3734 146.868 29.1827 147.498 28.8013 148.046C28.4198 148.593 27.8808 149.016 27.1843 149.314C26.5043 149.596 25.7082 149.737 24.7961 149.737C23.4527 149.737 22.383 149.405 21.587 148.742C20.7909 148.062 20.3929 147.167 20.3929 146.055ZM31.3535 143.418C31.3535 142.175 31.6188 141.08 32.1495 140.135C32.6802 139.189 33.4099 138.443 34.3387 137.896C35.2674 137.349 36.3122 137.075 37.4732 137.075C38.6507 137.075 39.6955 137.349 40.6076 137.896C41.5364 138.443 42.2661 139.189 42.7968 140.135C43.3275 141.08 43.5929 142.175 43.5929 143.418C43.5929 144.629 43.3275 145.715 42.7968 146.677C42.2661 147.623 41.5364 148.369 40.6076 148.916C39.6955 149.464 38.6507 149.737 37.4732 149.737C36.3122 149.737 35.2674 149.464 34.3387 148.916C33.4099 148.369 32.6802 147.623 32.1495 146.677C31.6188 145.715 31.3535 144.629 31.3535 143.418ZM33.0948 143.394C33.0948 144.339 33.2773 145.176 33.6421 145.906C34.0236 146.619 34.5377 147.183 35.1845 147.598C35.8479 147.996 36.6108 148.195 37.4732 148.195C38.3356 148.195 39.0902 147.996 39.7369 147.598C40.4003 147.183 40.9144 146.619 41.2793 145.906C41.6608 145.176 41.8515 144.339 41.8515 143.394C41.8515 142.465 41.6608 141.644 41.2793 140.931C40.9144 140.218 40.4003 139.654 39.7369 139.239C39.0902 138.825 38.3356 138.617 37.4732 138.617C36.6108 138.617 35.8479 138.825 35.1845 139.239C34.5377 139.654 34.0236 140.218 33.6421 140.931C33.2773 141.644 33.0948 142.465 33.0948 143.394ZM52.6321 137.249V138.791H51.6868C50.5756 138.791 49.6883 139.131 49.0249 139.811C48.3781 140.491 48.0547 141.412 48.0547 142.573V149.439H46.3382V137.398H47.9552L48.1045 139.762H47.9304C48.0962 138.982 48.5025 138.352 49.1493 137.871C49.7961 137.373 50.5839 137.125 51.5126 137.125C51.695 137.125 51.8775 137.133 52.0599 137.15C52.2423 137.166 52.4331 137.199 52.6321 137.249ZM54.9139 149.439V137.398H56.6304V149.439H54.9139ZM55.7597 134.09C55.4115 134.09 55.1129 133.965 54.8642 133.717C54.6154 133.468 54.491 133.169 54.491 132.821C54.491 132.473 54.6154 132.174 54.8642 131.925C55.1129 131.66 55.4115 131.527 55.7597 131.527C56.108 131.527 56.4065 131.66 56.6553 131.925C56.9207 132.174 57.0533 132.473 57.0533 132.821C57.0533 133.169 56.9207 133.468 56.6553 133.717C56.4065 133.965 56.108 134.09 55.7597 134.09ZM63.6678 149.737C62.3908 149.737 61.3875 149.405 60.6578 148.742C59.9446 148.079 59.5881 147.225 59.5881 146.18C59.5881 145.069 59.9861 144.181 60.7821 143.518C61.5782 142.855 62.6811 142.465 64.0908 142.349L68.071 142.025V141.627C68.071 140.831 67.9301 140.209 67.6481 139.762C67.3662 139.297 66.9848 138.974 66.5038 138.791C66.0229 138.609 65.4839 138.518 64.8868 138.518C63.8254 138.518 63.0045 138.742 62.424 139.189C61.8435 139.637 61.5533 140.267 61.5533 141.08H59.9861C59.9861 140.267 60.1934 139.563 60.608 138.966C61.0226 138.368 61.6031 137.904 62.3494 137.572C63.0957 137.241 63.9581 137.075 64.9366 137.075C65.8819 137.075 66.7111 137.241 67.4242 137.572C68.1374 137.888 68.7013 138.385 69.1159 139.065C69.5471 139.728 69.7627 140.591 69.7627 141.652V149.439H68.3198L68.0959 147.324C67.7311 148.087 67.1506 148.684 66.3545 149.115C65.5751 149.53 64.6795 149.737 63.6678 149.737ZM64.0659 148.344C65.3429 148.344 66.3297 147.938 67.0262 147.125C67.7228 146.312 68.071 145.259 68.071 143.966V143.319L64.5137 143.593C63.3859 143.692 62.5733 143.974 62.0757 144.438C61.5782 144.903 61.3294 145.467 61.3294 146.13C61.3294 146.86 61.5782 147.415 62.0757 147.797C62.5733 148.162 63.2366 148.344 64.0659 148.344ZM72.1872 146.055H73.8291C73.8291 146.752 74.0778 147.308 74.5754 147.722C75.0729 148.12 75.7363 148.319 76.5655 148.319C77.4942 148.319 78.2157 148.137 78.7298 147.772C79.2605 147.39 79.5258 146.876 79.5258 146.23C79.5258 145.732 79.3849 145.334 79.1029 145.035C78.821 144.737 78.3235 144.496 77.6103 144.314L75.5455 143.792C74.5007 143.526 73.7213 143.12 73.2071 142.573C72.693 142.025 72.4359 141.345 72.4359 140.533C72.4359 139.836 72.6184 139.231 72.9832 138.717C73.3481 138.186 73.8539 137.78 74.5007 137.498C75.1641 137.216 75.927 137.075 76.7894 137.075C77.6352 137.075 78.3732 137.224 79.0034 137.523C79.6336 137.821 80.1229 138.244 80.4712 138.791C80.836 139.322 81.0267 139.961 81.0433 140.707H79.3766C79.36 139.994 79.1195 139.446 78.6552 139.065C78.1908 138.684 77.5523 138.493 76.7396 138.493C75.8938 138.493 75.2387 138.667 74.7744 139.015C74.3266 139.364 74.1027 139.861 74.1027 140.508C74.1027 141.437 74.7578 142.067 76.068 142.399L78.1327 142.921C79.1776 143.186 79.9405 143.576 80.4214 144.09C80.9189 144.604 81.1677 145.293 81.1677 146.155C81.1677 146.868 80.977 147.498 80.5955 148.046C80.2141 148.593 79.6751 149.016 78.9785 149.314C78.2986 149.596 77.5025 149.737 76.5904 149.737C75.247 149.737 74.1773 149.405 73.3813 148.742C72.5852 148.062 72.1872 147.167 72.1872 146.055ZM83.9936 149.439V137.398H85.7101V149.439H83.9936ZM84.8394 134.09C84.4911 134.09 84.1926 133.965 83.9438 133.717C83.695 133.468 83.5706 133.169 83.5706 132.821C83.5706 132.473 83.695 132.174 83.9438 131.925C84.1926 131.66 84.4911 131.527 84.8394 131.527C85.1876 131.527 85.4862 131.66 85.7349 131.925C86.0003 132.174 86.133 132.473 86.133 132.821C86.133 133.169 86.0003 133.468 85.7349 133.717C85.4862 133.965 85.1876 134.09 84.8394 134.09ZM88.2696 146.055H89.9115C89.9115 146.752 90.1603 147.308 90.6578 147.722C91.1553 148.12 91.8187 148.319 92.648 148.319C93.5767 148.319 94.2981 148.137 94.8122 147.772C95.3429 147.39 95.6083 146.876 95.6083 146.23C95.6083 145.732 95.4673 145.334 95.1854 145.035C94.9035 144.737 94.4059 144.496 93.6928 144.314L91.628 143.792C90.5832 143.526 89.8037 143.12 89.2896 142.573C88.7755 142.025 88.5184 141.345 88.5184 140.533C88.5184 139.836 88.7008 139.231 89.0657 138.717C89.4306 138.186 89.9364 137.78 90.5832 137.498C91.2466 137.216 92.0095 137.075 92.8718 137.075C93.7177 137.075 94.4557 137.224 95.0859 137.523C95.7161 137.821 96.2053 138.244 96.5536 138.791C96.9185 139.322 97.1092 139.961 97.1258 140.707H95.459C95.4425 139.994 95.202 139.446 94.7376 139.065C94.2732 138.684 93.6347 138.493 92.8221 138.493C91.9763 138.493 91.3212 138.667 90.8568 139.015C90.409 139.364 90.1852 139.861 90.1852 140.508C90.1852 141.437 90.8402 142.067 92.1504 142.399L94.2152 142.921C95.26 143.186 96.0229 143.576 96.5039 144.09C97.0014 144.604 97.2502 145.293 97.2502 146.155C97.2502 146.868 97.0594 147.498 96.678 148.046C96.2966 148.593 95.7576 149.016 95.061 149.314C94.381 149.596 93.585 149.737 92.6728 149.737C91.3295 149.737 90.2598 149.405 89.4637 148.742C88.6677 148.062 88.2696 147.167 88.2696 146.055ZM101.723 149.19H101.847C101.764 149.273 101.656 149.339 101.524 149.389C101.407 149.439 101.258 149.464 101.076 149.464C100.744 149.464 100.446 149.347 100.18 149.115C99.9148 148.866 99.7822 148.535 99.7822 148.12C99.7822 147.689 99.9148 147.332 100.18 147.05C100.462 146.769 100.819 146.628 101.25 146.628C101.698 146.628 102.087 146.802 102.419 147.15C102.751 147.498 102.917 147.979 102.917 148.593C102.917 149.107 102.792 149.588 102.543 150.036C102.311 150.483 101.988 150.848 101.573 151.13C101.159 151.429 100.694 151.62 100.18 151.702V150.782C100.628 150.699 100.993 150.508 101.275 150.21C101.573 149.928 101.723 149.588 101.723 149.19ZM112.272 146.055H113.914C113.914 146.752 114.163 147.308 114.66 147.722C115.158 148.12 115.821 148.319 116.65 148.319C117.579 148.319 118.3 148.137 118.814 147.772C119.345 147.39 119.611 146.876 119.611 146.23C119.611 145.732 119.47 145.334 119.188 145.035C118.906 144.737 118.408 144.496 117.695 144.314L115.63 143.792C114.585 143.526 113.806 143.12 113.292 142.573C112.778 142.025 112.521 141.345 112.521 140.533C112.521 139.836 112.703 139.231 113.068 138.717C113.433 138.186 113.939 137.78 114.585 137.498C115.249 137.216 116.012 137.075 116.874 137.075C117.72 137.075 118.458 137.224 119.088 137.523C119.718 137.821 120.208 138.244 120.556 138.791C120.921 139.322 121.111 139.961 121.128 140.707H119.461C119.445 139.994 119.204 139.446 118.74 139.065C118.275 138.684 117.637 138.493 116.824 138.493C115.979 138.493 115.323 138.667 114.859 139.015C114.411 139.364 114.187 139.861 114.187 140.508C114.187 141.437 114.842 142.067 116.153 142.399L118.217 142.921C119.262 143.186 120.025 143.576 120.506 144.09C121.004 144.604 121.252 145.293 121.252 146.155C121.252 146.868 121.062 147.498 120.68 148.046C120.299 148.593 119.76 149.016 119.063 149.314C118.383 149.596 117.587 149.737 116.675 149.737C115.332 149.737 114.262 149.405 113.466 148.742C112.67 148.062 112.272 147.167 112.272 146.055ZM123.232 143.443C123.232 142.183 123.473 141.08 123.954 140.135C124.451 139.173 125.131 138.427 125.994 137.896C126.873 137.349 127.893 137.075 129.054 137.075C130.447 137.075 131.616 137.448 132.561 138.194C133.523 138.941 134.12 139.936 134.352 141.18H132.636C132.404 140.35 131.964 139.712 131.317 139.264C130.671 138.816 129.924 138.592 129.078 138.592C128.282 138.592 127.569 138.791 126.939 139.189C126.309 139.587 125.811 140.151 125.446 140.881C125.098 141.594 124.924 142.44 124.924 143.418C124.924 144.38 125.09 145.218 125.422 145.931C125.753 146.644 126.218 147.2 126.815 147.598C127.428 147.996 128.141 148.195 128.954 148.195C129.866 148.195 130.654 147.971 131.317 147.523C131.981 147.059 132.429 146.437 132.661 145.657H134.402C134.22 146.47 133.871 147.183 133.357 147.797C132.843 148.41 132.205 148.891 131.442 149.24C130.695 149.571 129.866 149.737 128.954 149.737C127.81 149.737 126.806 149.48 125.944 148.966C125.098 148.435 124.435 147.697 123.954 146.752C123.473 145.807 123.232 144.704 123.232 143.443ZM140.46 149.737C139.183 149.737 138.18 149.405 137.45 148.742C136.737 148.079 136.381 147.225 136.381 146.18C136.381 145.069 136.779 144.181 137.575 143.518C138.371 142.855 139.474 142.465 140.883 142.349L144.864 142.025V141.627C144.864 140.831 144.723 140.209 144.441 139.762C144.159 139.297 143.777 138.974 143.296 138.791C142.815 138.609 142.276 138.518 141.679 138.518C140.618 138.518 139.797 138.742 139.217 139.189C138.636 139.637 138.346 140.267 138.346 141.08H136.779C136.779 140.267 136.986 139.563 137.401 138.966C137.815 138.368 138.396 137.904 139.142 137.572C139.888 137.241 140.751 137.075 141.729 137.075C142.674 137.075 143.504 137.241 144.217 137.572C144.93 137.888 145.494 138.385 145.908 139.065C146.34 139.728 146.555 140.591 146.555 141.652V149.439H145.112L144.888 147.324C144.524 148.087 143.943 148.684 143.147 149.115C142.368 149.53 141.472 149.737 140.46 149.737ZM140.858 148.344C142.135 148.344 143.122 147.938 143.819 147.125C144.515 146.312 144.864 145.259 144.864 143.966V143.319L141.306 143.593C140.178 143.692 139.366 143.974 138.868 144.438C138.371 144.903 138.122 145.467 138.122 146.13C138.122 146.86 138.371 147.415 138.868 147.797C139.366 148.162 140.029 148.344 140.858 148.344ZM151.492 149.439H150V131.303H151.716V139.737C152.131 138.841 152.728 138.178 153.507 137.747C154.303 137.299 155.216 137.075 156.244 137.075C157.421 137.075 158.416 137.357 159.229 137.921C160.058 138.468 160.688 139.223 161.12 140.184C161.567 141.146 161.791 142.233 161.791 143.443C161.791 144.637 161.567 145.715 161.12 146.677C160.672 147.623 160.033 148.369 159.204 148.916C158.375 149.464 157.371 149.737 156.194 149.737C155.199 149.737 154.303 149.513 153.507 149.065C152.711 148.601 152.098 147.905 151.666 146.976L151.492 149.439ZM151.741 143.394C151.741 144.322 151.907 145.152 152.239 145.881C152.57 146.594 153.043 147.158 153.657 147.573C154.287 147.971 155.041 148.17 155.92 148.17C156.799 148.17 157.546 147.971 158.159 147.573C158.773 147.158 159.237 146.594 159.552 145.881C159.884 145.152 160.05 144.322 160.05 143.394C160.05 142.465 159.884 141.644 159.552 140.931C159.237 140.218 158.773 139.654 158.159 139.239C157.546 138.825 156.799 138.617 155.92 138.617C155.041 138.617 154.287 138.825 153.657 139.239C153.043 139.654 152.57 140.218 152.239 140.931C151.907 141.644 151.741 142.465 151.741 143.394ZM164.527 149.439V137.398H166.244V149.439H164.527ZM165.373 134.09C165.025 134.09 164.726 133.965 164.478 133.717C164.229 133.468 164.104 133.169 164.104 132.821C164.104 132.473 164.229 132.174 164.478 131.925C164.726 131.66 165.025 131.527 165.373 131.527C165.721 131.527 166.02 131.66 166.269 131.925C166.534 132.174 166.667 132.473 166.667 132.821C166.667 133.169 166.534 133.468 166.269 133.717C166.02 133.965 165.721 134.09 165.373 134.09ZM174.873 149.737C173.712 149.737 172.684 149.472 171.789 148.941C170.91 148.41 170.221 147.672 169.724 146.727C169.226 145.782 168.978 144.679 168.978 143.418C168.978 142.175 169.218 141.08 169.699 140.135C170.197 139.173 170.877 138.427 171.739 137.896C172.601 137.349 173.605 137.075 174.749 137.075C175.844 137.075 176.797 137.315 177.61 137.796C178.439 138.277 179.078 138.949 179.525 139.811C179.99 140.657 180.222 141.652 180.222 142.797V143.642H169.923L169.973 142.399H178.505C178.505 141.238 178.157 140.309 177.461 139.612C176.781 138.899 175.877 138.543 174.749 138.543C173.92 138.543 173.19 138.733 172.56 139.115C171.946 139.496 171.474 140.044 171.142 140.757C170.81 141.453 170.644 142.282 170.644 143.244C170.644 144.836 171.009 146.072 171.739 146.951C172.485 147.83 173.538 148.269 174.898 148.269C175.877 148.269 176.681 148.062 177.311 147.648C177.942 147.233 178.364 146.628 178.58 145.832H180.222C179.907 147.092 179.293 148.062 178.381 148.742C177.469 149.405 176.3 149.737 174.873 149.737ZM181.946 146.055H183.588C183.588 146.752 183.837 147.308 184.335 147.722C184.832 148.12 185.495 148.319 186.325 148.319C187.253 148.319 187.975 148.137 188.489 147.772C189.02 147.39 189.285 146.876 189.285 146.23C189.285 145.732 189.144 145.334 188.862 145.035C188.58 144.737 188.083 144.496 187.369 144.314L185.305 143.792C184.26 143.526 183.48 143.12 182.966 142.573C182.452 142.025 182.195 141.345 182.195 140.533C182.195 139.836 182.378 139.231 182.742 138.717C183.107 138.186 183.613 137.78 184.26 137.498C184.923 137.216 185.686 137.075 186.549 137.075C187.394 137.075 188.132 137.224 188.763 137.523C189.393 137.821 189.882 138.244 190.23 138.791C190.595 139.322 190.786 139.961 190.802 140.707H189.136C189.119 139.994 188.879 139.446 188.414 139.065C187.95 138.684 187.311 138.493 186.499 138.493C185.653 138.493 184.998 138.667 184.534 139.015C184.086 139.364 183.862 139.861 183.862 140.508C183.862 141.437 184.517 142.067 185.827 142.399L187.892 142.921C188.937 143.186 189.7 143.576 190.181 144.09C190.678 144.604 190.927 145.293 190.927 146.155C190.927 146.868 190.736 147.498 190.355 148.046C189.973 148.593 189.434 149.016 188.738 149.314C188.058 149.596 187.262 149.737 186.35 149.737C185.006 149.737 183.936 149.405 183.14 148.742C182.344 148.062 181.946 147.167 181.946 146.055ZM195.399 149.19H195.524C195.441 149.273 195.333 149.339 195.2 149.389C195.084 149.439 194.935 149.464 194.752 149.464C194.421 149.464 194.122 149.347 193.857 149.115C193.592 148.866 193.459 148.535 193.459 148.12C193.459 147.689 193.592 147.332 193.857 147.05C194.139 146.769 194.495 146.628 194.927 146.628C195.374 146.628 195.764 146.802 196.096 147.15C196.427 147.498 196.593 147.979 196.593 148.593C196.593 149.107 196.469 149.588 196.22 150.036C195.988 150.483 195.665 150.848 195.25 151.13C194.835 151.429 194.371 151.62 193.857 151.702V150.782C194.305 150.699 194.67 150.508 194.951 150.21C195.25 149.928 195.399 149.588 195.399 149.19ZM206.123 143.418C206.123 142.175 206.388 141.08 206.919 140.135C207.449 139.189 208.179 138.443 209.108 137.896C210.037 137.349 211.081 137.075 212.242 137.075C213.42 137.075 214.465 137.349 215.377 137.896C216.306 138.443 217.035 139.189 217.566 140.135C218.097 141.08 218.362 142.175 218.362 143.418C218.362 144.629 218.097 145.715 217.566 146.677C217.035 147.623 216.306 148.369 215.377 148.916C214.465 149.464 213.42 149.737 212.242 149.737C211.081 149.737 210.037 149.464 209.108 148.916C208.179 148.369 207.449 147.623 206.919 146.677C206.388 145.715 206.123 144.629 206.123 143.418ZM207.864 143.394C207.864 144.339 208.047 145.176 208.411 145.906C208.793 146.619 209.307 147.183 209.954 147.598C210.617 147.996 211.38 148.195 212.242 148.195C213.105 148.195 213.859 147.996 214.506 147.598C215.17 147.183 215.684 146.619 216.049 145.906C216.43 145.176 216.621 144.339 216.621 143.394C216.621 142.465 216.43 141.644 216.049 140.931C215.684 140.218 215.17 139.654 214.506 139.239C213.859 138.825 213.105 138.617 212.242 138.617C211.38 138.617 210.617 138.825 209.954 139.239C209.307 139.654 208.793 140.218 208.411 140.931C208.047 141.644 207.864 142.465 207.864 143.394ZM227.401 137.249V138.791H226.456C225.345 138.791 224.458 139.131 223.794 139.811C223.147 140.491 222.824 141.412 222.824 142.573V149.439H221.107V137.398H222.724L222.874 139.762H222.7C222.865 138.982 223.272 138.352 223.919 137.871C224.565 137.373 225.353 137.125 226.282 137.125C226.464 137.125 226.647 137.133 226.829 137.15C227.012 137.166 227.202 137.199 227.401 137.249ZM238.299 149.439H236.583V137.398H238.075L238.324 139.662L238.075 139.587C238.324 138.825 238.788 138.219 239.468 137.771C240.165 137.307 240.978 137.075 241.906 137.075C242.984 137.075 243.88 137.373 244.593 137.97C245.323 138.551 245.787 139.347 245.986 140.359H245.613C245.779 139.347 246.227 138.551 246.956 137.97C247.703 137.373 248.631 137.075 249.742 137.075C251.036 137.075 252.081 137.473 252.877 138.269C253.673 139.065 254.071 140.16 254.071 141.553V149.439H252.404V141.901C252.404 140.873 252.139 140.068 251.608 139.488C251.078 138.907 250.348 138.617 249.419 138.617C248.756 138.617 248.184 138.775 247.703 139.09C247.222 139.388 246.848 139.795 246.583 140.309C246.334 140.823 246.21 141.387 246.21 142V149.439H244.518V141.876C244.518 140.848 244.245 140.052 243.697 139.488C243.167 138.924 242.445 138.642 241.533 138.642C240.87 138.642 240.289 138.791 239.792 139.09C239.311 139.388 238.938 139.795 238.672 140.309C238.424 140.806 238.299 141.362 238.299 141.976V149.439ZM260.982 149.737C259.705 149.737 258.701 149.405 257.972 148.742C257.258 148.079 256.902 147.225 256.902 146.18C256.902 145.069 257.3 144.181 258.096 143.518C258.892 142.855 259.995 142.465 261.405 142.349L265.385 142.025V141.627C265.385 140.831 265.244 140.209 264.962 139.762C264.68 139.297 264.299 138.974 263.818 138.791C263.337 138.609 262.798 138.518 262.201 138.518C261.139 138.518 260.318 138.742 259.738 139.189C259.157 139.637 258.867 140.267 258.867 141.08H257.3C257.3 140.267 257.507 139.563 257.922 138.966C258.336 138.368 258.917 137.904 259.663 137.572C260.41 137.241 261.272 137.075 262.25 137.075C263.196 137.075 264.025 137.241 264.738 137.572C265.451 137.888 266.015 138.385 266.43 139.065C266.861 139.728 267.077 140.591 267.077 141.652V149.439H265.634L265.41 147.324C265.045 148.087 264.464 148.684 263.668 149.115C262.889 149.53 261.993 149.737 260.982 149.737ZM261.38 148.344C262.657 148.344 263.644 147.938 264.34 147.125C265.037 146.312 265.385 145.259 265.385 143.966V143.319L261.828 143.593C260.7 143.692 259.887 143.974 259.39 144.438C258.892 144.903 258.643 145.467 258.643 146.13C258.643 146.86 258.892 147.415 259.39 147.797C259.887 148.162 260.551 148.344 261.38 148.344ZM272.237 149.439H270.521V137.398H272.014L272.262 139.488C272.66 138.725 273.224 138.136 273.954 137.722C274.7 137.29 275.513 137.075 276.392 137.075C278.05 137.075 279.244 137.531 279.974 138.443C280.704 139.355 281.069 140.566 281.069 142.075V149.439H279.352V142.448C279.352 141.039 279.054 140.052 278.457 139.488C277.876 138.924 277.088 138.642 276.093 138.642C274.866 138.642 273.913 139.057 273.233 139.886C272.569 140.699 272.237 141.785 272.237 143.145V149.439ZM283.669 143.07C283.669 141.976 283.893 140.981 284.341 140.085C284.788 139.173 285.435 138.443 286.281 137.896C287.127 137.349 288.138 137.075 289.316 137.075C290.46 137.075 291.439 137.357 292.251 137.921C293.064 138.485 293.645 139.297 293.993 140.359L293.719 140.707L293.943 137.398H295.436V149.065C295.436 150.26 295.195 151.296 294.714 152.175C294.233 153.071 293.553 153.759 292.674 154.24C291.812 154.737 290.792 154.986 289.615 154.986C288.072 154.986 286.795 154.572 285.783 153.742C284.772 152.913 284.142 151.777 283.893 150.334H285.609C285.792 151.313 286.231 152.067 286.928 152.598C287.641 153.145 288.545 153.419 289.639 153.419C290.883 153.419 291.878 153.037 292.625 152.275C293.371 151.512 293.744 150.5 293.744 149.24V145.458L293.993 145.782C293.645 146.793 293.039 147.598 292.177 148.195C291.331 148.775 290.336 149.065 289.192 149.065C288.047 149.065 287.06 148.792 286.231 148.245C285.402 147.697 284.764 146.976 284.316 146.08C283.885 145.168 283.669 144.165 283.669 143.07ZM285.385 143.045C285.385 143.875 285.543 144.629 285.858 145.309C286.19 145.989 286.654 146.528 287.251 146.926C287.865 147.324 288.595 147.523 289.44 147.523C290.303 147.523 291.041 147.332 291.654 146.951C292.285 146.553 292.766 146.022 293.097 145.359C293.429 144.679 293.595 143.908 293.595 143.045C293.595 142.183 293.429 141.42 293.097 140.757C292.782 140.093 292.318 139.571 291.704 139.189C291.107 138.791 290.361 138.592 289.465 138.592C288.603 138.592 287.865 138.8 287.251 139.214C286.654 139.612 286.19 140.151 285.858 140.831C285.543 141.495 285.385 142.233 285.385 143.045ZM304.068 149.737C302.907 149.737 301.878 149.472 300.983 148.941C300.104 148.41 299.416 147.672 298.918 146.727C298.421 145.782 298.172 144.679 298.172 143.418C298.172 142.175 298.412 141.08 298.893 140.135C299.391 139.173 300.071 138.427 300.933 137.896C301.795 137.349 302.799 137.075 303.943 137.075C305.038 137.075 305.991 137.315 306.804 137.796C307.633 138.277 308.272 138.949 308.72 139.811C309.184 140.657 309.416 141.652 309.416 142.797V143.642H299.117L299.167 142.399H307.7C307.7 141.238 307.351 140.309 306.655 139.612C305.975 138.899 305.071 138.543 303.943 138.543C303.114 138.543 302.384 138.733 301.754 139.115C301.14 139.496 300.668 140.044 300.336 140.757C300.004 141.453 299.839 142.282 299.839 143.244C299.839 144.836 300.203 146.072 300.933 146.951C301.679 147.83 302.733 148.269 304.092 148.269C305.071 148.269 305.875 148.062 306.505 147.648C307.136 147.233 307.559 146.628 307.774 145.832H309.416C309.101 147.092 308.487 148.062 307.575 148.742C306.663 149.405 305.494 149.737 304.068 149.737ZM312.875 149.712C312.46 149.712 312.096 149.563 311.781 149.265C311.465 148.966 311.308 148.609 311.308 148.195C311.308 147.764 311.465 147.399 311.781 147.1C312.096 146.785 312.46 146.628 312.875 146.628C313.306 146.628 313.671 146.785 313.97 147.1C314.285 147.399 314.442 147.764 314.442 148.195C314.442 148.609 314.285 148.966 313.97 149.265C313.671 149.563 313.306 149.712 312.875 149.712Z" fill="black"/>
<circle cx="82.2439" cy="16.5933" r="1.45347" fill="black"/>
</svg>
