<svg width="799" height="164" viewBox="0 0 799 164" fill="none" xmlns="http://www.w3.org/2000/svg">
<path d="M114.064 31.9699L98.8182 32V29.1133L106.005 23.0392C106.747 22.4178 107.368 21.8464 107.869 21.3252C108.39 20.804 108.801 20.3129 109.102 19.8518C109.403 19.3907 109.623 18.9297 109.764 18.4686C109.904 18.0075 109.974 17.5064 109.974 16.9651C109.974 15.7222 109.653 14.76 109.012 14.0784C108.37 13.3968 107.468 13.056 106.306 13.056C105.103 13.056 104.151 13.457 103.449 14.2588C102.747 15.0607 102.386 16.1632 102.366 17.5665H98.5475C98.5676 15.9628 98.8984 14.5695 99.5399 13.3868C100.181 12.184 101.083 11.2619 102.246 10.6204C103.409 9.95885 104.762 9.62808 106.306 9.62808C107.869 9.62808 109.212 9.91876 110.335 10.5001C111.478 11.0614 112.36 11.8733 112.981 12.9358C113.602 13.9982 113.913 15.2712 113.913 16.7546C113.913 17.5164 113.803 18.2481 113.582 18.9497C113.382 19.6313 113.071 20.3029 112.65 20.9644C112.229 21.6059 111.708 22.2574 111.087 22.9189C110.465 23.5805 109.734 24.2721 108.892 24.9937L103.539 29.5643L102.156 28.3916H114.064V31.9699ZM127.651 15.3714C127.651 16.494 127.401 17.4963 126.899 18.3784C126.418 19.2404 125.747 19.922 124.885 20.4231C124.023 20.9042 123.03 21.1448 121.908 21.1448C120.805 21.1448 119.813 20.9042 118.931 20.4231C118.069 19.922 117.387 19.2404 116.886 18.3784C116.405 17.4963 116.164 16.494 116.164 15.3714C116.164 14.2488 116.405 13.2565 116.886 12.3945C117.387 11.5125 118.069 10.8309 118.931 10.3498C119.813 9.84859 120.805 9.59801 121.908 9.59801C123.03 9.59801 124.023 9.84859 124.885 10.3498C125.747 10.8309 126.418 11.5125 126.899 12.3945C127.401 13.2565 127.651 14.2488 127.651 15.3714ZM124.734 15.3714C124.734 14.5094 124.474 13.8078 123.953 13.2665C123.431 12.7052 122.75 12.4246 121.908 12.4246C121.066 12.4246 120.384 12.7052 119.863 13.2665C119.362 13.8078 119.111 14.5094 119.111 15.3714C119.111 16.2334 119.362 16.9451 119.863 17.5064C120.384 18.0677 121.066 18.3483 121.908 18.3483C122.75 18.3483 123.431 18.0677 123.953 17.5064C124.474 16.9451 124.734 16.2334 124.734 15.3714ZM139.709 10.0491L123.02 32H119.352L136.041 10.0491H139.709ZM142.927 26.6175C142.927 27.7401 142.676 28.7424 142.175 29.6245C141.694 30.4865 141.022 31.1681 140.16 31.6692C139.318 32.1503 138.336 32.3909 137.213 32.3909C136.091 32.3909 135.098 32.1503 134.236 31.6692C133.374 31.1681 132.693 30.4865 132.192 29.6245C131.711 28.7424 131.47 27.7401 131.47 26.6175C131.47 25.4949 131.711 24.5026 132.192 23.6406C132.693 22.7586 133.374 22.077 134.236 21.5959C135.098 21.0947 136.091 20.8441 137.213 20.8441C138.336 20.8441 139.318 21.0947 140.16 21.5959C141.022 22.077 141.694 22.7586 142.175 23.6406C142.676 24.5026 142.927 25.4949 142.927 26.6175ZM140.01 26.6175C140.01 25.7355 139.749 25.0238 139.228 24.4826C138.727 23.9413 138.055 23.6707 137.213 23.6707C136.371 23.6707 135.69 23.9413 135.169 24.4826C134.647 25.0238 134.387 25.7355 134.387 26.6175C134.387 27.4795 134.647 28.1912 135.169 28.7525C135.69 29.2937 136.371 29.5643 137.213 29.5643C138.035 29.5643 138.707 29.2937 139.228 28.7525C139.749 28.1912 140.01 27.4795 140.01 26.6175ZM153.461 24.7231C153.461 23.2196 153.782 21.8966 154.423 20.7539C155.065 19.6112 155.947 18.7092 157.069 18.0476C158.192 17.3861 159.455 17.0553 160.858 17.0553C162.281 17.0553 163.544 17.3861 164.647 18.0476C165.769 18.7092 166.651 19.6112 167.293 20.7539C167.934 21.8966 168.255 23.2196 168.255 24.7231C168.255 26.1865 167.934 27.4996 167.293 28.6623C166.651 29.8049 165.769 30.707 164.647 31.3685C163.544 32.0301 162.281 32.3608 160.858 32.3608C159.455 32.3608 158.192 32.0301 157.069 31.3685C155.947 30.707 155.065 29.8049 154.423 28.6623C153.782 27.4996 153.461 26.1865 153.461 24.7231ZM155.566 24.693C155.566 25.8357 155.786 26.848 156.227 27.7301C156.688 28.5921 157.31 29.2737 158.092 29.7748C158.893 30.256 159.816 30.4965 160.858 30.4965C161.9 30.4965 162.813 30.256 163.594 29.7748C164.396 29.2737 165.018 28.5921 165.459 27.7301C165.92 26.848 166.15 25.8357 166.15 24.693C166.15 23.5704 165.92 22.5781 165.459 21.7161C165.018 20.8541 164.396 20.1726 163.594 19.6714C162.813 19.1702 161.9 18.9196 160.858 18.9196C159.816 18.9196 158.893 19.1702 158.092 19.6714C157.31 20.1726 156.688 20.8541 156.227 21.7161C155.786 22.5781 155.566 23.5704 155.566 24.693ZM169.832 17.4462H177.56V19.1903H169.832V17.4462ZM177.681 10.1994V11.9735C177.54 11.9735 177.36 11.9735 177.139 11.9735C176.919 11.9735 176.688 11.9735 176.448 11.9735C175.526 11.9735 174.904 12.2041 174.583 12.6651C174.283 13.1062 174.132 13.7577 174.132 14.6197V32H172.058V14.6197C172.058 13.5372 172.238 12.6651 172.599 12.0036C172.96 11.322 173.441 10.8309 174.042 10.5302C174.664 10.2295 175.345 10.0791 176.087 10.0791C176.348 10.0791 176.618 10.0892 176.899 10.1092C177.179 10.1292 177.44 10.1593 177.681 10.1994ZM187.099 17.4462H194.977V19.1903H187.099V17.4462ZM192.061 32H190.016V12.8455H192.061V32ZM199.754 31.9699H197.679V10.0791H199.754V19.9721C200.215 19.09 200.877 18.3884 201.739 17.8672C202.621 17.3259 203.673 17.0553 204.896 17.0553C206.82 17.0553 208.224 17.6066 209.106 18.7092C209.988 19.8117 210.429 21.2751 210.429 23.0993V32H208.354V23.5504C208.354 22.4077 208.194 21.5056 207.873 20.8441C207.552 20.1625 207.101 19.6814 206.52 19.4008C205.938 19.1001 205.267 18.9497 204.505 18.9497C203.463 18.9497 202.591 19.1802 201.889 19.6413C201.187 20.1024 200.656 20.7238 200.295 21.5056C199.934 22.2674 199.754 23.1194 199.754 24.0616V31.9699ZM220.668 32.3608C219.265 32.3608 218.022 32.0401 216.94 31.3986C215.877 30.7571 215.045 29.865 214.444 28.7224C213.842 27.5797 213.542 26.2466 213.542 24.7231C213.542 23.2196 213.832 21.8966 214.414 20.7539C215.015 19.5912 215.837 18.6891 216.879 18.0476C217.922 17.3861 219.135 17.0553 220.518 17.0553C221.841 17.0553 222.994 17.346 223.976 17.9273C224.978 18.5087 225.75 19.3206 226.291 20.363C226.853 21.3854 227.133 22.5882 227.133 23.9714V24.9937H214.684L214.744 23.4903H225.058C225.058 22.087 224.637 20.9644 223.795 20.1224C222.974 19.2604 221.881 18.8294 220.518 18.8294C219.516 18.8294 218.633 19.06 217.872 19.521C217.13 19.9821 216.559 20.6436 216.158 21.5056C215.757 22.3476 215.556 23.3499 215.556 24.5126C215.556 26.4371 215.997 27.9306 216.879 28.993C217.782 30.0555 219.054 30.5867 220.698 30.5867C221.881 30.5867 222.853 30.3361 223.615 29.835C224.377 29.3338 224.888 28.6021 225.149 27.6399H227.133C226.752 29.1634 226.011 30.3361 224.908 31.158C223.805 31.9599 222.392 32.3608 220.668 32.3608ZM237.798 24.3021C237.798 22.9791 238.069 21.7763 238.61 20.6938C239.151 19.5912 239.933 18.7092 240.955 18.0476C241.978 17.3861 243.2 17.0553 244.624 17.0553C246.007 17.0553 247.19 17.3961 248.172 18.0777C249.154 18.7593 249.856 19.7416 250.277 21.0245L249.946 21.4455L250.217 17.4462H252.021V31.549C252.021 32.9923 251.73 34.2452 251.149 35.3077C250.568 36.3902 249.746 37.2221 248.683 37.8035C247.641 38.4049 246.408 38.7056 244.985 38.7056C243.12 38.7056 241.577 38.2044 240.354 37.2021C239.131 36.1997 238.369 34.8266 238.069 33.0825H240.143C240.364 34.2653 240.895 35.1774 241.737 35.8189C242.599 36.4804 243.692 36.8112 245.015 36.8112C246.518 36.8112 247.721 36.3501 248.623 35.428C249.525 34.5058 249.976 33.283 249.976 31.7594V27.1888L250.277 27.5797C249.856 28.8026 249.124 29.7748 248.082 30.4965C247.059 31.1981 245.857 31.549 244.473 31.549C243.09 31.549 241.897 31.2182 240.895 30.5567C239.893 29.8951 239.121 29.0231 238.58 27.9406C238.058 26.838 237.798 25.6252 237.798 24.3021ZM239.873 24.2721C239.873 25.2744 240.063 26.1865 240.444 27.0084C240.845 27.8303 241.406 28.4818 242.128 28.963C242.87 29.4441 243.752 29.6846 244.774 29.6846C245.816 29.6846 246.709 29.4541 247.45 28.993C248.212 28.5119 248.793 27.8704 249.194 27.0686C249.595 26.2466 249.796 25.3145 249.796 24.2721C249.796 23.2296 249.595 22.3075 249.194 21.5056C248.813 20.7038 248.252 20.0723 247.51 19.6112C246.789 19.1301 245.887 18.8896 244.804 18.8896C243.762 18.8896 242.87 19.1402 242.128 19.6413C241.406 20.1224 240.845 20.7739 240.444 21.5959C240.063 22.3977 239.873 23.2898 239.873 24.2721ZM258.516 32H256.441V10.0791H258.516V32ZM261.906 24.7231C261.906 23.2196 262.227 21.8966 262.868 20.7539C263.51 19.6112 264.392 18.7092 265.514 18.0476C266.637 17.3861 267.9 17.0553 269.303 17.0553C270.726 17.0553 271.989 17.3861 273.092 18.0476C274.214 18.7092 275.096 19.6112 275.738 20.7539C276.379 21.8966 276.7 23.2196 276.7 24.7231C276.7 26.1865 276.379 27.4996 275.738 28.6623C275.096 29.8049 274.214 30.707 273.092 31.3685C271.989 32.0301 270.726 32.3608 269.303 32.3608C267.9 32.3608 266.637 32.0301 265.514 31.3685C264.392 30.707 263.51 29.8049 262.868 28.6623C262.227 27.4996 261.906 26.1865 261.906 24.7231ZM264.011 24.693C264.011 25.8357 264.231 26.848 264.672 27.7301C265.133 28.5921 265.755 29.2737 266.537 29.7748C267.338 30.256 268.261 30.4965 269.303 30.4965C270.345 30.4965 271.258 30.256 272.039 29.7748C272.841 29.2737 273.463 28.5921 273.904 27.7301C274.365 26.848 274.595 25.8357 274.595 24.693C274.595 23.5704 274.365 22.5781 273.904 21.7161C273.463 20.8541 272.841 20.1726 272.039 19.6714C271.258 19.1702 270.345 18.9196 269.303 18.9196C268.261 18.9196 267.338 19.1702 266.537 19.6714C265.755 20.1726 265.133 20.8541 264.672 21.7161C264.231 22.5781 264.011 23.5704 264.011 24.693ZM281.823 32H280.019V10.0791H282.093V20.2728C282.595 19.1903 283.316 18.3884 284.259 17.8672C285.221 17.3259 286.323 17.0553 287.566 17.0553C288.989 17.0553 290.192 17.3961 291.175 18.0777C292.177 18.7392 292.939 19.6513 293.46 20.814C294.001 21.9767 294.272 23.2898 294.272 24.7532C294.272 26.1965 294.001 27.4996 293.46 28.6623C292.919 29.8049 292.147 30.707 291.144 31.3685C290.142 32.0301 288.929 32.3608 287.506 32.3608C286.303 32.3608 285.221 32.0902 284.259 31.549C283.296 30.9877 282.555 30.1457 282.033 29.0231L281.823 32ZM282.124 24.693C282.124 25.8156 282.324 26.818 282.725 27.7C283.126 28.562 283.697 29.2436 284.439 29.7448C285.201 30.2259 286.113 30.4664 287.175 30.4664C288.238 30.4664 289.14 30.2259 289.882 29.7448C290.623 29.2436 291.185 28.562 291.565 27.7C291.966 26.818 292.167 25.8156 292.167 24.693C292.167 23.5704 291.966 22.5781 291.565 21.7161C291.185 20.8541 290.623 20.1726 289.882 19.6714C289.14 19.1702 288.238 18.9196 287.175 18.9196C286.113 18.9196 285.201 19.1702 284.439 19.6714C283.697 20.1726 283.126 20.8541 282.725 21.7161C282.324 22.5781 282.124 23.5704 282.124 24.693ZM301.759 32.3608C300.215 32.3608 299.002 31.9599 298.12 31.158C297.258 30.3562 296.827 29.3238 296.827 28.0609C296.827 26.7177 297.308 25.6453 298.271 24.8434C299.233 24.0415 300.566 23.5704 302.27 23.4301L307.081 23.0392V22.5581C307.081 21.5959 306.911 20.8441 306.57 20.3029C306.229 19.7416 305.768 19.3506 305.187 19.1301C304.605 18.9096 303.954 18.7994 303.232 18.7994C301.949 18.7994 300.957 19.07 300.255 19.6112C299.554 20.1525 299.203 20.9143 299.203 21.8966H297.308C297.308 20.9143 297.559 20.0623 298.06 19.3406C298.561 18.6189 299.263 18.0576 300.165 17.6567C301.067 17.2558 302.109 17.0553 303.292 17.0553C304.435 17.0553 305.437 17.2558 306.299 17.6567C307.161 18.0376 307.843 18.639 308.344 19.4609C308.865 20.2628 309.126 21.3052 309.126 22.5882V32H307.382L307.111 29.4441C306.67 30.3662 305.968 31.0879 305.006 31.6091C304.064 32.1103 302.982 32.3608 301.759 32.3608ZM302.24 30.6769C303.783 30.6769 304.976 30.1858 305.818 29.2035C306.66 28.2212 307.081 26.9483 307.081 25.3846V24.6028L302.781 24.9336C301.418 25.0539 300.436 25.3947 299.834 25.956C299.233 26.5173 298.932 27.1989 298.932 28.0007C298.932 28.8828 299.233 29.5543 299.834 30.0154C300.436 30.4564 301.237 30.6769 302.24 30.6769ZM315.454 32H313.379V10.0791H315.454V32ZM328.207 38.3447V17.4462H330.011L330.221 20.3931C330.743 19.2705 331.484 18.4385 332.447 17.8973C333.429 17.336 334.521 17.0553 335.724 17.0553C337.127 17.0553 338.33 17.3861 339.333 18.0476C340.335 18.7092 341.107 19.6112 341.648 20.7539C342.189 21.8966 342.46 23.1996 342.46 24.663C342.46 26.1264 342.189 27.4394 341.648 28.6021C341.127 29.7648 340.365 30.687 339.363 31.3685C338.38 32.0301 337.167 32.3608 335.724 32.3608C334.481 32.3608 333.389 32.1002 332.447 31.579C331.504 31.0378 330.783 30.2459 330.281 29.2035V38.3447H328.207ZM330.312 24.7231C330.312 25.8257 330.512 26.818 330.913 27.7C331.314 28.562 331.885 29.2436 332.627 29.7448C333.389 30.2459 334.301 30.4965 335.363 30.4965C336.426 30.4965 337.328 30.2459 338.07 29.7448C338.811 29.2436 339.373 28.562 339.753 27.7C340.154 26.818 340.355 25.8257 340.355 24.7231C340.355 23.6005 340.154 22.6082 339.753 21.7462C339.373 20.8642 338.811 20.1826 338.07 19.7015C337.328 19.2003 336.426 18.9497 335.363 18.9497C334.301 18.9497 333.389 19.2003 332.627 19.7015C331.885 20.1826 331.314 20.8642 330.913 21.7462C330.512 22.6082 330.312 23.6005 330.312 24.7231ZM344.745 24.7231C344.745 23.2196 345.065 21.8966 345.707 20.7539C346.348 19.6112 347.23 18.7092 348.353 18.0476C349.476 17.3861 350.739 17.0553 352.142 17.0553C353.565 17.0553 354.828 17.3861 355.931 18.0476C357.053 18.7092 357.935 19.6112 358.577 20.7539C359.218 21.8966 359.539 23.2196 359.539 24.7231C359.539 26.1865 359.218 27.4996 358.577 28.6623C357.935 29.8049 357.053 30.707 355.931 31.3685C354.828 32.0301 353.565 32.3608 352.142 32.3608C350.739 32.3608 349.476 32.0301 348.353 31.3685C347.23 30.707 346.348 29.8049 345.707 28.6623C345.065 27.4996 344.745 26.1865 344.745 24.7231ZM346.849 24.693C346.849 25.8357 347.07 26.848 347.511 27.7301C347.972 28.5921 348.594 29.2737 349.375 29.7748C350.177 30.256 351.099 30.4965 352.142 30.4965C353.184 30.4965 354.096 30.256 354.878 29.7748C355.68 29.2737 356.301 28.5921 356.742 27.7301C357.204 26.848 357.434 25.8357 357.434 24.693C357.434 23.5704 357.204 22.5781 356.742 21.7161C356.301 20.8541 355.68 20.1726 354.878 19.6714C354.096 19.1702 353.184 18.9196 352.142 18.9196C351.099 18.9196 350.177 19.1702 349.375 19.6714C348.594 20.1726 347.972 20.8541 347.511 21.7161C347.07 22.5781 346.849 23.5704 346.849 24.693ZM362.857 38.3447V17.4462H364.662L364.872 20.3931C365.393 19.2705 366.135 18.4385 367.097 17.8973C368.08 17.336 369.172 17.0553 370.375 17.0553C371.778 17.0553 372.981 17.3861 373.983 18.0476C374.986 18.7092 375.757 19.6112 376.299 20.7539C376.84 21.8966 377.11 23.1996 377.11 24.663C377.11 26.1264 376.84 27.4394 376.299 28.6021C375.777 29.7648 375.016 30.687 374.013 31.3685C373.031 32.0301 371.818 32.3608 370.375 32.3608C369.132 32.3608 368.039 32.1002 367.097 31.579C366.155 31.0378 365.433 30.2459 364.932 29.2035V38.3447H362.857ZM364.962 24.7231C364.962 25.8257 365.163 26.818 365.564 27.7C365.965 28.562 366.536 29.2436 367.278 29.7448C368.039 30.2459 368.952 30.4965 370.014 30.4965C371.076 30.4965 371.979 30.2459 372.72 29.7448C373.462 29.2436 374.023 28.562 374.404 27.7C374.805 26.818 375.006 25.8257 375.006 24.7231C375.006 23.6005 374.805 22.6082 374.404 21.7462C374.023 20.8642 373.462 20.1826 372.72 19.7015C371.979 19.2003 371.076 18.9497 370.014 18.9497C368.952 18.9497 368.039 19.2003 367.278 19.7015C366.536 20.1826 365.965 20.8642 365.564 21.7462C365.163 22.6082 364.962 23.6005 364.962 24.7231ZM390.289 17.4462H392.364V32H390.56L390.289 29.5343C389.888 30.3762 389.217 31.0578 388.274 31.579C387.352 32.1002 386.32 32.3608 385.177 32.3608C383.473 32.3608 382.16 31.8196 381.238 30.7371C380.336 29.6546 379.885 28.2313 379.885 26.4672V17.4162H381.99V25.8056C381.99 27.5296 382.341 28.7424 383.042 29.4441C383.764 30.1457 384.696 30.4965 385.839 30.4965C387.242 30.4965 388.335 30.0455 389.116 29.1434C389.898 28.2212 390.289 26.8982 390.289 25.1742V17.4462ZM398.851 32H396.776V10.0791H398.851V32ZM407.443 32.3608C405.9 32.3608 404.687 31.9599 403.805 31.158C402.943 30.3562 402.512 29.3238 402.512 28.0609C402.512 26.7177 402.993 25.6453 403.955 24.8434C404.918 24.0415 406.251 23.5704 407.955 23.4301L412.766 23.0392V22.5581C412.766 21.5959 412.595 20.8441 412.255 20.3029C411.914 19.7416 411.453 19.3506 410.871 19.1301C410.29 18.9096 409.638 18.7994 408.917 18.7994C407.634 18.7994 406.642 19.07 405.94 19.6112C405.238 20.1525 404.887 20.9143 404.887 21.8966H402.993C402.993 20.9143 403.244 20.0623 403.745 19.3406C404.246 18.6189 404.948 18.0576 405.85 17.6567C406.752 17.2558 407.794 17.0553 408.977 17.0553C410.12 17.0553 411.122 17.2558 411.984 17.6567C412.846 18.0376 413.528 18.639 414.029 19.4609C414.55 20.2628 414.81 21.3052 414.81 22.5882V32H413.066L412.796 29.4441C412.355 30.3662 411.653 31.0879 410.691 31.6091C409.749 32.1103 408.666 32.3608 407.443 32.3608ZM407.925 30.6769C409.468 30.6769 410.661 30.1858 411.503 29.2035C412.345 28.2212 412.766 26.9483 412.766 25.3846V24.6028L408.466 24.9336C407.103 25.0539 406.12 25.3947 405.519 25.956C404.918 26.5173 404.617 27.1989 404.617 28.0007C404.617 28.8828 404.918 29.5543 405.519 30.0154C406.12 30.4564 406.922 30.6769 407.925 30.6769ZM417.086 17.4462H424.964V19.1903H417.086V17.4462ZM422.047 32H420.003V12.8455H422.047V32ZM427.666 32V17.4462H429.741V32H427.666ZM428.688 13.4469C428.267 13.4469 427.907 13.2966 427.606 12.9959C427.305 12.6952 427.155 12.3344 427.155 11.9134C427.155 11.4924 427.305 11.1316 427.606 10.8309C427.907 10.5101 428.267 10.3498 428.688 10.3498C429.109 10.3498 429.47 10.5101 429.771 10.8309C430.092 11.1316 430.252 11.4924 430.252 11.9134C430.252 12.3344 430.092 12.6952 429.771 12.9959C429.47 13.2966 429.109 13.4469 428.688 13.4469ZM433.045 24.7231C433.045 23.2196 433.366 21.8966 434.007 20.7539C434.649 19.6112 435.531 18.7092 436.654 18.0476C437.776 17.3861 439.039 17.0553 440.442 17.0553C441.866 17.0553 443.129 17.3861 444.231 18.0476C445.354 18.7092 446.236 19.6112 446.877 20.7539C447.519 21.8966 447.84 23.2196 447.84 24.7231C447.84 26.1865 447.519 27.4996 446.877 28.6623C446.236 29.8049 445.354 30.707 444.231 31.3685C443.129 32.0301 441.866 32.3608 440.442 32.3608C439.039 32.3608 437.776 32.0301 436.654 31.3685C435.531 30.707 434.649 29.8049 434.007 28.6623C433.366 27.4996 433.045 26.1865 433.045 24.7231ZM435.15 24.693C435.15 25.8357 435.371 26.848 435.812 27.7301C436.273 28.5921 436.894 29.2737 437.676 29.7748C438.478 30.256 439.4 30.4965 440.442 30.4965C441.485 30.4965 442.397 30.256 443.179 29.7748C443.981 29.2737 444.602 28.5921 445.043 27.7301C445.504 26.848 445.735 25.8357 445.735 24.693C445.735 23.5704 445.504 22.5781 445.043 21.7161C444.602 20.8541 443.981 20.1726 443.179 19.6714C442.397 19.1702 441.485 18.9196 440.442 18.9196C439.4 18.9196 438.478 19.1702 437.676 19.6714C436.894 20.1726 436.273 20.8541 435.812 21.7161C435.371 22.5781 435.15 23.5704 435.15 24.693ZM453.233 32H451.158V17.4462H452.962L453.263 19.9721C453.744 19.0499 454.426 18.3383 455.308 17.8371C456.21 17.3159 457.192 17.0553 458.255 17.0553C460.259 17.0553 461.703 17.6066 462.585 18.7092C463.467 19.8117 463.908 21.2751 463.908 23.0993V32H461.833V23.5504C461.833 21.8464 461.472 20.6537 460.75 19.9721C460.049 19.2905 459.096 18.9497 457.894 18.9497C456.41 18.9497 455.258 19.4509 454.436 20.4532C453.634 21.4355 453.233 22.7485 453.233 24.3923V32ZM478.548 32H476.473V10.0791H478.548V32ZM482.96 32V17.4462H485.035V32H482.96ZM483.983 13.4469C483.562 13.4469 483.201 13.2966 482.9 12.9959C482.6 12.6952 482.449 12.3344 482.449 11.9134C482.449 11.4924 482.6 11.1316 482.9 10.8309C483.201 10.5101 483.562 10.3498 483.983 10.3498C484.404 10.3498 484.765 10.5101 485.065 10.8309C485.386 11.1316 485.546 11.4924 485.546 11.9134C485.546 12.3344 485.386 12.6952 485.065 12.9959C484.765 13.2966 484.404 13.4469 483.983 13.4469ZM493.421 32L487.468 17.4462H489.693L493.451 26.828C493.672 27.3693 493.862 27.8905 494.023 28.3916C494.203 28.8727 494.364 29.3539 494.504 29.835C494.644 29.3338 494.805 28.8427 494.985 28.3616C495.165 27.8604 495.366 27.3492 495.586 26.828L499.405 17.4462H501.54L495.496 32H493.421ZM509.444 32.3608C508.041 32.3608 506.798 32.0401 505.715 31.3986C504.653 30.7571 503.821 29.865 503.219 28.7224C502.618 27.5797 502.317 26.2466 502.317 24.7231C502.317 23.2196 502.608 21.8966 503.189 20.7539C503.791 19.5912 504.613 18.6891 505.655 18.0476C506.697 17.3861 507.91 17.0553 509.293 17.0553C510.617 17.0553 511.769 17.346 512.752 17.9273C513.754 18.5087 514.526 19.3206 515.067 20.363C515.628 21.3854 515.909 22.5882 515.909 23.9714V24.9937H503.46L503.52 23.4903H513.834C513.834 22.087 513.413 20.9644 512.571 20.1224C511.749 19.2604 510.657 18.8294 509.293 18.8294C508.291 18.8294 507.409 19.06 506.647 19.521C505.906 19.9821 505.334 20.6436 504.933 21.5056C504.532 22.3476 504.332 23.3499 504.332 24.5126C504.332 26.4371 504.773 27.9306 505.655 28.993C506.557 30.0555 507.83 30.5867 509.474 30.5867C510.657 30.5867 511.629 30.3361 512.391 29.835C513.152 29.3338 513.664 28.6021 513.924 27.6399H515.909C515.528 29.1634 514.786 30.3361 513.684 31.158C512.581 31.9599 511.168 32.3608 509.444 32.3608ZM530.633 32L525.822 17.4462H527.957L530.813 26.2266C530.974 26.7077 531.124 27.1989 531.264 27.7C531.425 28.2012 531.575 28.7525 531.715 29.3539C531.796 28.973 531.896 28.572 532.016 28.1511C532.136 27.71 532.247 27.3191 532.347 26.9783C532.467 26.6376 532.547 26.387 532.587 26.2266L535.474 17.4462H537.609L540.466 26.2266C540.526 26.4271 540.596 26.6576 540.676 26.9182C540.756 27.1588 540.837 27.4093 540.917 27.67C540.997 27.9306 541.067 28.2112 541.127 28.5119C541.207 28.7926 541.288 29.0732 541.368 29.3539C541.468 28.9329 541.548 28.5921 541.608 28.3315C541.669 28.0508 541.749 27.7602 541.849 27.4595C541.949 27.1588 542.079 26.7478 542.24 26.2266L545.127 17.4462H547.292L542.36 32H540.345L537.338 22.8588C537.158 22.3175 536.998 21.8164 536.857 21.3553C536.737 20.8942 536.637 20.4432 536.557 20.0022C536.456 20.4031 536.336 20.8341 536.196 21.2952C536.076 21.7362 535.915 22.2574 535.715 22.8588L532.708 32H530.633ZM549.883 32V17.4462H551.958V32H549.883ZM550.906 13.4469C550.485 13.4469 550.124 13.2966 549.823 12.9959C549.522 12.6952 549.372 12.3344 549.372 11.9134C549.372 11.4924 549.522 11.1316 549.823 10.8309C550.124 10.5101 550.485 10.3498 550.906 10.3498C551.327 10.3498 551.687 10.5101 551.988 10.8309C552.309 11.1316 552.469 11.4924 552.469 11.9134C552.469 12.3344 552.309 12.6952 551.988 12.9959C551.687 13.2966 551.327 13.4469 550.906 13.4469ZM554.661 17.4462H562.539V19.1903H554.661V17.4462ZM559.623 32H557.578V12.8455H559.623V32ZM567.316 31.9699H565.241V10.0791H567.316V19.9721C567.777 19.09 568.439 18.3884 569.301 17.8672C570.183 17.3259 571.235 17.0553 572.458 17.0553C574.382 17.0553 575.786 17.6066 576.668 18.7092C577.55 19.8117 577.991 21.2751 577.991 23.0993V32H575.916V23.5504C575.916 22.4077 575.756 21.5056 575.435 20.8441C575.114 20.1625 574.663 19.6814 574.082 19.4008C573.5 19.1001 572.829 18.9497 572.067 18.9497C571.025 18.9497 570.153 19.1802 569.451 19.6413C568.749 20.1024 568.218 20.7238 567.857 21.5056C567.496 22.2674 567.316 23.1194 567.316 24.0616V31.9699ZM590.466 38.3447V17.4462H592.27L592.48 20.3931C593.002 19.2705 593.743 18.4385 594.706 17.8973C595.688 17.336 596.78 17.0553 597.983 17.0553C599.386 17.0553 600.589 17.3861 601.592 18.0476C602.594 18.7092 603.366 19.6112 603.907 20.7539C604.448 21.8966 604.719 23.1996 604.719 24.663C604.719 26.1264 604.448 27.4394 603.907 28.6021C603.386 29.7648 602.624 30.687 601.622 31.3685C600.639 32.0301 599.426 32.3608 597.983 32.3608C596.74 32.3608 595.648 32.1002 594.706 31.579C593.763 31.0378 593.042 30.2459 592.54 29.2035V38.3447H590.466ZM592.571 24.7231C592.571 25.8257 592.771 26.818 593.172 27.7C593.573 28.562 594.144 29.2436 594.886 29.7448C595.648 30.2459 596.56 30.4965 597.622 30.4965C598.685 30.4965 599.587 30.2459 600.329 29.7448C601.07 29.2436 601.632 28.562 602.012 27.7C602.413 26.818 602.614 25.8257 602.614 24.7231C602.614 23.6005 602.413 22.6082 602.012 21.7462C601.632 20.8642 601.07 20.1826 600.329 19.7015C599.587 19.2003 598.685 18.9497 597.622 18.9497C596.56 18.9497 595.648 19.2003 594.886 19.7015C594.144 20.1826 593.573 20.8642 593.172 21.7462C592.771 22.6082 592.571 23.6005 592.571 24.7231ZM606.793 27.9105H608.778C608.778 28.7525 609.078 29.424 609.68 29.9252C610.281 30.4063 611.083 30.6469 612.085 30.6469C613.208 30.6469 614.08 30.4263 614.701 29.9853C615.343 29.5243 615.664 28.9028 615.664 28.121C615.664 27.5196 615.493 27.0385 615.153 26.6776C614.812 26.3168 614.21 26.0261 613.348 25.8056L610.853 25.1742C609.59 24.8534 608.647 24.3623 608.026 23.7007C607.405 23.0392 607.094 22.2173 607.094 21.235C607.094 20.3931 607.314 19.6614 607.755 19.0399C608.196 18.3984 608.808 17.9073 609.59 17.5665C610.391 17.2257 611.314 17.0553 612.356 17.0553C613.378 17.0553 614.27 17.2357 615.032 17.5966C615.794 17.9574 616.385 18.4686 616.806 19.1301C617.247 19.7716 617.478 20.5434 617.498 21.4455H615.483C615.463 20.5835 615.173 19.922 614.611 19.4609C614.05 18.9998 613.278 18.7693 612.296 18.7693C611.274 18.7693 610.482 18.9798 609.92 19.4008C609.379 19.8217 609.108 20.4231 609.108 21.2049C609.108 22.3276 609.9 23.0893 611.484 23.4903L613.98 24.1217C615.243 24.4425 616.165 24.9136 616.746 25.535C617.348 26.1564 617.648 26.9884 617.648 28.0308C617.648 28.8928 617.418 29.6546 616.957 30.3161C616.496 30.9776 615.844 31.4888 615.002 31.8497C614.18 32.1904 613.218 32.3608 612.115 32.3608C610.492 32.3608 609.199 31.9599 608.236 31.158C607.274 30.3361 606.793 29.2536 606.793 27.9105ZM620.042 24.7231C620.042 23.2196 620.362 21.8966 621.004 20.7539C621.645 19.6112 622.527 18.7092 623.65 18.0476C624.773 17.3861 626.036 17.0553 627.439 17.0553C628.862 17.0553 630.125 17.3861 631.228 18.0476C632.35 18.7092 633.232 19.6112 633.874 20.7539C634.515 21.8966 634.836 23.2196 634.836 24.7231C634.836 26.1865 634.515 27.4996 633.874 28.6623C633.232 29.8049 632.35 30.707 631.228 31.3685C630.125 32.0301 628.862 32.3608 627.439 32.3608C626.036 32.3608 624.773 32.0301 623.65 31.3685C622.527 30.707 621.645 29.8049 621.004 28.6623C620.362 27.4996 620.042 26.1865 620.042 24.7231ZM622.147 24.693C622.147 25.8357 622.367 26.848 622.808 27.7301C623.269 28.5921 623.891 29.2737 624.672 29.7748C625.474 30.256 626.396 30.4965 627.439 30.4965C628.481 30.4965 629.393 30.256 630.175 29.7748C630.977 29.2737 631.599 28.5921 632.04 27.7301C632.501 26.848 632.731 25.8357 632.731 24.693C632.731 23.5704 632.501 22.5781 632.04 21.7161C631.599 20.8541 630.977 20.1726 630.175 19.6714C629.393 19.1702 628.481 18.9196 627.439 18.9196C626.396 18.9196 625.474 19.1702 624.672 19.6714C623.891 20.1726 623.269 20.8541 622.808 21.7161C622.367 22.5781 622.147 23.5704 622.147 24.693ZM645.762 17.2658V19.1301H644.62C643.276 19.1301 642.204 19.5411 641.402 20.363C640.62 21.1849 640.229 22.2975 640.229 23.7007V32H638.155V17.4462H640.109L640.289 20.3029H640.079C640.279 19.3607 640.771 18.5989 641.552 18.0176C642.334 17.4162 643.286 17.1155 644.409 17.1155C644.63 17.1155 644.85 17.1255 645.071 17.1455C645.291 17.1656 645.522 17.2057 645.762 17.2658ZM648.52 32V17.4462H650.595V32H648.52ZM649.543 13.4469C649.122 13.4469 648.761 13.2966 648.46 12.9959C648.16 12.6952 648.009 12.3344 648.009 11.9134C648.009 11.4924 648.16 11.1316 648.46 10.8309C648.761 10.5101 649.122 10.3498 649.543 10.3498C649.964 10.3498 650.325 10.5101 650.625 10.8309C650.946 11.1316 651.106 11.4924 651.106 11.9134C651.106 12.3344 650.946 12.6952 650.625 12.9959C650.325 13.2966 649.964 13.4469 649.543 13.4469ZM659.102 32.3608C657.558 32.3608 656.345 31.9599 655.463 31.158C654.601 30.3562 654.17 29.3238 654.17 28.0609C654.17 26.7177 654.651 25.6453 655.613 24.8434C656.576 24.0415 657.909 23.5704 659.613 23.4301L664.424 23.0392V22.5581C664.424 21.5959 664.254 20.8441 663.913 20.3029C663.572 19.7416 663.111 19.3506 662.53 19.1301C661.948 18.9096 661.297 18.7994 660.575 18.7994C659.292 18.7994 658.3 19.07 657.598 19.6112C656.896 20.1525 656.546 20.9143 656.546 21.8966H654.651C654.651 20.9143 654.902 20.0623 655.403 19.3406C655.904 18.6189 656.606 18.0576 657.508 17.6567C658.41 17.2558 659.452 17.0553 660.635 17.0553C661.778 17.0553 662.78 17.2558 663.642 17.6567C664.504 18.0376 665.186 18.639 665.687 19.4609C666.208 20.2628 666.469 21.3052 666.469 22.5882V32H664.725L664.454 29.4441C664.013 30.3662 663.311 31.0879 662.349 31.6091C661.407 32.1103 660.324 32.3608 659.102 32.3608ZM659.583 30.6769C661.126 30.6769 662.319 30.1858 663.161 29.2035C664.003 28.2212 664.424 26.9483 664.424 25.3846V24.6028L660.124 24.9336C658.761 25.0539 657.778 25.3947 657.177 25.956C656.576 26.5173 656.275 27.1989 656.275 28.0007C656.275 28.8828 656.576 29.5543 657.177 30.0154C657.778 30.4564 658.58 30.6769 659.583 30.6769ZM669.399 27.9105H671.384C671.384 28.7525 671.685 29.424 672.286 29.9252C672.887 30.4063 673.689 30.6469 674.692 30.6469C675.814 30.6469 676.686 30.4263 677.308 29.9853C677.949 29.5243 678.27 28.9028 678.27 28.121C678.27 27.5196 678.1 27.0385 677.759 26.6776C677.418 26.3168 676.817 26.0261 675.955 25.8056L673.459 25.1742C672.196 24.8534 671.254 24.3623 670.632 23.7007C670.011 23.0392 669.7 22.2173 669.7 21.235C669.7 20.3931 669.921 19.6614 670.362 19.0399C670.803 18.3984 671.414 17.9073 672.196 17.5665C672.998 17.2257 673.92 17.0553 674.962 17.0553C675.985 17.0553 676.877 17.2357 677.638 17.5966C678.4 17.9574 678.992 18.4686 679.413 19.1301C679.854 19.7716 680.084 20.5434 680.104 21.4455H678.089C678.069 20.5835 677.779 19.922 677.217 19.4609C676.656 18.9998 675.884 18.7693 674.902 18.7693C673.88 18.7693 673.088 18.9798 672.527 19.4008C671.985 19.8217 671.715 20.4231 671.715 21.2049C671.715 22.3276 672.507 23.0893 674.09 23.4903L676.586 24.1217C677.849 24.4425 678.771 24.9136 679.352 25.535C679.954 26.1564 680.255 26.9884 680.255 28.0308C680.255 28.8928 680.024 29.6546 679.563 30.3161C679.102 30.9776 678.45 31.4888 677.608 31.8497C676.786 32.1904 675.824 32.3608 674.722 32.3608C673.098 32.3608 671.805 31.9599 670.843 31.158C669.88 30.3361 669.399 29.2536 669.399 27.9105ZM683.67 32V17.4462H685.745V32H683.67ZM684.693 13.4469C684.272 13.4469 683.911 13.2966 683.61 12.9959C683.309 12.6952 683.159 12.3344 683.159 11.9134C683.159 11.4924 683.309 11.1316 683.61 10.8309C683.911 10.5101 684.272 10.3498 684.693 10.3498C685.114 10.3498 685.474 10.5101 685.775 10.8309C686.096 11.1316 686.256 11.4924 686.256 11.9134C686.256 12.3344 686.096 12.6952 685.775 12.9959C685.474 13.2966 685.114 13.4469 684.693 13.4469ZM688.839 27.9105H690.824C690.824 28.7525 691.124 29.424 691.726 29.9252C692.327 30.4063 693.129 30.6469 694.131 30.6469C695.254 30.6469 696.126 30.4263 696.747 29.9853C697.389 29.5243 697.71 28.9028 697.71 28.121C697.71 27.5196 697.539 27.0385 697.198 26.6776C696.858 26.3168 696.256 26.0261 695.394 25.8056L692.898 25.1742C691.636 24.8534 690.693 24.3623 690.072 23.7007C689.45 23.0392 689.14 22.2173 689.14 21.235C689.14 20.3931 689.36 19.6614 689.801 19.0399C690.242 18.3984 690.854 17.9073 691.636 17.5665C692.437 17.2257 693.36 17.0553 694.402 17.0553C695.424 17.0553 696.316 17.2357 697.078 17.5966C697.84 17.9574 698.431 18.4686 698.852 19.1301C699.293 19.7716 699.524 20.5434 699.544 21.4455H697.529C697.509 20.5835 697.218 19.922 696.657 19.4609C696.096 18.9998 695.324 18.7693 694.342 18.7693C693.319 18.7693 692.528 18.9798 691.966 19.4008C691.425 19.8217 691.154 20.4231 691.154 21.2049C691.154 22.3276 691.946 23.0893 693.53 23.4903L696.026 24.1217C697.289 24.4425 698.211 24.9136 698.792 25.535C699.394 26.1564 699.694 26.9884 699.694 28.0308C699.694 28.8928 699.464 29.6546 699.003 30.3161C698.542 30.9776 697.89 31.4888 697.048 31.8497C696.226 32.1904 695.264 32.3608 694.161 32.3608C692.538 32.3608 691.245 31.9599 690.282 31.158C689.32 30.3361 688.839 29.2536 688.839 27.9105Z" fill="black"/>
<path d="M4.45837 97.2414L9.2094 90.7764H13.5996L7.40521 99.0456L6.44298 98.805C6.884 98.4041 7.42526 98.0934 8.06675 97.8728C8.72828 97.6523 9.36977 97.5421 9.99122 97.5421C11.4947 97.5421 12.8178 97.8728 13.9604 98.5344C15.1031 99.1759 15.9951 100.078 16.6366 101.241C17.2781 102.383 17.5989 103.696 17.5989 105.18C17.5989 106.743 17.238 108.127 16.5164 109.329C15.8147 110.512 14.8425 111.444 13.5996 112.126C12.3768 112.808 10.9835 113.148 9.41989 113.148C7.83621 113.148 6.41291 112.797 5.14998 112.096C3.9071 111.394 2.92482 110.442 2.20314 109.239C1.48147 108.016 1.12063 106.653 1.12063 105.15C1.12063 104.248 1.22086 103.416 1.42133 102.654C1.64184 101.872 1.99265 101.05 2.47377 100.188C2.97493 99.3262 3.63647 98.3439 4.45837 97.2414ZM5.05977 105.18C5.05977 106.082 5.24019 106.874 5.60103 107.555C5.98191 108.237 6.4931 108.768 7.13459 109.149C7.79612 109.53 8.55789 109.72 9.41989 109.72C10.2618 109.72 11.0036 109.53 11.6451 109.149C12.2865 108.768 12.7877 108.237 13.1485 107.555C13.5294 106.874 13.7199 106.082 13.7199 105.18C13.7199 104.298 13.5294 103.526 13.1485 102.864C12.7877 102.183 12.2865 101.652 11.6451 101.271C11.0036 100.89 10.2618 100.699 9.41989 100.699C8.55789 100.699 7.79612 100.89 7.13459 101.271C6.47305 101.652 5.96186 102.183 5.60103 102.864C5.24019 103.526 5.05977 104.298 5.05977 105.18ZM19.9779 101.812C19.9779 99.5267 20.3588 97.5321 21.1206 95.8281C21.9024 94.1241 22.9849 92.791 24.3681 91.8288C25.7714 90.8465 27.4051 90.3554 29.2695 90.3554C31.1538 90.3554 32.7876 90.8465 34.1708 91.8288C35.5741 92.791 36.6566 94.1241 37.4184 95.8281C38.2002 97.5321 38.5911 99.5267 38.5911 101.812C38.5911 104.077 38.2202 106.062 37.4785 107.766C36.7368 109.47 35.6743 110.793 34.2911 111.735C32.9079 112.677 31.234 113.148 29.2695 113.148C27.345 113.148 25.6811 112.677 24.2779 111.735C22.8947 110.793 21.8322 109.47 21.0905 107.766C20.3488 106.062 19.9779 104.077 19.9779 101.812ZM23.7667 101.812C23.7667 103.496 23.9872 104.939 24.4282 106.142C24.8693 107.325 25.5007 108.227 26.3226 108.848C27.1445 109.45 28.1268 109.75 29.2695 109.75C30.4522 109.75 31.4445 109.45 32.2464 108.848C33.0683 108.227 33.6998 107.325 34.1408 106.142C34.5818 104.939 34.8023 103.496 34.8023 101.812C34.8023 100.068 34.5818 98.6045 34.1408 97.4218C33.6998 96.219 33.0683 95.3069 32.2464 94.6854C31.4445 94.064 30.4522 93.7533 29.2695 93.7533C28.1268 93.7533 27.1445 94.064 26.3226 94.6854C25.5007 95.3069 24.8693 96.219 24.4282 97.4218C23.9872 98.6045 23.7667 100.068 23.7667 101.812ZM52.3955 96.1288C52.3955 97.2514 52.1449 98.2537 51.6437 99.1358C51.1626 99.9978 50.4911 100.679 49.6291 101.181C48.7671 101.662 47.7748 101.902 46.6522 101.902C45.5496 101.902 44.5573 101.662 43.6752 101.181C42.8132 100.679 42.1317 99.9978 41.6305 99.1358C41.1494 98.2537 40.9088 97.2514 40.9088 96.1288C40.9088 95.0062 41.1494 94.0139 41.6305 93.1519C42.1317 92.2698 42.8132 91.5883 43.6752 91.1071C44.5573 90.606 45.5496 90.3554 46.6522 90.3554C47.7748 90.3554 48.7671 90.606 49.6291 91.1071C50.4911 91.5883 51.1626 92.2698 51.6437 93.1519C52.1449 94.0139 52.3955 95.0062 52.3955 96.1288ZM49.4787 96.1288C49.4787 95.2668 49.2181 94.5652 48.6969 94.0239C48.1757 93.4626 47.4941 93.182 46.6522 93.182C45.8102 93.182 45.1286 93.4626 44.6074 94.0239C44.1062 94.5652 43.8557 95.2668 43.8557 96.1288C43.8557 96.9908 44.1062 97.7024 44.6074 98.2637C45.1286 98.8251 45.8102 99.1057 46.6522 99.1057C47.4941 99.1057 48.1757 98.8251 48.6969 98.2637C49.2181 97.7024 49.4787 96.9908 49.4787 96.1288ZM64.4535 90.8064L47.7647 112.757H44.0962L60.785 90.8064H64.4535ZM67.6709 107.375C67.6709 108.497 67.4203 109.5 66.9192 110.382C66.4381 111.244 65.7665 111.925 64.9045 112.427C64.0626 112.908 63.0803 113.148 61.9577 113.148C60.8351 113.148 59.8428 112.908 58.9808 112.427C58.1188 111.925 57.4372 111.244 56.936 110.382C56.4549 109.5 56.2143 108.497 56.2143 107.375C56.2143 106.252 56.4549 105.26 56.936 104.398C57.4372 103.516 58.1188 102.834 58.9808 102.353C59.8428 101.852 60.8351 101.601 61.9577 101.601C63.0803 101.601 64.0626 101.852 64.9045 102.353C65.7665 102.834 66.4381 103.516 66.9192 104.398C67.4203 105.26 67.6709 106.252 67.6709 107.375ZM64.7542 107.375C64.7542 106.493 64.4936 105.781 63.9723 105.24C63.4712 104.699 62.7996 104.428 61.9577 104.428C61.1157 104.428 60.4341 104.699 59.9129 105.24C59.3917 105.781 59.1311 106.493 59.1311 107.375C59.1311 108.237 59.3917 108.949 59.9129 109.51C60.4341 110.051 61.1157 110.322 61.9577 110.322C62.7796 110.322 63.4511 110.051 63.9723 109.51C64.4936 108.949 64.7542 108.237 64.7542 107.375ZM77.9703 105.48C77.9703 103.977 78.291 102.654 78.9325 101.511C79.574 100.369 80.4561 99.4665 81.5787 98.805C82.7013 98.1435 83.9642 97.8127 85.3675 97.8127C86.7908 97.8127 88.0537 98.1435 89.1563 98.805C90.2789 99.4665 91.1609 100.369 91.8024 101.511C92.4439 102.654 92.7646 103.977 92.7646 105.48C92.7646 106.944 92.4439 108.257 91.8024 109.42C91.1609 110.562 90.2789 111.464 89.1563 112.126C88.0537 112.787 86.7908 113.118 85.3675 113.118C83.9642 113.118 82.7013 112.787 81.5787 112.126C80.4561 111.464 79.574 110.562 78.9325 109.42C78.291 108.257 77.9703 106.944 77.9703 105.48ZM80.0752 105.45C80.0752 106.593 80.2957 107.605 80.7367 108.487C81.1978 109.349 81.8192 110.031 82.6011 110.532C83.4029 111.013 84.3251 111.254 85.3675 111.254C86.4099 111.254 87.322 111.013 88.1038 110.532C88.9057 110.031 89.5271 109.349 89.9681 108.487C90.4292 107.605 90.6598 106.593 90.6598 105.45C90.6598 104.328 90.4292 103.336 89.9681 102.474C89.5271 101.612 88.9057 100.93 88.1038 100.429C87.322 99.9276 86.4099 99.677 85.3675 99.677C84.3251 99.677 83.4029 99.9276 82.6011 100.429C81.8192 100.93 81.1978 101.612 80.7367 102.474C80.2957 103.336 80.0752 104.328 80.0752 105.45ZM94.3419 98.2036H102.07V99.9477H94.3419V98.2036ZM102.19 90.9568V92.7309C102.05 92.7309 101.869 92.7309 101.649 92.7309C101.428 92.7309 101.198 92.7309 100.957 92.7309C100.035 92.7309 99.4137 92.9614 99.0929 93.4225C98.7922 93.8635 98.6419 94.515 98.6419 95.3771V112.757H96.567V95.3771C96.567 94.2945 96.7475 93.4225 97.1083 92.761C97.4691 92.0794 97.9503 91.5883 98.5517 91.2876C99.1731 90.9869 99.8547 90.8365 100.596 90.8365C100.857 90.8365 101.128 90.8465 101.408 90.8666C101.689 90.8866 101.95 90.9167 102.19 90.9568ZM113.232 119.102V98.2036H115.036L115.247 101.15C115.768 100.028 116.51 99.1959 117.472 98.6547C118.454 98.0934 119.547 97.8127 120.75 97.8127C122.153 97.8127 123.356 98.1435 124.358 98.805C125.36 99.4665 126.132 100.369 126.673 101.511C127.215 102.654 127.485 103.957 127.485 105.42C127.485 106.884 127.215 108.197 126.673 109.359C126.152 110.522 125.391 111.444 124.388 112.126C123.406 112.787 122.193 113.118 120.75 113.118C119.507 113.118 118.414 112.858 117.472 112.336C116.53 111.795 115.808 111.003 115.307 109.961V119.102H113.232ZM115.337 105.48C115.337 106.583 115.538 107.575 115.939 108.457C116.339 109.319 116.911 110.001 117.653 110.502C118.414 111.003 119.326 111.254 120.389 111.254C121.451 111.254 122.353 111.003 123.095 110.502C123.837 110.001 124.398 109.319 124.779 108.457C125.18 107.575 125.38 106.583 125.38 105.48C125.38 104.358 125.18 103.366 124.779 102.504C124.398 101.622 123.837 100.94 123.095 100.459C122.353 99.9577 121.451 99.7071 120.389 99.7071C119.326 99.7071 118.414 99.9577 117.653 100.459C116.911 100.94 116.339 101.622 115.939 102.504C115.538 103.366 115.337 104.358 115.337 105.48ZM136.897 113.118C135.493 113.118 134.251 112.797 133.168 112.156C132.106 111.515 131.274 110.622 130.672 109.48C130.071 108.337 129.77 107.004 129.77 105.48C129.77 103.977 130.061 102.654 130.642 101.511C131.244 100.349 132.066 99.4465 133.108 98.805C134.15 98.1435 135.363 97.8127 136.746 97.8127C138.069 97.8127 139.222 98.1034 140.204 98.6847C141.207 99.2661 141.979 100.078 142.52 101.12C143.081 102.143 143.362 103.346 143.362 104.729V105.751H130.913L130.973 104.248H141.287C141.287 102.844 140.866 101.722 140.024 100.88C139.202 100.018 138.11 99.5868 136.746 99.5868C135.744 99.5868 134.862 99.8174 134.1 100.278C133.359 100.739 132.787 101.401 132.386 102.263C131.985 103.105 131.785 104.107 131.785 105.27C131.785 107.194 132.226 108.688 133.108 109.75C134.01 110.813 135.283 111.344 136.927 111.344C138.11 111.344 139.082 111.094 139.844 110.592C140.605 110.091 141.117 109.359 141.377 108.397H143.362C142.981 109.921 142.239 111.094 141.137 111.915C140.034 112.717 138.621 113.118 136.897 113.118ZM145.657 105.48C145.657 103.977 145.977 102.654 146.619 101.511C147.26 100.369 148.142 99.4665 149.265 98.805C150.388 98.1435 151.651 97.8127 153.054 97.8127C154.477 97.8127 155.74 98.1435 156.843 98.805C157.965 99.4665 158.847 100.369 159.489 101.511C160.13 102.654 160.451 103.977 160.451 105.48C160.451 106.944 160.13 108.257 159.489 109.42C158.847 110.562 157.965 111.464 156.843 112.126C155.74 112.787 154.477 113.118 153.054 113.118C151.651 113.118 150.388 112.787 149.265 112.126C148.142 111.464 147.26 110.562 146.619 109.42C145.977 108.257 145.657 106.944 145.657 105.48ZM147.762 105.45C147.762 106.593 147.982 107.605 148.423 108.487C148.884 109.349 149.506 110.031 150.287 110.532C151.089 111.013 152.011 111.254 153.054 111.254C154.096 111.254 155.008 111.013 155.79 110.532C156.592 110.031 157.213 109.349 157.655 108.487C158.116 107.605 158.346 106.593 158.346 105.45C158.346 104.328 158.116 103.336 157.655 102.474C157.213 101.612 156.592 100.93 155.79 100.429C155.008 99.9276 154.096 99.677 153.054 99.677C152.011 99.677 151.089 99.9276 150.287 100.429C149.506 100.93 148.884 101.612 148.423 102.474C147.982 103.336 147.762 104.328 147.762 105.45ZM163.769 119.102V98.2036H165.574L165.784 101.15C166.305 100.028 167.047 99.1959 168.009 98.6547C168.992 98.0934 170.084 97.8127 171.287 97.8127C172.69 97.8127 173.893 98.1435 174.895 98.805C175.898 99.4665 176.669 100.369 177.211 101.511C177.752 102.654 178.023 103.957 178.023 105.42C178.023 106.884 177.752 108.197 177.211 109.359C176.689 110.522 175.928 111.444 174.925 112.126C173.943 112.787 172.73 113.118 171.287 113.118C170.044 113.118 168.952 112.858 168.009 112.336C167.067 111.795 166.345 111.003 165.844 109.961V119.102H163.769ZM165.874 105.48C165.874 106.583 166.075 107.575 166.476 108.457C166.877 109.319 167.448 110.001 168.19 110.502C168.952 111.003 169.864 111.254 170.926 111.254C171.989 111.254 172.891 111.003 173.632 110.502C174.374 110.001 174.935 109.319 175.316 108.457C175.717 107.575 175.918 106.583 175.918 105.48C175.918 104.358 175.717 103.366 175.316 102.504C174.935 101.622 174.374 100.94 173.632 100.459C172.891 99.9577 171.989 99.7071 170.926 99.7071C169.864 99.7071 168.952 99.9577 168.19 100.459C167.448 100.94 166.877 101.622 166.476 102.504C166.075 103.366 165.874 104.358 165.874 105.48ZM183.495 112.757H181.42V90.8365H183.495V112.757ZM194.012 113.118C192.608 113.118 191.366 112.797 190.283 112.156C189.221 111.515 188.389 110.622 187.787 109.48C187.186 108.337 186.885 107.004 186.885 105.48C186.885 103.977 187.176 102.654 187.757 101.511C188.359 100.349 189.18 99.4465 190.223 98.805C191.265 98.1435 192.478 97.8127 193.861 97.8127C195.184 97.8127 196.337 98.1034 197.319 98.6847C198.322 99.2661 199.093 100.078 199.635 101.12C200.196 102.143 200.477 103.346 200.477 104.729V105.751H188.028L188.088 104.248H198.402C198.402 102.844 197.981 101.722 197.139 100.88C196.317 100.018 195.225 99.5868 193.861 99.5868C192.859 99.5868 191.977 99.8174 191.215 100.278C190.473 100.739 189.902 101.401 189.501 102.263C189.1 103.105 188.9 104.107 188.9 105.27C188.9 107.194 189.341 108.688 190.223 109.75C191.125 110.813 192.398 111.344 194.042 111.344C195.225 111.344 196.197 111.094 196.959 110.592C197.72 110.091 198.231 109.359 198.492 108.397H200.477C200.096 109.921 199.354 111.094 198.252 111.915C197.149 112.717 195.736 113.118 194.012 113.118ZM215.201 112.757L210.39 98.2036H212.525L215.381 106.984C215.542 107.465 215.692 107.956 215.832 108.457C215.993 108.959 216.143 109.51 216.283 110.111C216.363 109.73 216.464 109.329 216.584 108.908C216.704 108.467 216.815 108.077 216.915 107.736C217.035 107.395 217.115 107.144 217.155 106.984L220.042 98.2036H222.177L225.034 106.984C225.094 107.184 225.164 107.415 225.244 107.676C225.324 107.916 225.404 108.167 225.485 108.427C225.565 108.688 225.635 108.969 225.695 109.269C225.775 109.55 225.856 109.831 225.936 110.111C226.036 109.69 226.116 109.349 226.176 109.089C226.236 108.808 226.317 108.518 226.417 108.217C226.517 107.916 226.647 107.505 226.808 106.984L229.694 98.2036H231.859L226.928 112.757H224.913L221.906 103.616C221.726 103.075 221.566 102.574 221.425 102.113C221.305 101.652 221.205 101.201 221.125 100.76C221.024 101.16 220.904 101.591 220.764 102.053C220.643 102.494 220.483 103.015 220.283 103.616L217.276 112.757H215.201ZM234.451 112.757V98.2036H236.526V112.757H234.451ZM235.473 94.2043C235.052 94.2043 234.692 94.054 234.391 93.7533C234.09 93.4526 233.94 93.0917 233.94 92.6708C233.94 92.2498 234.09 91.889 234.391 91.5883C234.692 91.2675 235.052 91.1071 235.473 91.1071C235.894 91.1071 236.255 91.2675 236.556 91.5883C236.877 91.889 237.037 92.2498 237.037 92.6708C237.037 93.0917 236.877 93.4526 236.556 93.7533C236.255 94.054 235.894 94.2043 235.473 94.2043ZM239.229 98.2036H247.107V99.9477H239.229V98.2036ZM244.19 112.757H242.146V93.6029H244.19V112.757ZM251.884 112.727H249.809V90.8365H251.884V100.729C252.345 99.8474 253.006 99.1458 253.868 98.6246C254.75 98.0833 255.803 97.8127 257.026 97.8127C258.95 97.8127 260.353 98.364 261.236 99.4665C262.118 100.569 262.559 102.032 262.559 103.857V112.757H260.484V104.308C260.484 103.165 260.323 102.263 260.003 101.601C259.682 100.92 259.231 100.439 258.65 100.158C258.068 99.8574 257.397 99.7071 256.635 99.7071C255.592 99.7071 254.72 99.9376 254.019 100.399C253.317 100.86 252.786 101.481 252.425 102.263C252.064 103.025 251.884 103.877 251.884 104.819V112.727ZM275.034 119.102V98.2036H276.838L277.048 101.15C277.569 100.028 278.311 99.1959 279.273 98.6547C280.256 98.0934 281.348 97.8127 282.551 97.8127C283.954 97.8127 285.157 98.1435 286.159 98.805C287.162 99.4665 287.933 100.369 288.475 101.511C289.016 102.654 289.287 103.957 289.287 105.42C289.287 106.884 289.016 108.197 288.475 109.359C287.954 110.522 287.192 111.444 286.189 112.126C285.207 112.787 283.994 113.118 282.551 113.118C281.308 113.118 280.216 112.858 279.273 112.336C278.331 111.795 277.61 111.003 277.108 109.961V119.102H275.034ZM277.138 105.48C277.138 106.583 277.339 107.575 277.74 108.457C278.141 109.319 278.712 110.001 279.454 110.502C280.216 111.003 281.128 111.254 282.19 111.254C283.253 111.254 284.155 111.003 284.896 110.502C285.638 110.001 286.199 109.319 286.58 108.457C286.981 107.575 287.182 106.583 287.182 105.48C287.182 104.358 286.981 103.366 286.58 102.504C286.199 101.622 285.638 100.94 284.896 100.459C284.155 99.9577 283.253 99.7071 282.19 99.7071C281.128 99.7071 280.216 99.9577 279.454 100.459C278.712 100.94 278.141 101.622 277.74 102.504C277.339 103.366 277.138 104.358 277.138 105.48ZM291.361 108.668H293.346C293.346 109.51 293.646 110.181 294.248 110.683C294.849 111.164 295.651 111.404 296.653 111.404C297.776 111.404 298.648 111.184 299.269 110.743C299.911 110.282 300.232 109.66 300.232 108.878C300.232 108.277 300.061 107.796 299.72 107.435C299.38 107.074 298.778 106.784 297.916 106.563L295.42 105.932C294.157 105.611 293.215 105.12 292.594 104.458C291.972 103.797 291.662 102.975 291.662 101.992C291.662 101.15 291.882 100.419 292.323 99.7973C292.764 99.1558 293.376 98.6647 294.157 98.3239C294.959 97.9831 295.881 97.8127 296.924 97.8127C297.946 97.8127 298.838 97.9931 299.6 98.354C300.362 98.7148 300.953 99.226 301.374 99.8875C301.815 100.529 302.046 101.301 302.066 102.203H300.051C300.031 101.341 299.74 100.679 299.179 100.218C298.618 99.7572 297.846 99.5267 296.864 99.5267C295.841 99.5267 295.05 99.7372 294.488 100.158C293.947 100.579 293.676 101.181 293.676 101.962C293.676 103.085 294.468 103.847 296.052 104.248L298.548 104.879C299.811 105.2 300.733 105.671 301.314 106.292C301.915 106.914 302.216 107.746 302.216 108.788C302.216 109.65 301.986 110.412 301.525 111.073C301.064 111.735 300.412 112.246 299.57 112.607C298.748 112.948 297.786 113.118 296.683 113.118C295.06 113.118 293.767 112.717 292.804 111.915C291.842 111.094 291.361 110.011 291.361 108.668ZM304.61 105.48C304.61 103.977 304.93 102.654 305.572 101.511C306.213 100.369 307.095 99.4665 308.218 98.805C309.341 98.1435 310.603 97.8127 312.007 97.8127C313.43 97.8127 314.693 98.1435 315.795 98.805C316.918 99.4665 317.8 100.369 318.442 101.511C319.083 102.654 319.404 103.977 319.404 105.48C319.404 106.944 319.083 108.257 318.442 109.42C317.8 110.562 316.918 111.464 315.795 112.126C314.693 112.787 313.43 113.118 312.007 113.118C310.603 113.118 309.341 112.787 308.218 112.126C307.095 111.464 306.213 110.562 305.572 109.42C304.93 108.257 304.61 106.944 304.61 105.48ZM306.714 105.45C306.714 106.593 306.935 107.605 307.376 108.487C307.837 109.349 308.458 110.031 309.24 110.532C310.042 111.013 310.964 111.254 312.007 111.254C313.049 111.254 313.961 111.013 314.743 110.532C315.545 110.031 316.166 109.349 316.607 108.487C317.068 107.605 317.299 106.593 317.299 105.45C317.299 104.328 317.068 103.336 316.607 102.474C316.166 101.612 315.545 100.93 314.743 100.429C313.961 99.9276 313.049 99.677 312.007 99.677C310.964 99.677 310.042 99.9276 309.24 100.429C308.458 100.93 307.837 101.612 307.376 102.474C306.935 103.336 306.714 104.328 306.714 105.45ZM330.33 98.0232V99.8875H329.187C327.844 99.8875 326.772 100.298 325.97 101.12C325.188 101.942 324.797 103.055 324.797 104.458V112.757H322.722V98.2036H324.677L324.857 101.06H324.647C324.847 100.118 325.338 99.3563 326.12 98.7749C326.902 98.1735 327.854 97.8728 328.977 97.8728C329.197 97.8728 329.418 97.8829 329.638 97.9029C329.859 97.923 330.089 97.9631 330.33 98.0232ZM333.088 112.757V98.2036H335.163V112.757H333.088ZM334.111 94.2043C333.69 94.2043 333.329 94.054 333.028 93.7533C332.727 93.4526 332.577 93.0917 332.577 92.6708C332.577 92.2498 332.727 91.889 333.028 91.5883C333.329 91.2675 333.69 91.1071 334.111 91.1071C334.532 91.1071 334.892 91.2675 335.193 91.5883C335.514 91.889 335.674 92.2498 335.674 92.6708C335.674 93.0917 335.514 93.4526 335.193 93.7533C334.892 94.054 334.532 94.2043 334.111 94.2043ZM343.669 113.118C342.126 113.118 340.913 112.717 340.031 111.915C339.169 111.114 338.738 110.081 338.738 108.818C338.738 107.475 339.219 106.403 340.181 105.601C341.144 104.799 342.477 104.328 344.181 104.187L348.992 103.797V103.315C348.992 102.353 348.821 101.601 348.481 101.06C348.14 100.499 347.679 100.108 347.097 99.8875C346.516 99.667 345.865 99.5568 345.143 99.5568C343.86 99.5568 342.868 99.8274 342.166 100.369C341.464 100.91 341.114 101.672 341.114 102.654H339.219C339.219 101.672 339.47 100.82 339.971 100.098C340.472 99.3763 341.174 98.815 342.076 98.4141C342.978 98.0132 344.02 97.8127 345.203 97.8127C346.346 97.8127 347.348 98.0132 348.21 98.4141C349.072 98.795 349.754 99.3964 350.255 100.218C350.776 101.02 351.037 102.063 351.037 103.346V112.757H349.293L349.022 110.201C348.581 111.124 347.879 111.845 346.917 112.366C345.975 112.868 344.892 113.118 343.669 113.118ZM344.151 111.434C345.694 111.434 346.887 110.943 347.729 109.961C348.571 108.979 348.992 107.706 348.992 106.142V105.36L344.692 105.691C343.329 105.811 342.346 106.152 341.745 106.713C341.144 107.275 340.843 107.956 340.843 108.758C340.843 109.64 341.144 110.312 341.745 110.773C342.346 111.214 343.148 111.434 344.151 111.434ZM353.967 108.668H355.952C355.952 109.51 356.253 110.181 356.854 110.683C357.455 111.164 358.257 111.404 359.259 111.404C360.382 111.404 361.254 111.184 361.876 110.743C362.517 110.282 362.838 109.66 362.838 108.878C362.838 108.277 362.667 107.796 362.327 107.435C361.986 107.074 361.384 106.784 360.522 106.563L358.027 105.932C356.764 105.611 355.822 105.12 355.2 104.458C354.579 103.797 354.268 102.975 354.268 101.992C354.268 101.15 354.488 100.419 354.929 99.7973C355.37 99.1558 355.982 98.6647 356.764 98.3239C357.566 97.9831 358.488 97.8127 359.53 97.8127C360.552 97.8127 361.445 97.9931 362.206 98.354C362.968 98.7148 363.559 99.226 363.98 99.8875C364.421 100.529 364.652 101.301 364.672 102.203H362.657C362.637 101.341 362.347 100.679 361.785 100.218C361.224 99.7572 360.452 99.5267 359.47 99.5267C358.448 99.5267 357.656 99.7372 357.094 100.158C356.553 100.579 356.283 101.181 356.283 101.962C356.283 103.085 357.074 103.847 358.658 104.248L361.154 104.879C362.417 105.2 363.339 105.671 363.92 106.292C364.522 106.914 364.822 107.746 364.822 108.788C364.822 109.65 364.592 110.412 364.131 111.073C363.67 111.735 363.018 112.246 362.176 112.607C361.354 112.948 360.392 113.118 359.29 113.118C357.666 113.118 356.373 112.717 355.411 111.915C354.448 111.094 353.967 110.011 353.967 108.668ZM368.238 112.757V98.2036H370.313V112.757H368.238ZM369.261 94.2043C368.84 94.2043 368.479 94.054 368.178 93.7533C367.877 93.4526 367.727 93.0917 367.727 92.6708C367.727 92.2498 367.877 91.889 368.178 91.5883C368.479 91.2675 368.84 91.1071 369.261 91.1071C369.681 91.1071 370.042 91.2675 370.343 91.5883C370.664 91.889 370.824 92.2498 370.824 92.6708C370.824 93.0917 370.664 93.4526 370.343 93.7533C370.042 94.054 369.681 94.2043 369.261 94.2043ZM373.407 108.668H375.391C375.391 109.51 375.692 110.181 376.294 110.683C376.895 111.164 377.697 111.404 378.699 111.404C379.822 111.404 380.694 111.184 381.315 110.743C381.957 110.282 382.277 109.66 382.277 108.878C382.277 108.277 382.107 107.796 381.766 107.435C381.425 107.074 380.824 106.784 379.962 106.563L377.466 105.932C376.203 105.611 375.261 105.12 374.64 104.458C374.018 103.797 373.708 102.975 373.708 101.992C373.708 101.15 373.928 100.419 374.369 99.7973C374.81 99.1558 375.422 98.6647 376.203 98.3239C377.005 97.9831 377.927 97.8127 378.97 97.8127C379.992 97.8127 380.884 97.9931 381.646 98.354C382.408 98.7148 382.999 99.226 383.42 99.8875C383.861 100.529 384.092 101.301 384.112 102.203H382.097C382.077 101.341 381.786 100.679 381.225 100.218C380.664 99.7572 379.892 99.5267 378.91 99.5267C377.887 99.5267 377.095 99.7372 376.534 100.158C375.993 100.579 375.722 101.181 375.722 101.962C375.722 103.085 376.514 103.847 378.098 104.248L380.594 104.879C381.856 105.2 382.779 105.671 383.36 106.292C383.961 106.914 384.262 107.746 384.262 108.788C384.262 109.65 384.032 110.412 383.57 111.073C383.109 111.735 382.458 112.246 381.616 112.607C380.794 112.948 379.832 113.118 378.729 113.118C377.105 113.118 375.812 112.717 374.85 111.915C373.888 111.094 373.407 110.011 373.407 108.668ZM403.625 98.0232V99.8875H402.482C401.139 99.8875 400.067 100.298 399.265 101.12C398.483 101.942 398.092 103.055 398.092 104.458V112.757H396.017V98.2036H397.972L398.152 101.06H397.942C398.142 100.118 398.634 99.3563 399.415 98.7749C400.197 98.1735 401.149 97.8728 402.272 97.8728C402.492 97.8728 402.713 97.8829 402.933 97.9029C403.154 97.923 403.385 97.9631 403.625 98.0232ZM411.93 113.118C410.526 113.118 409.283 112.797 408.201 112.156C407.138 111.515 406.306 110.622 405.705 109.48C405.104 108.337 404.803 107.004 404.803 105.48C404.803 103.977 405.094 102.654 405.675 101.511C406.276 100.349 407.098 99.4465 408.141 98.805C409.183 98.1435 410.396 97.8127 411.779 97.8127C413.102 97.8127 414.255 98.1034 415.237 98.6847C416.24 99.2661 417.011 100.078 417.553 101.12C418.114 102.143 418.395 103.346 418.395 104.729V105.751H405.946L406.006 104.248H416.32C416.32 102.844 415.899 101.722 415.057 100.88C414.235 100.018 413.142 99.5868 411.779 99.5868C410.777 99.5868 409.895 99.8174 409.133 100.278C408.391 100.739 407.82 101.401 407.419 102.263C407.018 103.105 406.818 104.107 406.818 105.27C406.818 107.194 407.259 108.688 408.141 109.75C409.043 110.813 410.316 111.344 411.96 111.344C413.142 111.344 414.115 111.094 414.876 110.592C415.638 110.091 416.149 109.359 416.41 108.397H418.395C418.014 109.921 417.272 111.094 416.169 111.915C415.067 112.717 413.654 113.118 411.93 113.118ZM421.712 119.102V98.2036H423.516L423.727 101.15C424.248 100.028 424.989 99.1959 425.952 98.6547C426.934 98.0934 428.026 97.8127 429.229 97.8127C430.633 97.8127 431.835 98.1435 432.838 98.805C433.84 99.4665 434.612 100.369 435.153 101.511C435.694 102.654 435.965 103.957 435.965 105.42C435.965 106.884 435.694 108.197 435.153 109.359C434.632 110.522 433.87 111.444 432.868 112.126C431.885 112.787 430.673 113.118 429.229 113.118C427.986 113.118 426.894 112.858 425.952 112.336C425.009 111.795 424.288 111.003 423.787 109.961V119.102H421.712ZM423.817 105.48C423.817 106.583 424.017 107.575 424.418 108.457C424.819 109.319 425.39 110.001 426.132 110.502C426.894 111.003 427.806 111.254 428.868 111.254C429.931 111.254 430.833 111.003 431.575 110.502C432.316 110.001 432.878 109.319 433.259 108.457C433.66 107.575 433.86 106.583 433.86 105.48C433.86 104.358 433.66 103.366 433.259 102.504C432.878 101.622 432.316 100.94 431.575 100.459C430.833 99.9577 429.931 99.7071 428.868 99.7071C427.806 99.7071 426.894 99.9577 426.132 100.459C425.39 100.94 424.819 101.622 424.418 102.504C424.017 103.366 423.817 104.358 423.817 105.48ZM438.25 105.48C438.25 103.977 438.571 102.654 439.212 101.511C439.853 100.369 440.736 99.4665 441.858 98.805C442.981 98.1435 444.244 97.8127 445.647 97.8127C447.07 97.8127 448.333 98.1435 449.436 98.805C450.558 99.4665 451.44 100.369 452.082 101.511C452.723 102.654 453.044 103.977 453.044 105.48C453.044 106.944 452.723 108.257 452.082 109.42C451.44 110.562 450.558 111.464 449.436 112.126C448.333 112.787 447.07 113.118 445.647 113.118C444.244 113.118 442.981 112.787 441.858 112.126C440.736 111.464 439.853 110.562 439.212 109.42C438.571 108.257 438.25 106.944 438.25 105.48ZM440.355 105.45C440.355 106.593 440.575 107.605 441.016 108.487C441.477 109.349 442.099 110.031 442.881 110.532C443.682 111.013 444.605 111.254 445.647 111.254C446.689 111.254 447.601 111.013 448.383 110.532C449.185 110.031 449.807 109.349 450.248 108.487C450.709 107.605 450.939 106.593 450.939 105.45C450.939 104.328 450.709 103.336 450.248 102.474C449.807 101.612 449.185 100.93 448.383 100.429C447.601 99.9276 446.689 99.677 445.647 99.677C444.605 99.677 443.682 99.9276 442.881 100.429C442.099 100.93 441.477 101.612 441.016 102.474C440.575 103.336 440.355 104.328 440.355 105.45ZM463.97 98.0232V99.8875H462.828C461.484 99.8875 460.412 100.298 459.61 101.12C458.828 101.942 458.437 103.055 458.437 104.458V112.757H456.363V98.2036H458.317L458.498 101.06H458.287C458.487 100.118 458.979 99.3563 459.76 98.7749C460.542 98.1735 461.494 97.8728 462.617 97.8728C462.838 97.8728 463.058 97.8829 463.279 97.9029C463.499 97.923 463.73 97.9631 463.97 98.0232ZM465.692 98.2036H473.57V99.9477H465.692V98.2036ZM470.653 112.757H468.609V93.6029H470.653V112.757ZM482.229 113.118C480.826 113.118 479.583 112.797 478.501 112.156C477.438 111.515 476.606 110.622 476.005 109.48C475.404 108.337 475.103 107.004 475.103 105.48C475.103 103.977 475.394 102.654 475.975 101.511C476.576 100.349 477.398 99.4465 478.441 98.805C479.483 98.1435 480.696 97.8127 482.079 97.8127C483.402 97.8127 484.555 98.1034 485.537 98.6847C486.539 99.2661 487.311 100.078 487.852 101.12C488.414 102.143 488.694 103.346 488.694 104.729V105.751H476.246L476.306 104.248H486.62C486.62 102.844 486.199 101.722 485.357 100.88C484.535 100.018 483.442 99.5868 482.079 99.5868C481.077 99.5868 480.195 99.8174 479.433 100.278C478.691 100.739 478.12 101.401 477.719 102.263C477.318 103.105 477.118 104.107 477.118 105.27C477.118 107.194 477.559 108.688 478.441 109.75C479.343 110.813 480.616 111.344 482.259 111.344C483.442 111.344 484.414 111.094 485.176 110.592C485.938 110.091 486.449 109.359 486.71 108.397H488.694C488.314 109.921 487.572 111.094 486.469 111.915C485.367 112.717 483.953 113.118 482.229 113.118ZM497.725 113.118C496.322 113.118 495.119 112.787 494.117 112.126C493.114 111.464 492.342 110.562 491.801 109.42C491.26 108.257 490.989 106.954 490.989 105.511C490.989 104.047 491.26 102.734 491.801 101.571C492.342 100.409 493.114 99.4966 494.117 98.8351C495.139 98.1535 496.372 97.8127 497.815 97.8127C499.018 97.8127 500.08 98.0733 501.003 98.5945C501.945 99.1157 502.666 99.9076 503.168 100.97V90.8365H505.242V112.757H503.438L503.228 109.78C502.707 110.903 501.965 111.745 501.003 112.306C500.04 112.848 498.948 113.118 497.725 113.118ZM498.086 111.224C499.168 111.224 500.08 110.983 500.822 110.502C501.564 110.001 502.135 109.319 502.536 108.457C502.937 107.575 503.138 106.573 503.138 105.45C503.138 104.328 502.937 103.336 502.536 102.474C502.135 101.612 501.564 100.93 500.822 100.429C500.08 99.9276 499.168 99.677 498.086 99.677C497.043 99.677 496.141 99.9276 495.38 100.429C494.638 100.93 494.066 101.612 493.666 102.474C493.285 103.336 493.094 104.328 493.094 105.45C493.094 106.573 493.285 107.575 493.666 108.457C494.066 109.319 494.638 110.001 495.38 110.502C496.141 110.983 497.043 111.224 498.086 111.224ZM516.288 98.2036H524.166V99.9477H516.288V98.2036ZM521.249 112.757H519.205V93.6029H521.249V112.757ZM528.943 112.727H526.868V90.8365H528.943V100.729C529.404 99.8474 530.065 99.1458 530.927 98.6246C531.809 98.0833 532.862 97.8127 534.085 97.8127C536.009 97.8127 537.412 98.364 538.295 99.4665C539.177 100.569 539.618 102.032 539.618 103.857V112.757H537.543V104.308C537.543 103.165 537.382 102.263 537.062 101.601C536.741 100.92 536.29 100.439 535.709 100.158C535.127 99.8574 534.456 99.7071 533.694 99.7071C532.651 99.7071 531.779 99.9376 531.078 100.399C530.376 100.86 529.845 101.481 529.484 102.263C529.123 103.025 528.943 103.877 528.943 104.819V112.727ZM549.857 113.118C548.454 113.118 547.211 112.797 546.128 112.156C545.066 111.515 544.234 110.622 543.633 109.48C543.031 108.337 542.731 107.004 542.731 105.48C542.731 103.977 543.021 102.654 543.603 101.511C544.204 100.349 545.026 99.4465 546.068 98.805C547.111 98.1435 548.324 97.8127 549.707 97.8127C551.03 97.8127 552.182 98.1034 553.165 98.6847C554.167 99.2661 554.939 100.078 555.48 101.12C556.041 102.143 556.322 103.346 556.322 104.729V105.751H543.873L543.933 104.248H554.247C554.247 102.844 553.826 101.722 552.984 100.88C552.162 100.018 551.07 99.5868 549.707 99.5868C548.704 99.5868 547.822 99.8174 547.061 100.278C546.319 100.739 545.748 101.401 545.347 102.263C544.946 103.105 544.745 104.107 544.745 105.27C544.745 107.194 545.186 108.688 546.068 109.75C546.97 110.813 548.243 111.344 549.887 111.344C551.07 111.344 552.042 111.094 552.804 110.592C553.566 110.091 554.077 109.359 554.337 108.397H556.322C555.941 109.921 555.199 111.094 554.097 111.915C552.994 112.717 551.581 113.118 549.857 113.118ZM566.746 108.668H568.731C568.731 109.51 569.031 110.181 569.633 110.683C570.234 111.164 571.036 111.404 572.038 111.404C573.161 111.404 574.033 111.184 574.654 110.743C575.296 110.282 575.617 109.66 575.617 108.878C575.617 108.277 575.446 107.796 575.106 107.435C574.765 107.074 574.163 106.784 573.301 106.563L570.806 105.932C569.543 105.611 568.6 105.12 567.979 104.458C567.358 103.797 567.047 102.975 567.047 101.992C567.047 101.15 567.267 100.419 567.708 99.7973C568.149 99.1558 568.761 98.6647 569.543 98.3239C570.344 97.9831 571.267 97.8127 572.309 97.8127C573.331 97.8127 574.223 97.9931 574.985 98.354C575.747 98.7148 576.338 99.226 576.759 99.8875C577.2 100.529 577.431 101.301 577.451 102.203H575.436C575.416 101.341 575.126 100.679 574.564 100.218C574.003 99.7572 573.231 99.5267 572.249 99.5267C571.227 99.5267 570.435 99.7372 569.873 100.158C569.332 100.579 569.062 101.181 569.062 101.962C569.062 103.085 569.853 103.847 571.437 104.248L573.933 104.879C575.196 105.2 576.118 105.671 576.699 106.292C577.301 106.914 577.601 107.746 577.601 108.788C577.601 109.65 577.371 110.412 576.91 111.073C576.449 111.735 575.797 112.246 574.955 112.607C574.133 112.948 573.171 113.118 572.068 113.118C570.445 113.118 569.152 112.717 568.189 111.915C567.227 111.094 566.746 110.011 566.746 108.668ZM583.182 112.757H581.107V90.8365H583.182V105.721L590.399 98.2036H593.015L587.422 104.007L593.045 112.757H590.639L586.009 105.48L583.182 108.397V112.757ZM595.523 112.757V98.2036H597.598V112.757H595.523ZM596.546 94.2043C596.125 94.2043 595.764 94.054 595.463 93.7533C595.163 93.4526 595.012 93.0917 595.012 92.6708C595.012 92.2498 595.163 91.889 595.463 91.5883C595.764 91.2675 596.125 91.1071 596.546 91.1071C596.967 91.1071 597.328 91.2675 597.628 91.5883C597.949 91.889 598.109 92.2498 598.109 92.6708C598.109 93.0917 597.949 93.4526 597.628 93.7533C597.328 94.054 596.967 94.2043 596.546 94.2043ZM604 112.757H601.925V98.2036H603.729L604.03 100.729C604.511 99.8073 605.193 99.0957 606.075 98.5945C606.977 98.0733 607.959 97.8127 609.022 97.8127C611.026 97.8127 612.47 98.364 613.352 99.4665C614.234 100.569 614.675 102.032 614.675 103.857V112.757H612.6V104.308C612.6 102.604 612.239 101.411 611.517 100.729C610.816 100.048 609.863 99.7071 608.661 99.7071C607.177 99.7071 606.025 100.208 605.203 101.211C604.401 102.193 604 103.506 604 105.15V112.757ZM632.863 113.118C631.46 113.118 630.257 112.787 629.254 112.126C628.252 111.464 627.48 110.562 626.939 109.42C626.398 108.257 626.127 106.954 626.127 105.511C626.127 104.047 626.398 102.734 626.939 101.571C627.48 100.409 628.252 99.4966 629.254 98.8351C630.277 98.1535 631.51 97.8127 632.953 97.8127C634.156 97.8127 635.218 98.0733 636.14 98.5945C637.083 99.1157 637.804 99.9076 638.305 100.97V90.8365H640.38V112.757H638.576L638.366 109.78C637.844 110.903 637.103 111.745 636.14 112.306C635.178 112.848 634.086 113.118 632.863 113.118ZM633.224 111.224C634.306 111.224 635.218 110.983 635.96 110.502C636.702 110.001 637.273 109.319 637.674 108.457C638.075 107.575 638.275 106.573 638.275 105.45C638.275 104.328 638.075 103.336 637.674 102.474C637.273 101.612 636.702 100.93 635.96 100.429C635.218 99.9276 634.306 99.677 633.224 99.677C632.181 99.677 631.279 99.9276 630.517 100.429C629.776 100.93 629.204 101.612 628.803 102.474C628.422 103.336 628.232 104.328 628.232 105.45C628.232 106.573 628.422 107.575 628.803 108.457C629.204 109.319 629.776 110.001 630.517 110.502C631.279 110.983 632.181 111.224 633.224 111.224ZM644.71 112.757V98.2036H646.785V112.757H644.71ZM645.732 94.2043C645.311 94.2043 644.95 94.054 644.65 93.7533C644.349 93.4526 644.199 93.0917 644.199 92.6708C644.199 92.2498 644.349 91.889 644.65 91.5883C644.95 91.2675 645.311 91.1071 645.732 91.1071C646.153 91.1071 646.514 91.2675 646.815 91.5883C647.135 91.889 647.296 92.2498 647.296 92.6708C647.296 93.0917 647.135 93.4526 646.815 93.7533C646.514 94.054 646.153 94.2043 645.732 94.2043ZM649.879 108.668H651.863C651.863 109.51 652.164 110.181 652.765 110.683C653.367 111.164 654.169 111.404 655.171 111.404C656.293 111.404 657.165 111.184 657.787 110.743C658.428 110.282 658.749 109.66 658.749 108.878C658.749 108.277 658.579 107.796 658.238 107.435C657.897 107.074 657.296 106.784 656.434 106.563L653.938 105.932C652.675 105.611 651.733 105.12 651.111 104.458C650.49 103.797 650.179 102.975 650.179 101.992C650.179 101.15 650.4 100.419 650.841 99.7973C651.282 99.1558 651.893 98.6647 652.675 98.3239C653.477 97.9831 654.399 97.8127 655.441 97.8127C656.464 97.8127 657.356 97.9931 658.118 98.354C658.879 98.7148 659.471 99.226 659.892 99.8875C660.333 100.529 660.563 101.301 660.583 102.203H658.569C658.549 101.341 658.258 100.679 657.697 100.218C657.135 99.7572 656.364 99.5267 655.381 99.5267C654.359 99.5267 653.567 99.7372 653.006 100.158C652.465 100.579 652.194 101.181 652.194 101.962C652.194 103.085 652.986 103.847 654.569 104.248L657.065 104.879C658.328 105.2 659.25 105.671 659.832 106.292C660.433 106.914 660.734 107.746 660.734 108.788C660.734 109.65 660.503 110.412 660.042 111.073C659.581 111.735 658.93 112.246 658.088 112.607C657.266 112.948 656.303 113.118 655.201 113.118C653.577 113.118 652.284 112.717 651.322 111.915C650.36 111.094 649.879 110.011 649.879 108.668ZM670.254 113.118C668.85 113.118 667.608 112.797 666.525 112.156C665.463 111.515 664.631 110.622 664.029 109.48C663.428 108.337 663.127 107.004 663.127 105.48C663.127 103.977 663.418 102.654 663.999 101.511C664.601 100.349 665.422 99.4465 666.465 98.805C667.507 98.1435 668.72 97.8127 670.103 97.8127C671.426 97.8127 672.579 98.1034 673.561 98.6847C674.564 99.2661 675.335 100.078 675.877 101.12C676.438 102.143 676.719 103.346 676.719 104.729V105.751H664.27L664.33 104.248H674.644C674.644 102.844 674.223 101.722 673.381 100.88C672.559 100.018 671.467 99.5868 670.103 99.5868C669.101 99.5868 668.219 99.8174 667.457 100.278C666.715 100.739 666.144 101.401 665.743 102.263C665.342 103.105 665.142 104.107 665.142 105.27C665.142 107.194 665.583 108.688 666.465 109.75C667.367 110.813 668.64 111.344 670.284 111.344C671.467 111.344 672.439 111.094 673.201 110.592C673.962 110.091 674.473 109.359 674.734 108.397H676.719C676.338 109.921 675.596 111.094 674.494 111.915C673.391 112.717 671.978 113.118 670.254 113.118ZM684.069 113.118C682.525 113.118 681.312 112.717 680.43 111.915C679.568 111.114 679.137 110.081 679.137 108.818C679.137 107.475 679.619 106.403 680.581 105.601C681.543 104.799 682.876 104.328 684.58 104.187L689.391 103.797V103.315C689.391 102.353 689.221 101.601 688.88 101.06C688.539 100.499 688.078 100.108 687.497 99.8875C686.915 99.667 686.264 99.5568 685.542 99.5568C684.259 99.5568 683.267 99.8274 682.565 100.369C681.864 100.91 681.513 101.672 681.513 102.654H679.619C679.619 101.672 679.869 100.82 680.37 100.098C680.871 99.3763 681.573 98.815 682.475 98.4141C683.377 98.0132 684.42 97.8127 685.602 97.8127C686.745 97.8127 687.747 98.0132 688.609 98.4141C689.471 98.795 690.153 99.3964 690.654 100.218C691.175 101.02 691.436 102.063 691.436 103.346V112.757H689.692L689.421 110.201C688.98 111.124 688.279 111.845 687.316 112.366C686.374 112.868 685.292 113.118 684.069 113.118ZM684.55 111.434C686.094 111.434 687.286 110.943 688.128 109.961C688.97 108.979 689.391 107.706 689.391 106.142V105.36L685.091 105.691C683.728 105.811 682.746 106.152 682.144 106.713C681.543 107.275 681.242 107.956 681.242 108.758C681.242 109.64 681.543 110.312 682.144 110.773C682.746 111.214 683.548 111.434 684.55 111.434ZM694.366 108.668H696.351C696.351 109.51 696.652 110.181 697.253 110.683C697.855 111.164 698.656 111.404 699.659 111.404C700.781 111.404 701.653 111.184 702.275 110.743C702.916 110.282 703.237 109.66 703.237 108.878C703.237 108.277 703.067 107.796 702.726 107.435C702.385 107.074 701.784 106.784 700.922 106.563L698.426 105.932C697.163 105.611 696.221 105.12 695.599 104.458C694.978 103.797 694.667 102.975 694.667 101.992C694.667 101.15 694.888 100.419 695.329 99.7973C695.77 99.1558 696.381 98.6647 697.163 98.3239C697.965 97.9831 698.887 97.8127 699.929 97.8127C700.952 97.8127 701.844 97.9931 702.606 98.354C703.367 98.7148 703.959 99.226 704.38 99.8875C704.821 100.529 705.051 101.301 705.071 102.203H703.057C703.037 101.341 702.746 100.679 702.185 100.218C701.623 99.7572 700.852 99.5267 699.869 99.5267C698.847 99.5267 698.055 99.7372 697.494 100.158C696.952 100.579 696.682 101.181 696.682 101.962C696.682 103.085 697.474 103.847 699.057 104.248L701.553 104.879C702.816 105.2 703.738 105.671 704.32 106.292C704.921 106.914 705.222 107.746 705.222 108.788C705.222 109.65 704.991 110.412 704.53 111.073C704.069 111.735 703.417 112.246 702.576 112.607C701.754 112.948 700.791 113.118 699.689 113.118C698.065 113.118 696.772 112.717 695.81 111.915C694.848 111.094 694.366 110.011 694.366 108.668ZM714.742 113.118C713.338 113.118 712.095 112.797 711.013 112.156C709.95 111.515 709.119 110.622 708.517 109.48C707.916 108.337 707.615 107.004 707.615 105.48C707.615 103.977 707.906 102.654 708.487 101.511C709.088 100.349 709.91 99.4465 710.953 98.805C711.995 98.1435 713.208 97.8127 714.591 97.8127C715.914 97.8127 717.067 98.1034 718.049 98.6847C719.052 99.2661 719.823 100.078 720.365 101.12C720.926 102.143 721.207 103.346 721.207 104.729V105.751H708.758L708.818 104.248H719.132C719.132 102.844 718.711 101.722 717.869 100.88C717.047 100.018 715.954 99.5868 714.591 99.5868C713.589 99.5868 712.707 99.8174 711.945 100.278C711.203 100.739 710.632 101.401 710.231 102.263C709.83 103.105 709.63 104.107 709.63 105.27C709.63 107.194 710.071 108.688 710.953 109.75C711.855 110.813 713.128 111.344 714.772 111.344C715.954 111.344 716.927 111.094 717.688 110.592C718.45 110.091 718.961 109.359 719.222 108.397H721.207C720.826 109.921 720.084 111.094 718.981 111.915C717.879 112.717 716.466 113.118 714.742 113.118ZM731.24 98.2036H739.118V99.9477H731.24V98.2036ZM736.201 112.757H734.157V93.6029H736.201V112.757ZM740.651 105.48C740.651 103.977 740.971 102.654 741.613 101.511C742.254 100.369 743.136 99.4665 744.259 98.805C745.382 98.1435 746.645 97.8127 748.048 97.8127C749.471 97.8127 750.734 98.1435 751.837 98.805C752.959 99.4665 753.841 100.369 754.483 101.511C755.124 102.654 755.445 103.977 755.445 105.48C755.445 106.944 755.124 108.257 754.483 109.42C753.841 110.562 752.959 111.464 751.837 112.126C750.734 112.787 749.471 113.118 748.048 113.118C746.645 113.118 745.382 112.787 744.259 112.126C743.136 111.464 742.254 110.562 741.613 109.42C740.971 108.257 740.651 106.944 740.651 105.48ZM742.756 105.45C742.756 106.593 742.976 107.605 743.417 108.487C743.878 109.349 744.5 110.031 745.281 110.532C746.083 111.013 747.005 111.254 748.048 111.254C749.09 111.254 750.002 111.013 750.784 110.532C751.586 110.031 752.208 109.349 752.649 108.487C753.11 107.605 753.34 106.593 753.34 105.45C753.34 104.328 753.11 103.336 752.649 102.474C752.208 101.612 751.586 100.93 750.784 100.429C750.002 99.9276 749.09 99.677 748.048 99.677C747.005 99.677 746.083 99.9276 745.281 100.429C744.5 100.93 743.878 101.612 743.417 102.474C742.976 103.336 742.756 104.328 742.756 105.45ZM768.907 112.757H767.103V90.8365H769.178V101.03C769.679 99.9477 770.401 99.1458 771.343 98.6246C772.305 98.0833 773.408 97.8127 774.651 97.8127C776.074 97.8127 777.277 98.1535 778.259 98.8351C779.261 99.4966 780.023 100.409 780.544 101.571C781.086 102.734 781.356 104.047 781.356 105.511C781.356 106.954 781.086 108.257 780.544 109.42C780.003 110.562 779.231 111.464 778.229 112.126C777.227 112.787 776.014 113.118 774.591 113.118C773.388 113.118 772.305 112.848 771.343 112.306C770.381 111.745 769.639 110.903 769.118 109.78L768.907 112.757ZM769.208 105.45C769.208 106.573 769.409 107.575 769.81 108.457C770.21 109.319 770.782 110.001 771.524 110.502C772.285 110.983 773.197 111.224 774.26 111.224C775.322 111.224 776.224 110.983 776.966 110.502C777.708 110.001 778.269 109.319 778.65 108.457C779.051 107.575 779.251 106.573 779.251 105.45C779.251 104.328 779.051 103.336 778.65 102.474C778.269 101.612 777.708 100.93 776.966 100.429C776.224 99.9276 775.322 99.677 774.26 99.677C773.197 99.677 772.285 99.9276 771.524 100.429C770.782 100.93 770.21 101.612 769.81 102.474C769.409 103.336 769.208 104.328 769.208 105.45ZM790.768 113.118C789.364 113.118 788.122 112.797 787.039 112.156C785.977 111.515 785.145 110.622 784.543 109.48C783.942 108.337 783.641 107.004 783.641 105.48C783.641 103.977 783.932 102.654 784.513 101.511C785.115 100.349 785.937 99.4465 786.979 98.805C788.021 98.1435 789.234 97.8127 790.617 97.8127C791.94 97.8127 793.093 98.1034 794.075 98.6847C795.078 99.2661 795.85 100.078 796.391 101.12C796.952 102.143 797.233 103.346 797.233 104.729V105.751H784.784L784.844 104.248H795.158C795.158 102.844 794.737 101.722 793.895 100.88C793.073 100.018 791.981 99.5868 790.617 99.5868C789.615 99.5868 788.733 99.8174 787.971 100.278C787.23 100.739 786.658 101.401 786.257 102.263C785.856 103.105 785.656 104.107 785.656 105.27C785.656 107.194 786.097 108.688 786.979 109.75C787.881 110.813 789.154 111.344 790.798 111.344C791.981 111.344 792.953 111.094 793.715 110.592C794.476 110.091 794.988 109.359 795.248 108.397H797.233C796.852 109.921 796.11 111.094 795.008 111.915C793.905 112.717 792.492 113.118 790.768 113.118ZM163.383 154.118C161.839 154.118 160.627 153.717 159.744 152.915C158.882 152.114 158.451 151.081 158.451 149.818C158.451 148.475 158.933 147.403 159.895 146.601C160.857 145.799 162.19 145.328 163.894 145.187L168.705 144.797V144.315C168.705 143.353 168.535 142.601 168.194 142.06C167.853 141.499 167.392 141.108 166.811 140.888C166.23 140.667 165.578 140.557 164.856 140.557C163.573 140.557 162.581 140.827 161.879 141.369C161.178 141.91 160.827 142.672 160.827 143.654H158.933C158.933 142.672 159.183 141.82 159.684 141.098C160.186 140.376 160.887 139.815 161.789 139.414C162.691 139.013 163.734 138.813 164.916 138.813C166.059 138.813 167.061 139.013 167.923 139.414C168.785 139.795 169.467 140.396 169.968 141.218C170.489 142.02 170.75 143.063 170.75 144.346V153.757H169.006L168.735 151.201C168.294 152.124 167.593 152.845 166.63 153.366C165.688 153.868 164.606 154.118 163.383 154.118ZM163.864 152.434C165.408 152.434 166.6 151.943 167.442 150.961C168.284 149.979 168.705 148.706 168.705 147.142V146.36L164.405 146.691C163.042 146.811 162.06 147.152 161.458 147.713C160.857 148.275 160.556 148.956 160.556 149.758C160.556 150.64 160.857 151.312 161.458 151.773C162.06 152.214 162.862 152.434 163.864 152.434ZM185.418 153.757H183.343V131.837H185.418V153.757ZM194.011 154.118C192.467 154.118 191.254 153.717 190.372 152.915C189.51 152.114 189.079 151.081 189.079 149.818C189.079 148.475 189.56 147.403 190.523 146.601C191.485 145.799 192.818 145.328 194.522 145.187L199.333 144.797V144.315C199.333 143.353 199.163 142.601 198.822 142.06C198.481 141.499 198.02 141.108 197.439 140.888C196.857 140.667 196.206 140.557 195.484 140.557C194.201 140.557 193.209 140.827 192.507 141.369C191.806 141.91 191.455 142.672 191.455 143.654H189.56C189.56 142.672 189.811 141.82 190.312 141.098C190.813 140.376 191.515 139.815 192.417 139.414C193.319 139.013 194.361 138.813 195.544 138.813C196.687 138.813 197.689 139.013 198.551 139.414C199.413 139.795 200.095 140.396 200.596 141.218C201.117 142.02 201.378 143.063 201.378 144.346V153.757H199.634L199.363 151.201C198.922 152.124 198.22 152.845 197.258 153.366C196.316 153.868 195.233 154.118 194.011 154.118ZM194.492 152.434C196.035 152.434 197.228 151.943 198.07 150.961C198.912 149.979 199.333 148.706 199.333 147.142V146.36L195.033 146.691C193.67 146.811 192.688 147.152 192.086 147.713C191.485 148.275 191.184 148.956 191.184 149.758C191.184 150.64 191.485 151.312 192.086 151.773C192.688 152.214 193.489 152.434 194.492 152.434ZM213.149 139.023V140.888H212.006C210.663 140.888 209.591 141.298 208.789 142.12C208.007 142.942 207.616 144.055 207.616 145.458V153.757H205.541V139.204H207.496L207.676 142.06H207.466C207.666 141.118 208.157 140.356 208.939 139.775C209.721 139.174 210.673 138.873 211.796 138.873C212.016 138.873 212.237 138.883 212.457 138.903C212.678 138.923 212.908 138.963 213.149 139.023ZM214.651 146.06C214.651 144.736 214.921 143.534 215.462 142.451C216.004 141.349 216.785 140.467 217.808 139.805C218.83 139.143 220.053 138.813 221.476 138.813C222.86 138.813 224.042 139.153 225.025 139.835C226.007 140.517 226.708 141.499 227.129 142.782L226.799 143.203L227.069 139.204H228.874V153.306C228.874 154.75 228.583 156.003 228.001 157.065C227.42 158.148 226.598 158.98 225.536 159.561C224.493 160.162 223.26 160.463 221.837 160.463C219.973 160.463 218.429 159.962 217.206 158.959C215.984 157.957 215.222 156.584 214.921 154.84H216.996C217.216 156.023 217.748 156.935 218.59 157.576C219.452 158.238 220.544 158.569 221.867 158.569C223.371 158.569 224.574 158.107 225.476 157.185C226.378 156.263 226.829 155.04 226.829 153.517V148.946L227.129 149.337C226.708 150.56 225.977 151.532 224.934 152.254C223.912 152.956 222.709 153.306 221.326 153.306C219.943 153.306 218.75 152.976 217.748 152.314C216.745 151.653 215.974 150.78 215.432 149.698C214.911 148.595 214.651 147.383 214.651 146.06ZM216.725 146.029C216.725 147.032 216.916 147.944 217.297 148.766C217.698 149.588 218.259 150.239 218.981 150.72C219.722 151.201 220.604 151.442 221.627 151.442C222.669 151.442 223.561 151.211 224.303 150.75C225.065 150.269 225.646 149.628 226.047 148.826C226.448 148.004 226.648 147.072 226.648 146.029C226.648 144.987 226.448 144.065 226.047 143.263C225.666 142.461 225.105 141.83 224.363 141.369C223.641 140.888 222.739 140.647 221.657 140.647C220.614 140.647 219.722 140.898 218.981 141.399C218.259 141.88 217.698 142.531 217.297 143.353C216.916 144.155 216.725 145.047 216.725 146.029ZM239.307 154.118C237.904 154.118 236.661 153.797 235.579 153.156C234.516 152.515 233.684 151.622 233.083 150.48C232.481 149.337 232.181 148.004 232.181 146.48C232.181 144.977 232.471 143.654 233.053 142.511C233.654 141.349 234.476 140.446 235.518 139.805C236.561 139.143 237.774 138.813 239.157 138.813C240.48 138.813 241.633 139.103 242.615 139.685C243.617 140.266 244.389 141.078 244.93 142.12C245.492 143.143 245.772 144.346 245.772 145.729V146.751H233.323L233.383 145.248H243.697C243.697 143.844 243.276 142.722 242.435 141.88C241.613 141.018 240.52 140.587 239.157 140.587C238.155 140.587 237.273 140.817 236.511 141.278C235.769 141.739 235.198 142.401 234.797 143.263C234.396 144.105 234.195 145.107 234.195 146.27C234.195 148.194 234.636 149.688 235.518 150.75C236.421 151.813 237.694 152.344 239.337 152.344C240.52 152.344 241.492 152.094 242.254 151.592C243.016 151.091 243.527 150.359 243.788 149.397H245.772C245.391 150.921 244.65 152.094 243.547 152.915C242.445 153.717 241.031 154.118 239.307 154.118ZM257.429 160.102V139.204H259.233L259.444 142.15C259.965 141.028 260.707 140.196 261.669 139.655C262.651 139.093 263.744 138.813 264.947 138.813C266.35 138.813 267.553 139.143 268.555 139.805C269.557 140.467 270.329 141.369 270.87 142.511C271.412 143.654 271.682 144.957 271.682 146.42C271.682 147.884 271.412 149.197 270.87 150.359C270.349 151.522 269.587 152.444 268.585 153.126C267.603 153.787 266.39 154.118 264.947 154.118C263.704 154.118 262.611 153.858 261.669 153.336C260.727 152.795 260.005 152.003 259.504 150.961V160.102H257.429ZM259.534 146.48C259.534 147.583 259.735 148.575 260.136 149.457C260.536 150.319 261.108 151.001 261.849 151.502C262.611 152.003 263.523 152.254 264.586 152.254C265.648 152.254 266.55 152.003 267.292 151.502C268.034 151.001 268.595 150.319 268.976 149.457C269.377 148.575 269.577 147.583 269.577 146.48C269.577 145.358 269.377 144.366 268.976 143.504C268.595 142.622 268.034 141.94 267.292 141.459C266.55 140.958 265.648 140.707 264.586 140.707C263.523 140.707 262.611 140.958 261.849 141.459C261.108 141.94 260.536 142.622 260.136 143.504C259.735 144.366 259.534 145.358 259.534 146.48ZM282.597 139.023V140.888H281.455C280.111 140.888 279.039 141.298 278.237 142.12C277.455 142.942 277.064 144.055 277.064 145.458V153.757H274.99V139.204H276.944L277.124 142.06H276.914C277.114 141.118 277.606 140.356 278.387 139.775C279.169 139.174 280.121 138.873 281.244 138.873C281.465 138.873 281.685 138.883 281.906 138.903C282.126 138.923 282.357 138.963 282.597 139.023ZM283.775 146.48C283.775 144.977 284.096 143.654 284.737 142.511C285.379 141.369 286.261 140.467 287.383 139.805C288.506 139.143 289.769 138.813 291.172 138.813C292.596 138.813 293.858 139.143 294.961 139.805C296.084 140.467 296.966 141.369 297.607 142.511C298.249 143.654 298.569 144.977 298.569 146.48C298.569 147.944 298.249 149.257 297.607 150.42C296.966 151.562 296.084 152.464 294.961 153.126C293.858 153.787 292.596 154.118 291.172 154.118C289.769 154.118 288.506 153.787 287.383 153.126C286.261 152.464 285.379 151.562 284.737 150.42C284.096 149.257 283.775 147.944 283.775 146.48ZM285.88 146.45C285.88 147.593 286.1 148.605 286.541 149.487C287.003 150.349 287.624 151.031 288.406 151.532C289.208 152.013 290.13 152.254 291.172 152.254C292.215 152.254 293.127 152.013 293.909 151.532C294.71 151.031 295.332 150.349 295.773 149.487C296.234 148.605 296.465 147.593 296.465 146.45C296.465 145.328 296.234 144.336 295.773 143.474C295.332 142.612 294.71 141.93 293.909 141.429C293.127 140.928 292.215 140.677 291.172 140.677C290.13 140.677 289.208 140.928 288.406 141.429C287.624 141.93 287.003 142.612 286.541 143.474C286.1 144.336 285.88 145.328 285.88 146.45ZM303.692 153.757H301.888V131.837H303.963V142.03C304.464 140.948 305.186 140.146 306.128 139.625C307.09 139.083 308.192 138.813 309.435 138.813C310.859 138.813 312.061 139.153 313.044 139.835C314.046 140.497 314.808 141.409 315.329 142.571C315.87 143.734 316.141 145.047 316.141 146.511C316.141 147.954 315.87 149.257 315.329 150.42C314.788 151.562 314.016 152.464 313.014 153.126C312.011 153.787 310.799 154.118 309.375 154.118C308.172 154.118 307.09 153.848 306.128 153.306C305.165 152.745 304.424 151.903 303.903 150.78L303.692 153.757ZM303.993 146.45C303.993 147.573 304.193 148.575 304.594 149.457C304.995 150.319 305.566 151.001 306.308 151.502C307.07 151.983 307.982 152.224 309.044 152.224C310.107 152.224 311.009 151.983 311.751 151.502C312.492 151.001 313.054 150.319 313.435 149.457C313.836 148.575 314.036 147.573 314.036 146.45C314.036 145.328 313.836 144.336 313.435 143.474C313.054 142.612 312.492 141.93 311.751 141.429C311.009 140.928 310.107 140.677 309.044 140.677C307.982 140.677 307.07 140.928 306.308 141.429C305.566 141.93 304.995 142.612 304.594 143.474C304.193 144.336 303.993 145.328 303.993 146.45ZM321.613 153.757H319.538V131.837H321.613V153.757ZM332.13 154.118C330.727 154.118 329.484 153.797 328.401 153.156C327.339 152.515 326.507 151.622 325.906 150.48C325.304 149.337 325.004 148.004 325.004 146.48C325.004 144.977 325.294 143.654 325.876 142.511C326.477 141.349 327.299 140.446 328.341 139.805C329.384 139.143 330.597 138.813 331.98 138.813C333.303 138.813 334.455 139.103 335.438 139.685C336.44 140.266 337.212 141.078 337.753 142.12C338.314 143.143 338.595 144.346 338.595 145.729V146.751H326.146L326.206 145.248H336.52C336.52 143.844 336.099 142.722 335.257 141.88C334.435 141.018 333.343 140.587 331.98 140.587C330.977 140.587 330.095 140.817 329.334 141.278C328.592 141.739 328.021 142.401 327.62 143.263C327.219 144.105 327.018 145.107 327.018 146.27C327.018 148.194 327.459 149.688 328.341 150.75C329.243 151.813 330.516 152.344 332.16 152.344C333.343 152.344 334.315 152.094 335.077 151.592C335.839 151.091 336.35 150.359 336.61 149.397H338.595C338.214 150.921 337.472 152.094 336.37 152.915C335.267 153.717 333.854 154.118 332.13 154.118ZM343.987 153.757H341.912V139.204H343.717L344.017 141.94L343.717 141.85C344.017 140.928 344.579 140.196 345.4 139.655C346.242 139.093 347.225 138.813 348.347 138.813C349.65 138.813 350.733 139.174 351.595 139.895C352.477 140.597 353.038 141.559 353.279 142.782H352.828C353.028 141.559 353.569 140.597 354.451 139.895C355.354 139.174 356.476 138.813 357.819 138.813C359.383 138.813 360.646 139.294 361.608 140.256C362.57 141.218 363.051 142.541 363.051 144.225V153.757H361.037V144.646C361.037 143.403 360.716 142.431 360.075 141.729C359.433 141.028 358.551 140.677 357.428 140.677C356.627 140.677 355.935 140.867 355.354 141.248C354.772 141.609 354.321 142.1 354 142.722C353.7 143.343 353.549 144.025 353.549 144.767V153.757H351.505V144.616C351.505 143.373 351.174 142.411 350.512 141.729C349.871 141.048 348.999 140.707 347.896 140.707C347.094 140.707 346.393 140.888 345.791 141.248C345.21 141.609 344.759 142.1 344.438 142.722C344.138 143.323 343.987 143.995 343.987 144.736V153.757ZM375.565 153.757V139.204H377.64V153.757H375.565ZM376.587 135.204C376.166 135.204 375.805 135.054 375.505 134.753C375.204 134.453 375.054 134.092 375.054 133.671C375.054 133.25 375.204 132.889 375.505 132.588C375.805 132.268 376.166 132.107 376.587 132.107C377.008 132.107 377.369 132.268 377.67 132.588C377.99 132.889 378.151 133.25 378.151 133.671C378.151 134.092 377.99 134.453 377.67 134.753C377.369 135.054 377.008 135.204 376.587 135.204ZM384.041 153.757H381.966V139.204H383.77L384.071 141.729C384.552 140.807 385.234 140.096 386.116 139.595C387.018 139.073 388 138.813 389.063 138.813C391.067 138.813 392.511 139.364 393.393 140.467C394.275 141.569 394.716 143.032 394.716 144.857V153.757H392.641V145.308C392.641 143.604 392.28 142.411 391.559 141.729C390.857 141.048 389.905 140.707 388.702 140.707C387.218 140.707 386.066 141.208 385.244 142.211C384.442 143.193 384.041 144.506 384.041 146.15V153.757ZM405.567 139.204H413.445V140.948H405.567V139.204ZM410.529 153.757H408.484V134.603H410.529V153.757ZM418.222 153.727H416.147V131.837H418.222V141.729C418.683 140.847 419.345 140.146 420.207 139.625C421.089 139.083 422.141 138.813 423.364 138.813C425.288 138.813 426.692 139.364 427.574 140.467C428.456 141.569 428.897 143.032 428.897 144.857V153.757H426.822V145.308C426.822 144.165 426.662 143.263 426.341 142.601C426.02 141.92 425.569 141.439 424.988 141.158C424.406 140.857 423.735 140.707 422.973 140.707C421.931 140.707 421.059 140.938 420.357 141.399C419.655 141.86 419.124 142.481 418.763 143.263C418.402 144.025 418.222 144.877 418.222 145.819V153.727ZM439.136 154.118C437.733 154.118 436.49 153.797 435.408 153.156C434.345 152.515 433.513 151.622 432.912 150.48C432.31 149.337 432.01 148.004 432.01 146.48C432.01 144.977 432.3 143.654 432.882 142.511C433.483 141.349 434.305 140.446 435.347 139.805C436.39 139.143 437.603 138.813 438.986 138.813C440.309 138.813 441.462 139.103 442.444 139.685C443.446 140.266 444.218 141.078 444.759 142.12C445.321 143.143 445.601 144.346 445.601 145.729V146.751H433.152L433.212 145.248H443.526C443.526 143.844 443.105 142.722 442.263 141.88C441.442 141.018 440.349 140.587 438.986 140.587C437.984 140.587 437.102 140.817 436.34 141.278C435.598 141.739 435.027 142.401 434.626 143.263C434.225 144.105 434.024 145.107 434.024 146.27C434.024 148.194 434.465 149.688 435.347 150.75C436.25 151.813 437.522 152.344 439.166 152.344C440.349 152.344 441.321 152.094 442.083 151.592C442.845 151.091 443.356 150.359 443.617 149.397H445.601C445.22 150.921 444.479 152.094 443.376 152.915C442.274 153.717 440.86 154.118 439.136 154.118ZM448.919 153.757V139.204H450.993V153.757H448.919ZM449.941 135.204C449.52 135.204 449.159 135.054 448.858 134.753C448.558 134.453 448.407 134.092 448.407 133.671C448.407 133.25 448.558 132.889 448.858 132.588C449.159 132.268 449.52 132.107 449.941 132.107C450.362 132.107 450.723 132.268 451.023 132.588C451.344 132.889 451.505 133.25 451.505 133.671C451.505 134.092 451.344 134.453 451.023 134.753C450.723 135.054 450.362 135.204 449.941 135.204ZM462.928 139.023V140.888H461.785C460.442 140.888 459.37 141.298 458.568 142.12C457.786 142.942 457.395 144.055 457.395 145.458V153.757H455.32V139.204H457.275L457.455 142.06H457.245C457.445 141.118 457.936 140.356 458.718 139.775C459.5 139.174 460.452 138.873 461.575 138.873C461.795 138.873 462.016 138.883 462.236 138.903C462.457 138.923 462.687 138.963 462.928 139.023ZM480.13 154.118C478.727 154.118 477.484 153.797 476.401 153.156C475.339 152.515 474.507 151.622 473.905 150.48C473.304 149.337 473.003 148.004 473.003 146.48C473.003 144.977 473.294 143.654 473.875 142.511C474.477 141.349 475.299 140.446 476.341 139.805C477.383 139.143 478.596 138.813 479.979 138.813C481.303 138.813 482.455 139.103 483.437 139.685C484.44 140.266 485.212 141.078 485.753 142.12C486.314 143.143 486.595 144.346 486.595 145.729V146.751H474.146L474.206 145.248H484.52C484.52 143.844 484.099 142.722 483.257 141.88C482.435 141.018 481.343 140.587 479.979 140.587C478.977 140.587 478.095 140.817 477.333 141.278C476.592 141.739 476.02 142.401 475.619 143.263C475.218 144.105 475.018 145.107 475.018 146.27C475.018 148.194 475.459 149.688 476.341 150.75C477.243 151.813 478.516 152.344 480.16 152.344C481.343 152.344 482.315 152.094 483.077 151.592C483.838 151.091 484.35 150.359 484.61 149.397H486.595C486.214 150.921 485.472 152.094 484.37 152.915C483.267 153.717 481.854 154.118 480.13 154.118ZM493.56 153.757L487.607 139.204H489.832L493.59 148.585C493.811 149.127 494.001 149.648 494.162 150.149C494.342 150.63 494.503 151.111 494.643 151.592C494.783 151.091 494.944 150.6 495.124 150.119C495.304 149.618 495.505 149.107 495.725 148.585L499.544 139.204H501.679L495.635 153.757H493.56ZM509.583 154.118C508.18 154.118 506.937 153.797 505.854 153.156C504.792 152.515 503.96 151.622 503.358 150.48C502.757 149.337 502.456 148.004 502.456 146.48C502.456 144.977 502.747 143.654 503.328 142.511C503.93 141.349 504.752 140.446 505.794 139.805C506.837 139.143 508.049 138.813 509.433 138.813C510.756 138.813 511.908 139.103 512.891 139.685C513.893 140.266 514.665 141.078 515.206 142.12C515.767 143.143 516.048 144.346 516.048 145.729V146.751H503.599L503.659 145.248H513.973C513.973 143.844 513.552 142.722 512.71 141.88C511.888 141.018 510.796 140.587 509.433 140.587C508.43 140.587 507.548 140.817 506.786 141.278C506.045 141.739 505.473 142.401 505.072 143.263C504.672 144.105 504.471 145.107 504.471 146.27C504.471 148.194 504.912 149.688 505.794 150.75C506.696 151.813 507.969 152.344 509.613 152.344C510.796 152.344 511.768 152.094 512.53 151.592C513.292 151.091 513.803 150.359 514.063 149.397H516.048C515.667 150.921 514.925 152.094 513.823 152.915C512.72 153.717 511.307 154.118 509.583 154.118ZM526.973 139.023V140.888H525.83C524.487 140.888 523.415 141.298 522.613 142.12C521.831 142.942 521.44 144.055 521.44 145.458V153.757H519.365V139.204H521.32L521.5 142.06H521.29C521.49 141.118 521.981 140.356 522.763 139.775C523.545 139.174 524.497 138.873 525.62 138.873C525.84 138.873 526.061 138.883 526.281 138.903C526.502 138.923 526.732 138.963 526.973 139.023ZM530.472 139.204L535.945 154.058L534.411 155.261L528.277 139.204H530.472ZM528.698 160.102V158.388H530.292C530.713 158.388 531.124 158.348 531.525 158.268C531.946 158.208 532.327 158.037 532.667 157.757C533.028 157.476 533.319 157.005 533.539 156.343L539.764 139.204H541.899L535.223 157.095C534.802 158.238 534.231 159.06 533.509 159.561C532.808 160.062 531.936 160.313 530.893 160.313C530.472 160.313 530.081 160.293 529.721 160.252C529.36 160.232 529.019 160.182 528.698 160.102ZM549.51 154.118C548.107 154.118 546.904 153.787 545.902 153.126C544.899 152.464 544.128 151.562 543.586 150.42C543.045 149.257 542.775 147.954 542.775 146.511C542.775 145.047 543.045 143.734 543.586 142.571C544.128 141.409 544.899 140.497 545.902 139.835C546.924 139.153 548.157 138.813 549.6 138.813C550.803 138.813 551.866 139.073 552.788 139.595C553.73 140.116 554.452 140.908 554.953 141.97V131.837H557.028V153.757H555.223L555.013 150.78C554.492 151.903 553.75 152.745 552.788 153.306C551.826 153.848 550.733 154.118 549.51 154.118ZM549.871 152.224C550.954 152.224 551.866 151.983 552.607 151.502C553.349 151.001 553.92 150.319 554.321 149.457C554.722 148.575 554.923 147.573 554.923 146.45C554.923 145.328 554.722 144.336 554.321 143.474C553.92 142.612 553.349 141.93 552.607 141.429C551.866 140.928 550.954 140.677 549.871 140.677C548.829 140.677 547.927 140.928 547.165 141.429C546.423 141.93 545.852 142.612 545.451 143.474C545.07 144.336 544.879 145.328 544.879 146.45C544.879 147.573 545.07 148.575 545.451 149.457C545.852 150.319 546.423 151.001 547.165 151.502C547.927 151.983 548.829 152.224 549.871 152.224ZM565.537 154.118C563.993 154.118 562.781 153.717 561.898 152.915C561.036 152.114 560.605 151.081 560.605 149.818C560.605 148.475 561.087 147.403 562.049 146.601C563.011 145.799 564.344 145.328 566.048 145.187L570.859 144.797V144.315C570.859 143.353 570.689 142.601 570.348 142.06C570.007 141.499 569.546 141.108 568.965 140.888C568.384 140.667 567.732 140.557 567.01 140.557C565.727 140.557 564.735 140.827 564.033 141.369C563.332 141.91 562.981 142.672 562.981 143.654H561.087C561.087 142.672 561.337 141.82 561.838 141.098C562.34 140.376 563.041 139.815 563.943 139.414C564.845 139.013 565.888 138.813 567.07 138.813C568.213 138.813 569.215 139.013 570.077 139.414C570.939 139.795 571.621 140.396 572.122 141.218C572.643 142.02 572.904 143.063 572.904 144.346V153.757H571.16L570.889 151.201C570.448 152.124 569.747 152.845 568.784 153.366C567.842 153.868 566.76 154.118 565.537 154.118ZM566.018 152.434C567.562 152.434 568.754 151.943 569.596 150.961C570.438 149.979 570.859 148.706 570.859 147.142V146.36L566.559 146.691C565.196 146.811 564.214 147.152 563.612 147.713C563.011 148.275 562.71 148.956 562.71 149.758C562.71 150.64 563.011 151.312 563.612 151.773C564.214 152.214 565.016 152.434 566.018 152.434ZM577.045 139.204L582.518 154.058L580.984 155.261L574.85 139.204H577.045ZM575.271 160.102V158.388H576.865C577.286 158.388 577.697 158.348 578.098 158.268C578.519 158.208 578.899 158.037 579.24 157.757C579.601 157.476 579.892 157.005 580.112 156.343L586.337 139.204H588.472L581.796 157.095C581.375 158.238 580.804 159.06 580.082 159.561C579.381 160.062 578.509 160.313 577.466 160.313C577.045 160.313 576.654 160.293 576.293 160.252C575.933 160.232 575.592 160.182 575.271 160.102ZM601.403 153.757H599.328V131.837H601.403V153.757ZM605.816 153.757V139.204H607.891V153.757H605.816ZM606.838 135.204C606.417 135.204 606.056 135.054 605.756 134.753C605.455 134.453 605.305 134.092 605.305 133.671C605.305 133.25 605.455 132.889 605.756 132.588C606.056 132.268 606.417 132.107 606.838 132.107C607.259 132.107 607.62 132.268 607.921 132.588C608.241 132.889 608.402 133.25 608.402 133.671C608.402 134.092 608.241 134.453 607.921 134.753C607.62 135.054 607.259 135.204 606.838 135.204ZM610.594 139.204H618.322V140.948H610.594V139.204ZM618.442 131.957V133.731C618.302 133.731 618.121 133.731 617.901 133.731C617.68 133.731 617.45 133.731 617.209 133.731C616.287 133.731 615.665 133.961 615.345 134.423C615.044 134.864 614.894 135.515 614.894 136.377V153.757H612.819V136.377C612.819 135.295 612.999 134.423 613.36 133.761C613.721 133.079 614.202 132.588 614.803 132.288C615.425 131.987 616.106 131.837 616.848 131.837C617.109 131.837 617.379 131.847 617.66 131.867C617.941 131.887 618.201 131.917 618.442 131.957ZM626.808 154.118C625.405 154.118 624.162 153.797 623.079 153.156C622.017 152.515 621.185 151.622 620.584 150.48C619.982 149.337 619.682 148.004 619.682 146.48C619.682 144.977 619.972 143.654 620.554 142.511C621.155 141.349 621.977 140.446 623.019 139.805C624.062 139.143 625.275 138.813 626.658 138.813C627.981 138.813 629.133 139.103 630.116 139.685C631.118 140.266 631.89 141.078 632.431 142.12C632.992 143.143 633.273 144.346 633.273 145.729V146.751H620.824L620.884 145.248H631.198C631.198 143.844 630.777 142.722 629.935 141.88C629.113 141.018 628.021 140.587 626.658 140.587C625.655 140.587 624.773 140.817 624.012 141.278C623.27 141.739 622.699 142.401 622.298 143.263C621.897 144.105 621.696 145.107 621.696 146.27C621.696 148.194 622.137 149.688 623.019 150.75C623.921 151.813 625.194 152.344 626.838 152.344C628.021 152.344 628.993 152.094 629.755 151.592C630.517 151.091 631.028 150.359 631.288 149.397H633.273C632.892 150.921 632.15 152.094 631.048 152.915C629.945 153.717 628.532 154.118 626.808 154.118ZM637.454 154.088C636.953 154.088 636.512 153.908 636.131 153.547C635.75 153.186 635.56 152.755 635.56 152.254C635.56 151.733 635.75 151.292 636.131 150.931C636.512 150.55 636.953 150.359 637.454 150.359C637.975 150.359 638.416 150.55 638.777 150.931C639.158 151.292 639.349 151.733 639.349 152.254C639.349 152.755 639.158 153.186 638.777 153.547C638.416 153.908 637.975 154.088 637.454 154.088Z" fill="black"/>
</svg>
